<svg width="91" height="59" viewBox="0 0 91 59" fill="none" xmlns="http://www.w3.org/2000/svg">
    <g opacity="0.8">
        <path d="M2.96387 58.1426C2.45117 58.1426 1.91406 58.0205 1.57227 57.6055C1.20605 57.166 1.25488 56.751 1.23047 56.165C1.23047 54.7246 1.96289 53.3818 2.74414 52.1123C4.2334 49.6953 6.08887 47.4004 7.99316 45.1787C10.9473 41.7119 12.5342 40.1006 15.8057 36.707L16.6113 35.9258C16.6846 35.9258 16.7334 36.3164 16.7334 36.3652L16.7578 36.7314C16.7578 36.8779 16.7334 37.0488 16.6602 37.1221C14.8535 38.8555 15.6836 38.0986 14.0234 39.7832C11.0938 42.9082 10.9473 43.0303 8.31055 46.0576C6.47949 48.1572 4.47754 50.6475 3.0127 52.9668C2.42676 53.8945 1.81641 54.7979 1.57227 55.9209C1.54785 55.9941 1.52344 56.043 1.52344 56.1162V56.1895C1.76758 56.6533 2.18262 56.9219 2.96387 56.9219C3.25684 56.9219 3.5498 56.8975 3.79395 56.8486C5.33203 56.6533 6.82129 56.0674 8.2373 55.4814C10.8252 54.4316 13.3398 53.1621 15.8301 51.8438C21.4209 48.8408 27.6221 45.0322 32.4561 40.6865C34.1406 39.1973 35.752 37.5615 37.1191 35.7549C38.0713 34.5098 38.9258 33.1426 39.3896 31.6289C39.4629 31.4824 39.5361 31.1895 39.5361 30.9941H39.5605C39.5605 30.75 39.5605 30.75 39.6094 30.5303L39.585 30.3105C39.6094 30.3105 39.6094 30.3105 39.6094 30.3594C39.585 30.3105 39.585 30.2617 39.585 30.2129C39.4141 29.4805 39.4873 29.8467 39.292 29.3828C38.3398 27.6738 35.9717 27.2832 34.0918 27.2832C31.2842 27.2832 28.4033 28.0645 25.8154 28.7725C24.5459 29.1631 23.8623 29.2852 22.6416 29.4072C22.373 29.4072 22.1045 29.334 21.958 29.1631C21.8115 28.9922 21.7871 28.6992 21.7871 28.4307C21.7871 27.8691 21.9336 27.5518 22.1289 27.2344C22.4707 26.7217 22.959 26.2822 23.4229 25.8672C24.1309 25.208 24.8877 24.5977 25.6689 24.0117C29.6973 20.8135 31.1865 19.8857 35.6787 16.6143L39.3652 13.8555C42.0996 11.7559 45.5908 9.14355 48.1787 6.28711C48.8623 5.48145 48.9111 5.43262 49.4971 4.5293C49.7412 4.04102 49.6924 4.26074 49.8389 3.74805C49.7656 3.60156 49.8145 3.6748 49.7168 3.52832C49.3506 3.16211 49.2041 3.11328 48.6914 2.91797C47.9834 2.69824 47.2266 2.64941 46.4697 2.64941C36.1182 2.64941 28.6719 8.33789 23.96 16.2969C23.1787 17.6152 22.3242 19.2266 21.8115 20.7646C21.7871 20.8135 21.7627 20.8379 21.7383 20.8379C21.6895 20.8379 21.6406 20.5938 21.6162 20.5449L21.5918 20.2275C21.5918 19.5684 21.9336 19.0312 22.1533 18.4697C25.1074 11.8047 30.2588 5.96973 37.1924 3.1377C40.415 1.86816 42.8809 1.55078 46.4453 1.42871C47.2021 1.42871 47.9834 1.50195 48.6914 1.72168C49.2285 1.86816 49.7656 2.16113 49.9854 2.69824C50.1074 2.99121 50.1562 3.33301 50.1562 3.6748C50.1562 5.09082 49.3262 6.18945 48.5693 7.09277C47.0557 8.875 45.1025 10.5352 43.3447 11.9512C37.3145 16.9316 35.1172 18.1523 28.9893 22.7178C27.9639 23.4746 26.9385 24.2314 25.9619 25.0127C25.1562 25.623 24.375 26.2334 23.6426 26.917C23.2031 27.2832 22.7637 27.6982 22.3975 28.1621H22.8125C23.0078 28.1621 23.2275 28.1377 23.4473 28.1133C24.5215 27.9424 25.5713 27.625 26.6211 27.332C28.8672 26.6973 31.6016 26.0869 34.1895 26.0869C36.3623 26.0869 38.9014 26.6729 39.6094 28.748C39.8047 29.2852 39.8779 29.8711 39.8779 30.457C39.8779 32.9717 38.5107 35.2422 37.0703 37.0977C33.9941 41.1504 29.2334 44.7881 25.0098 47.6201C21.8848 49.6953 18.6133 51.5996 15.293 53.333C12.876 54.6025 10.4346 55.8477 7.89551 56.8486C6.50391 57.3857 5.03906 57.9473 3.57422 58.0938L2.96387 58.1426ZM22.0312 27.9912H22.0068H22.0312ZM48.9844 37.8789C48.8867 37.8789 48.8867 37.7324 48.8623 37.5859L48.8379 37.2441C48.8379 36.707 49.1553 36.2676 49.5215 35.8037C50.4492 34.583 50.6201 34.1191 51.377 32.7764C52.5977 30.6279 53.7939 28.4551 54.9658 26.2822L54.9902 26.2578C55.0391 26.2578 55.1123 26.6729 55.1367 26.7217V26.917C55.1367 27.1123 55.1367 27.3076 55.0391 27.4541C54.4775 28.5771 53.3057 30.6279 52.5 32.0684C53.3301 31.1162 54.209 30.1885 55.1123 29.3096C55.5762 28.8457 56.04 28.4062 56.5527 28.0156C56.9434 27.6738 57.5049 27.21 58.042 27.21C58.1885 27.21 58.335 27.2588 58.4326 27.4053C58.5791 27.5762 58.6035 27.8203 58.6523 28.0156L58.6768 28.6748C58.6768 28.6748 58.7012 28.7969 58.7256 28.8213C58.9453 29.5049 59.5557 29.7246 60.2393 29.7246C60.9961 29.7246 61.8018 29.4561 62.3145 29.2852C63.3154 28.9434 64.3164 28.5039 65.2197 27.9668C65.3174 27.9668 65.3662 28.5283 65.3662 28.5771V28.6992C65.3662 29.0654 65.293 29.1387 65 29.3096C63.8525 29.9443 62.6318 30.5059 61.3623 30.7744C61.0205 30.8477 60.6299 30.9209 60.2393 30.9209C59.9463 30.9209 59.6777 30.8721 59.4092 30.7744C58.5791 30.4082 58.4082 29.4805 58.4082 28.6504C58.335 28.5771 58.335 28.4795 58.2373 28.4795L58.042 28.4307C57.8223 28.4307 57.5781 28.5527 57.4072 28.6504C56.3818 29.2119 55.5029 30.1152 54.6973 30.9453C53.0615 32.6299 51.499 34.4365 50.083 36.3164L49.3018 37.5615C49.2041 37.708 49.0576 37.8789 48.9844 37.8789ZM66.001 44.373C65.8789 44.3486 65.8301 44.1777 65.8057 44.0557C65.7568 43.8848 65.7324 43.6895 65.7324 43.4941C65.7324 43.3477 65.7568 43.1768 65.7812 43.0303C65.9033 41.8096 66.4404 40.5889 66.9043 39.4414C67.71 37.4639 68.5889 35.5107 69.4922 33.582L71.4941 29.4316L70.8105 30.0664C69.248 31.5068 67.6367 32.9229 65.9766 34.29C65.1709 34.9736 64.3408 35.6328 63.4863 36.2432C62.876 36.6826 62.2412 37.1465 61.5332 37.4395C61.3623 37.5127 61.0938 37.6348 60.874 37.6348C60.7275 37.6348 60.5811 37.5859 60.5078 37.415C60.3857 37.2197 60.3613 36.9512 60.3613 36.707L60.4102 36.1211C60.459 35.7305 60.6055 35.3643 60.752 35.0225C61.3379 33.7041 62.1436 32.4834 62.9248 31.2871C64.0723 29.5537 65.293 27.7959 66.8066 26.3311C67.4902 25.6719 68.6377 24.6465 69.7119 24.6465C70.1025 24.6465 70.4688 24.793 70.8105 25.1104C71.3477 25.6475 71.6162 26.4531 71.7139 27.1855L71.7383 27.625C71.7383 27.7715 71.7139 27.9424 71.665 28.0156C71.6162 28.0645 71.5918 28.0889 71.5674 28.0889C71.4941 28.0889 71.4941 27.918 71.4697 27.8203V27.7471L71.3965 27.5029L71.3721 27.3809C71.2256 26.9414 71.0791 26.6484 70.7373 26.3066C70.4443 26.0137 70.0781 25.8916 69.6875 25.8916C69.5654 25.8916 69.4434 25.8916 69.3457 25.916C68.3936 26.1113 67.5635 26.8438 66.8799 27.5029C65.4395 28.8945 64.2676 30.5791 63.1445 32.2393C62.3389 33.4355 61.5332 34.6562 60.9229 35.9746L60.752 36.4141H60.8496L61.1182 36.3896C61.3623 36.3164 61.6064 36.1943 61.8506 36.0723C62.5586 35.7061 63.2178 35.2178 63.877 34.7295C65.6104 33.4355 67.2217 32.0439 68.833 30.6035C70.0049 29.5781 71.1523 28.5283 72.2754 27.4785C72.4463 27.332 72.5928 27.1611 72.7148 27.0146L73.1543 26.1602C74.4971 23.5234 75.8887 20.8867 77.3291 18.2988C78.7207 15.8086 80.1367 13.3184 81.626 10.9014C82.8467 8.92383 84.0918 6.94629 85.4834 5.06641C86.3379 3.91895 87.2656 2.625 88.4619 1.77051C88.7061 1.59961 89.0234 1.37988 89.3896 1.37988H89.4873C90.0244 1.42871 90.1465 1.96582 90.1709 2.42969V2.67383C90.1709 4.21191 89.3164 5.67676 88.584 6.94629C87.3633 9.09473 85.9473 11.1455 84.5068 13.1475C82.8711 15.4424 81.1621 17.6885 79.4287 19.9102C77.9639 21.8145 76.4502 23.6943 74.9365 25.5498C74.2285 26.4287 73.5205 27.332 72.7881 28.1865L71.6406 30.4814C70.542 32.7031 69.4678 34.9492 68.4424 37.2197C67.7344 38.8311 67.002 40.4424 66.4404 42.1025C66.3428 42.3711 66.2451 42.6641 66.1719 42.9326V42.957C66.1719 42.957 66.1475 42.957 66.1475 42.9814C66.1475 43.0059 66.1475 43.0303 66.123 43.0547L66.0986 43.25C66.123 43.3232 66.1475 43.4453 66.1475 43.5918C66.1475 43.9336 66.0498 44.373 66.001 44.373ZM74.5459 24.7686L76.8896 21.8877C78.5254 19.8125 80.1367 17.7617 81.7236 15.6621C83.335 13.5137 84.9219 11.3408 86.4355 9.11914C87.5586 7.43457 88.7061 5.72559 89.5117 3.8457C89.6338 3.55273 89.7559 3.25977 89.8535 2.9668L89.8779 2.82031L89.8291 2.74707C89.7314 2.64941 89.585 2.60059 89.4385 2.60059H89.3652C89.0234 2.60059 88.7061 2.7959 88.4375 3.01562C87.9492 3.38184 87.5342 3.82129 87.1191 4.28516C85.8496 5.70117 84.7754 7.28809 83.7256 8.875C82.334 10.999 81.0156 13.1719 79.7217 15.3936C78.2812 17.8594 76.8896 20.374 75.5469 22.9131L74.5459 24.7686Z" fill="white"/>
        <path d="M2.96387 58.1426V58.6426H2.98384L3.00374 58.641L2.96387 58.1426ZM1.57227 57.6055L1.95824 57.2876L1.95638 57.2854L1.57227 57.6055ZM1.23047 56.165H0.730469V56.1755L0.730902 56.1859L1.23047 56.165ZM2.74414 52.1123L2.31846 51.85L2.31831 51.8503L2.74414 52.1123ZM7.99316 45.1787L8.37279 45.5041L8.37374 45.503L7.99316 45.1787ZM15.8057 36.707L15.4576 36.3481L15.4515 36.3539L15.4457 36.36L15.8057 36.707ZM16.6113 35.9258V35.4258H16.4087L16.2633 35.5668L16.6113 35.9258ZM16.7334 36.3652H16.2334V36.3819L16.2345 36.3985L16.7334 36.3652ZM16.7578 36.7314H17.2578V36.7148L17.2567 36.6982L16.7578 36.7314ZM16.6602 37.1221L17.0064 37.4829L17.0137 37.4756L16.6602 37.1221ZM14.0234 39.7832L13.6672 39.4321L13.6587 39.4412L14.0234 39.7832ZM8.31055 46.0576L8.68738 46.3862L8.68759 46.386L8.31055 46.0576ZM1.57227 55.9209L2.04661 56.079L2.05513 56.0534L2.06085 56.0271L1.57227 55.9209ZM1.52344 56.1895H1.02344V56.313L1.08098 56.4223L1.52344 56.1895ZM3.79395 56.8486L3.73096 56.3526L3.71332 56.3549L3.69589 56.3583L3.79395 56.8486ZM8.2373 55.4814L8.04935 55.0181L8.04613 55.0194L8.2373 55.4814ZM15.8301 51.8438L16.064 52.2857L16.0667 52.2842L15.8301 51.8438ZM32.4561 40.6865L32.1249 40.3119L32.1218 40.3147L32.4561 40.6865ZM37.1191 35.7549L36.722 35.4512L36.7204 35.4532L37.1191 35.7549ZM39.3896 31.6289L38.9424 31.4053L38.9238 31.4426L38.9116 31.4824L39.3896 31.6289ZM39.5361 30.9941V30.4941H39.0361V30.9941H39.5361ZM39.5605 30.9941V31.4941H40.0605V30.9941H39.5605ZM39.6094 30.5303L40.0975 30.6387L40.1155 30.5576L40.1063 30.4751L39.6094 30.5303ZM39.585 30.3105V29.8105H39.0263L39.088 30.3658L39.585 30.3105ZM39.6094 30.3594L39.1622 30.583L40.1094 30.3594H39.6094ZM39.585 30.2129H40.085V30.1553L40.0719 30.0993L39.585 30.2129ZM39.292 29.3828L39.7528 29.1888L39.7421 29.1635L39.7288 29.1395L39.292 29.3828ZM25.8154 28.7725L25.6835 28.2902L25.6759 28.2923L25.6684 28.2946L25.8154 28.7725ZM22.6416 29.4072V29.9072H22.6665L22.6914 29.9047L22.6416 29.4072ZM22.1289 27.2344L21.7129 26.957L21.7078 26.9646L21.7031 26.9723L22.1289 27.2344ZM23.4229 25.8672L23.7563 26.2399L23.7636 26.2331L23.4229 25.8672ZM25.6689 24.0117L25.9691 24.4119L25.9798 24.4033L25.6689 24.0117ZM35.6787 16.6143L35.9731 17.0185L35.9783 17.0146L35.6787 16.6143ZM39.3652 13.8555L39.6648 14.2558L39.6697 14.252L39.3652 13.8555ZM48.1787 6.28711L48.5493 6.62281L48.5547 6.61679L48.56 6.6106L48.1787 6.28711ZM49.4971 4.5293L49.9166 4.80139L49.9318 4.77792L49.9443 4.7529L49.4971 4.5293ZM49.8389 3.74805L50.3196 3.88541L50.3731 3.6984L50.2861 3.52444L49.8389 3.74805ZM49.7168 3.52832L50.1328 3.25097L50.1054 3.20978L50.0704 3.17477L49.7168 3.52832ZM48.6914 2.91797L48.8694 2.45072L48.8547 2.44511L48.8396 2.44044L48.6914 2.91797ZM23.96 16.2969L24.3901 16.5518L24.3902 16.5516L23.96 16.2969ZM21.8115 20.7646L22.2587 20.9883L22.2746 20.9565L22.2859 20.9228L21.8115 20.7646ZM21.6162 20.5449L21.1177 20.5833L21.1252 20.6809L21.169 20.7685L21.6162 20.5449ZM21.5918 20.2275H21.0918V20.2467L21.0933 20.2659L21.5918 20.2275ZM22.1533 18.4697L21.6962 18.2671L21.6917 18.2772L21.6877 18.2875L22.1533 18.4697ZM37.1924 3.1377L37.0091 2.67245L37.0033 2.67482L37.1924 3.1377ZM46.4453 1.42871V0.928711H46.4368L46.4282 0.929004L46.4453 1.42871ZM48.6914 1.72168L48.5432 2.19921L48.5515 2.20178L48.5598 2.20406L48.6914 1.72168ZM49.9854 2.69824L49.5226 2.88756L49.5238 2.89055L49.9854 2.69824ZM48.5693 7.09277L48.9504 7.41645L48.9526 7.41388L48.5693 7.09277ZM43.3447 11.9512L43.031 11.5618L43.0263 11.5657L43.3447 11.9512ZM28.9893 22.7178L29.2862 23.1201L29.288 23.1187L28.9893 22.7178ZM25.9619 25.0127L26.2639 25.4114L26.2743 25.4031L25.9619 25.0127ZM23.6426 26.917L23.9627 27.3011L23.9735 27.2921L23.9837 27.2825L23.6426 26.917ZM22.3975 28.1621L22.005 27.8523L21.3657 28.6621H22.3975V28.1621ZM23.4473 28.1133L23.5025 28.6102L23.5142 28.6089L23.5258 28.6071L23.4473 28.1133ZM26.6211 27.332L26.7555 27.8136L26.7571 27.8132L26.6211 27.332ZM39.6094 28.748L39.1361 28.9095L39.1395 28.9189L39.6094 28.748ZM37.0703 37.0977L36.6753 36.791L36.672 36.7954L37.0703 37.0977ZM25.0098 47.6201L25.2864 48.0366L25.2882 48.0354L25.0098 47.6201ZM15.293 53.333L15.0616 52.8898L15.0605 52.8904L15.293 53.333ZM7.89551 56.8486L8.07555 57.3151L8.07889 57.3138L7.89551 56.8486ZM3.57422 58.0938L3.6141 58.5923L3.62397 58.5913L3.57422 58.0938ZM2.96387 58.1426V57.6426C2.50875 57.6426 2.15903 57.5314 1.95823 57.2876L1.57227 57.6055L1.1863 57.9233C1.66909 58.5096 2.39359 58.6426 2.96387 58.6426V58.1426ZM1.57227 57.6055L1.95638 57.2854C1.72544 57.0082 1.75796 56.8144 1.73004 56.1442L1.23047 56.165L0.730902 56.1859C0.751805 56.6875 0.686674 57.3238 1.18815 57.9256L1.57227 57.6055ZM1.23047 56.165H1.73047C1.73047 54.8819 2.38521 53.6496 3.16997 52.3744L2.74414 52.1123L2.31831 51.8503C1.54057 53.1141 0.730469 54.5673 0.730469 56.165H1.23047ZM2.74414 52.1123L3.16982 52.3746C4.63787 49.992 6.47248 47.7211 8.37279 45.5041L7.99316 45.1787L7.61354 44.8533C5.70526 47.0796 3.82892 49.3986 2.31846 51.85L2.74414 52.1123ZM7.99316 45.1787L8.37374 45.503C11.3165 42.0495 12.8933 40.4484 16.1656 37.0541L15.8057 36.707L15.4457 36.36C12.175 39.7527 10.578 41.3744 7.61259 44.8544L7.99316 45.1787ZM15.8057 36.707L16.1537 37.066L16.9594 36.2847L16.6113 35.9258L16.2633 35.5668L15.4576 36.3481L15.8057 36.707ZM16.6113 35.9258V36.4258C16.4993 36.4258 16.4099 36.3872 16.3506 36.3483C16.2946 36.3116 16.2599 36.2715 16.2423 36.2488C16.2236 36.2246 16.2123 36.2045 16.2069 36.1941C16.201 36.1829 16.1978 36.1751 16.1967 36.1725C16.1953 36.1688 16.2013 36.1851 16.2101 36.228C16.2178 36.2655 16.2244 36.3067 16.2289 36.3412C16.2311 36.3582 16.2326 36.3716 16.2335 36.3802C16.2349 36.3954 16.2334 36.3856 16.2334 36.3652H16.7334H17.2334C17.2334 36.2901 17.2132 36.1413 17.1896 36.0264C17.177 35.9655 17.1571 35.8812 17.1259 35.8027C17.1114 35.7663 17.083 35.7012 17.0329 35.6365C16.9935 35.5856 16.8556 35.4258 16.6113 35.4258V35.9258ZM16.7334 36.3652L16.2345 36.3985L16.2589 36.7647L16.7578 36.7314L17.2567 36.6982L17.2323 36.332L16.7334 36.3652ZM16.7578 36.7314H16.2578C16.2578 36.7545 16.2568 36.7775 16.2549 36.7987C16.2529 36.8203 16.2503 36.8368 16.2479 36.848C16.2452 36.8602 16.2443 36.8593 16.2487 36.8494C16.2511 36.8439 16.256 36.8336 16.2645 36.8203C16.273 36.8071 16.2865 36.7886 16.3066 36.7685L16.6602 37.1221L17.0137 37.4756C17.1539 37.3355 17.2038 37.1581 17.225 37.0604C17.25 36.9454 17.2578 36.8286 17.2578 36.7314H16.7578ZM16.6602 37.1221L16.314 36.7613C14.5068 38.4952 15.2971 37.7785 13.6673 39.4322L14.0234 39.7832L14.3796 40.1342C16.0701 38.4188 15.2002 39.2158 17.0063 37.4829L16.6602 37.1221ZM14.0234 39.7832L13.6587 39.4412C10.7285 42.5668 10.5766 42.6945 7.93351 45.7292L8.31055 46.0576L8.68759 46.386C11.3179 43.366 11.459 43.2496 14.3882 40.1252L14.0234 39.7832ZM8.31055 46.0576L7.93372 45.729C6.09577 47.8365 4.07473 50.3489 2.58995 52.6998L3.0127 52.9668L3.43544 53.2338C4.88035 50.946 6.86322 48.478 8.68738 46.3862L8.31055 46.0576ZM3.0127 52.9668L2.58995 52.6998C2.01915 53.6036 1.3505 54.5873 1.08368 55.8147L1.57227 55.9209L2.06085 56.0271C2.28232 55.0084 2.83437 54.1855 3.43544 53.2338L3.0127 52.9668ZM1.57227 55.9209L1.09792 55.7628C1.09553 55.77 1.02344 55.9367 1.02344 56.1162H1.52344H2.02344C2.02344 56.1264 2.02252 56.1371 2.02083 56.1473C2.01922 56.1569 2.01746 56.1627 2.01761 56.1622C2.01817 56.1604 2.01968 56.1557 2.02521 56.1402C2.02974 56.1275 2.03834 56.1038 2.04661 56.079L1.57227 55.9209ZM1.52344 56.1162H1.02344V56.1895H1.52344H2.02344V56.1162H1.52344ZM1.52344 56.1895L1.08098 56.4223C1.24154 56.7274 1.47188 56.99 1.80484 57.1697C2.13096 57.3456 2.51844 57.4219 2.96387 57.4219V56.9219V56.4219C2.62805 56.4219 2.41738 56.3639 2.27963 56.2896C2.14873 56.2189 2.04948 56.1154 1.9659 55.9566L1.52344 56.1895ZM2.96387 56.9219V57.4219C3.28127 57.4219 3.60819 57.3957 3.892 57.3389L3.79395 56.8486L3.69589 56.3583C3.49141 56.3992 3.23241 56.4219 2.96387 56.4219V56.9219ZM3.79395 56.8486L3.85693 57.3446C5.46963 57.1399 7.01591 56.528 8.42848 55.9435L8.2373 55.4814L8.04613 55.0194C6.62667 55.6068 5.19443 56.1668 3.73096 56.3526L3.79395 56.8486ZM8.2373 55.4814L8.42526 55.9448C11.0371 54.8853 13.5696 53.6062 16.064 52.2856L15.8301 51.8438L15.5961 51.4019C13.11 52.718 10.6133 53.978 8.04935 55.0181L8.2373 55.4814ZM15.8301 51.8438L16.0667 52.2842C21.671 49.274 27.9127 45.4433 32.7903 41.0584L32.4561 40.6865L32.1218 40.3147C27.3314 44.6212 21.1708 48.4076 15.5935 51.4033L15.8301 51.8438ZM32.4561 40.6865L32.7872 41.0611C34.4884 39.5572 36.1249 37.8972 37.5178 36.0566L37.1191 35.7549L36.7204 35.4532C35.379 37.2258 33.7928 38.8374 32.1249 40.3119L32.4561 40.6865ZM37.1191 35.7549L37.5163 36.0586C38.4852 34.7916 39.3791 33.3699 39.8677 31.7754L39.3896 31.6289L38.9116 31.4824C38.4725 32.9152 37.6574 34.2279 36.722 35.4512L37.1191 35.7549ZM39.3896 31.6289L39.8369 31.8525C39.8972 31.7318 39.9447 31.5812 39.9769 31.4451C40.0094 31.3077 40.0361 31.1444 40.0361 30.9941H39.5361H39.0361C39.0361 31.0392 39.0262 31.12 39.0038 31.2146C38.9811 31.3104 38.9553 31.3795 38.9424 31.4053L39.3896 31.6289ZM39.5361 30.9941V31.4941H39.5605V30.9941V30.4941H39.5361V30.9941ZM39.5605 30.9941H40.0605C40.0605 30.8614 40.0612 30.8312 40.0639 30.8054C40.0664 30.782 40.0709 30.7583 40.0975 30.6387L39.6094 30.5303L39.1213 30.4218C39.099 30.5219 39.0791 30.6082 39.0694 30.7007C39.0599 30.7909 39.0605 30.8827 39.0605 30.9941H39.5605ZM39.6094 30.5303L40.1063 30.4751L40.0819 30.2553L39.585 30.3105L39.088 30.3658L39.1124 30.5855L39.6094 30.5303ZM39.585 30.3105V30.8105C39.6149 30.8105 39.5536 30.8134 39.4906 30.7994C39.4471 30.7897 39.3802 30.7685 39.3113 30.7189C39.2389 30.6668 39.1899 30.6019 39.1591 30.5403C39.1311 30.4843 39.1205 30.4359 39.116 30.411C39.1113 30.3852 39.1101 30.3656 39.1098 30.3589C39.1092 30.3485 39.1094 30.341 39.1094 30.3594H39.6094H40.1094C40.1094 30.3533 40.1096 30.3275 40.1082 30.3034C40.1077 30.2946 40.1055 30.1969 40.0535 30.093C40.0212 30.0283 39.9703 29.9611 39.8956 29.9074C39.8242 29.856 39.7544 29.8336 39.7075 29.8232C39.6635 29.8134 39.6275 29.8116 39.6134 29.8111C39.5988 29.8105 39.585 29.8105 39.585 29.8105V30.3105ZM39.6094 30.3594L40.0566 30.1358C40.0754 30.1734 40.0819 30.2064 40.0842 30.2241C40.0851 30.2319 40.0852 30.2361 40.0851 30.2339C40.085 30.2308 40.085 30.2264 40.085 30.2129H39.585H39.085C39.085 30.2491 39.0777 30.414 39.1622 30.583L39.6094 30.3594ZM39.585 30.2129L40.0719 30.0993C39.9939 29.7651 39.9562 29.6028 39.8995 29.4831C39.8828 29.4479 39.8666 29.42 39.8568 29.4032C39.8463 29.3854 39.8417 29.3778 39.8343 29.3644C39.8214 29.3409 39.7968 29.2932 39.7528 29.1888L39.292 29.3828L38.8312 29.5768C38.8849 29.7044 38.9243 29.7848 38.9579 29.846C38.9739 29.875 38.9881 29.8988 38.9942 29.9091C39.0008 29.9205 38.9987 29.9174 38.9958 29.9112C38.9894 29.8977 38.9931 29.8993 39.0114 29.9681C39.0293 30.0353 39.055 30.1422 39.098 30.3265L39.585 30.2129ZM39.292 29.3828L39.7288 29.1395C39.1703 28.1371 38.212 27.5515 37.1961 27.2172C36.1805 26.883 35.06 26.7832 34.0918 26.7832V27.2832V27.7832C35.0034 27.7832 36.007 27.8787 36.8835 28.1671C37.7597 28.4554 38.4615 28.9196 38.8552 29.6262L39.292 29.3828ZM34.0918 27.2832V26.7832C31.2057 26.7832 28.2599 27.5853 25.6835 28.2902L25.8154 28.7725L25.9474 29.2547C28.5468 28.5436 31.3626 27.7832 34.0918 27.7832V27.2832ZM25.8154 28.7725L25.6684 28.2946C24.4339 28.6744 23.7832 28.7906 22.5918 28.9097L22.6416 29.4072L22.6914 29.9047C23.9414 29.7797 24.6579 29.6518 25.9625 29.2504L25.8154 28.7725ZM22.6416 29.4072V28.9072C22.5499 28.9072 22.4706 28.8944 22.4121 28.8749C22.3523 28.855 22.3359 28.8357 22.3376 28.8377L21.958 29.1631L21.5784 29.4885C21.8658 29.8238 22.3167 29.9072 22.6416 29.9072V29.4072ZM21.958 29.1631L22.3376 28.8377C22.3445 28.8457 22.3253 28.8264 22.3088 28.7399C22.2931 28.6577 22.2871 28.554 22.2871 28.4307H21.7871H21.2871C21.2871 28.5758 21.2933 28.7529 21.3265 28.9271C21.3588 29.0969 21.425 29.3095 21.5784 29.4885L21.958 29.1631ZM21.7871 28.4307H22.2871C22.2871 27.9852 22.3939 27.7577 22.5547 27.4964L22.1289 27.2344L21.7031 26.9723C21.4733 27.3458 21.2871 27.7531 21.2871 28.4307H21.7871ZM22.1289 27.2344L22.5449 27.5117C22.8455 27.0609 23.2836 26.6627 23.7562 26.2398L23.4229 25.8672L23.0895 25.4946C22.6343 25.9018 22.096 26.3824 21.7129 26.957L22.1289 27.2344ZM23.4229 25.8672L23.7636 26.2331C24.4545 25.5898 25.1966 24.991 25.9689 24.4117L25.6689 24.0117L25.3689 23.6117C24.5788 24.2043 23.8072 24.8262 23.0821 25.5012L23.4229 25.8672ZM25.6689 24.0117L25.9798 24.4033C29.9974 21.2136 31.4665 20.3004 35.9731 17.0184L35.6787 16.6143L35.3844 16.2101C30.9065 19.4711 29.3971 20.4133 25.358 23.6201L25.6689 24.0117ZM35.6787 16.6143L35.9783 17.0146L39.6648 14.2558L39.3652 13.8555L39.0657 13.4552L35.3791 16.2139L35.6787 16.6143ZM39.3652 13.8555L39.6697 14.252C42.3911 12.1625 45.9243 9.52015 48.5493 6.62281L48.1787 6.28711L47.8082 5.9514C45.2573 8.76696 41.8082 11.3493 39.0607 13.4589L39.3652 13.8555ZM48.1787 6.28711L48.56 6.6106C49.2536 5.79313 49.3162 5.72699 49.9166 4.80139L49.4971 4.5293L49.0776 4.2572C48.5061 5.13824 48.471 5.16976 47.7975 5.96362L48.1787 6.28711ZM49.4971 4.5293L49.9443 4.7529C50.0013 4.63895 50.0396 4.5693 50.067 4.5214C50.0867 4.48689 50.1242 4.42448 50.1479 4.37911C50.2127 4.25489 50.2502 4.12834 50.3196 3.88541L49.8389 3.74805L49.3581 3.61069C49.281 3.88045 49.2697 3.90038 49.2613 3.91654C49.2483 3.94137 49.2431 3.94762 49.1988 4.02526C49.162 4.08952 49.115 4.1755 49.0499 4.30569L49.4971 4.5293ZM49.8389 3.74805L50.2861 3.52444C50.2705 3.49322 50.2626 3.47618 50.2582 3.46643C50.2549 3.45914 50.2545 3.45819 50.2502 3.44859C50.247 3.44137 50.2414 3.42896 50.2342 3.41458C50.218 3.38216 50.2017 3.35582 50.1874 3.33347C50.1742 3.31302 50.156 3.28571 50.1328 3.25097L49.7168 3.52832L49.3008 3.80567C49.3264 3.84417 49.3387 3.86264 49.3462 3.87423C49.3524 3.88393 49.3468 3.8759 49.3398 3.86179C49.3372 3.85656 49.3358 3.8533 49.3374 3.85696C49.338 3.85823 49.3431 3.86987 49.3471 3.8786C49.3572 3.90089 49.3706 3.92963 49.3917 3.97165L49.8389 3.74805ZM49.7168 3.52832L50.0704 3.17477C49.871 2.97543 49.7062 2.8369 49.5042 2.72327C49.3174 2.61822 49.1103 2.54249 48.8694 2.45072L48.6914 2.91797L48.5134 3.38521C48.7852 3.48876 48.9077 3.5351 49.0139 3.59485C49.1049 3.64601 49.1964 3.715 49.3632 3.88187L49.7168 3.52832ZM48.6914 2.91797L48.8396 2.44044C48.0593 2.19826 47.2426 2.14941 46.4697 2.14941V2.64941V3.14941C47.2105 3.14941 47.9075 3.19823 48.5432 3.3955L48.6914 2.91797ZM46.4697 2.64941V2.14941C35.9013 2.14941 28.3091 7.96923 23.5297 16.0422L23.96 16.2969L24.3902 16.5516C29.0347 8.70655 36.335 3.14941 46.4697 3.14941V2.64941ZM23.96 16.2969L23.5298 16.042C22.7423 17.3709 21.8667 19.0181 21.3372 20.6065L21.8115 20.7646L22.2859 20.9228C22.7818 19.435 23.6151 17.8596 24.3901 16.5518L23.96 16.2969ZM21.8115 20.7646L21.3643 20.541C21.3654 20.5389 21.3694 20.5309 21.3772 20.5193C21.3846 20.5082 21.3988 20.4885 21.4213 20.466C21.4636 20.4237 21.5711 20.3379 21.7383 20.3379V20.8379V21.3379C21.9299 21.3379 22.0618 21.2398 22.1285 21.1731C22.1941 21.1075 22.2348 21.0362 22.2587 20.9883L21.8115 20.7646ZM21.7383 20.8379V20.3379C21.8431 20.3379 21.9271 20.3713 21.9835 20.4047C22.0376 20.4366 22.0732 20.4722 22.0927 20.494C22.1296 20.5353 22.1469 20.5707 22.1493 20.5754C22.1559 20.5886 22.154 20.5878 22.1446 20.5581C22.136 20.5313 22.1293 20.5071 22.1183 20.4699C22.1136 20.4541 22.1076 20.4338 22.101 20.414C22.0964 20.4 22.0836 20.3617 22.0634 20.3213L21.6162 20.5449L21.169 20.7685C21.1506 20.7317 21.1452 20.7053 21.1591 20.7527C21.1657 20.775 21.1788 20.821 21.1916 20.8613C21.2035 20.8988 21.2246 20.9621 21.2548 21.0226C21.269 21.0509 21.2983 21.1058 21.3473 21.1606C21.3863 21.2042 21.5178 21.3379 21.7383 21.3379V20.8379ZM21.6162 20.5449L22.1147 20.5066L22.0903 20.1892L21.5918 20.2275L21.0933 20.2659L21.1177 20.5833L21.6162 20.5449ZM21.5918 20.2275H22.0918C22.0918 19.986 22.1539 19.7532 22.2554 19.4951C22.3067 19.3649 22.3649 19.2356 22.4287 19.0941C22.4908 18.9564 22.5586 18.806 22.6189 18.6519L22.1533 18.4697L21.6877 18.2875C21.6381 18.4142 21.5809 18.5415 21.5171 18.6831C21.455 18.8208 21.3866 18.9722 21.3249 19.1289C21.2006 19.4446 21.0918 19.8099 21.0918 20.2275H21.5918ZM22.1533 18.4697L22.6104 18.6723C25.5239 12.0991 30.5918 6.37383 37.3814 3.60057L37.1924 3.1377L37.0033 2.67482C29.9258 5.56563 24.691 11.5103 21.6962 18.2671L22.1533 18.4697ZM37.1924 3.1377L37.3756 3.6029C40.5262 2.36175 42.93 2.04939 46.4624 1.92842L46.4453 1.42871L46.4282 0.929004C42.8317 1.05217 40.3038 1.37457 37.0091 2.67249L37.1924 3.1377ZM46.4453 1.42871V1.92871C47.1742 1.92871 47.9006 1.99979 48.5432 2.19921L48.6914 1.72168L48.8396 1.24415C48.0662 1.00411 47.2301 0.928711 46.4453 0.928711V1.42871ZM48.6914 1.72168L48.5598 2.20406C49.0417 2.33546 49.3909 2.56566 49.5226 2.88756L49.9854 2.69824L50.4481 2.50893C50.1404 1.7566 49.4154 1.40087 48.823 1.2393L48.6914 1.72168ZM49.9854 2.69824L49.5238 2.89055C49.6127 3.10398 49.6562 3.37533 49.6562 3.6748H50.1562H50.6562C50.6562 3.29068 50.6021 2.87844 50.4469 2.50593L49.9854 2.69824ZM50.1562 3.6748H49.6562C49.6562 4.89236 48.945 5.86585 48.1861 6.77166L48.5693 7.09277L48.9526 7.41388C49.7073 6.51306 50.6562 5.28928 50.6562 3.6748H50.1562ZM48.5693 7.09277L48.1882 6.7691C46.7073 8.51277 44.7861 10.148 43.0311 11.5618L43.3447 11.9512L43.6584 12.3405C45.419 10.9223 47.404 9.23723 48.9504 7.41645L48.5693 7.09277ZM43.3447 11.9512L43.0263 11.5657C37.007 16.5371 34.8483 17.7292 28.6905 22.3168L28.9893 22.7178L29.288 23.1187C35.3861 18.5755 37.6219 17.3262 43.6631 12.3367L43.3447 11.9512ZM28.9893 22.7178L28.6923 22.3155C27.6684 23.0713 26.635 23.8339 25.6496 24.6223L25.9619 25.0127L26.2743 25.4031C27.2419 24.629 28.2594 23.8779 29.2862 23.1201L28.9893 22.7178ZM25.9619 25.0127L25.66 24.6141C24.8521 25.2262 24.0537 25.8494 23.3014 26.5515L23.6426 26.917L23.9837 27.2825C24.6963 26.6174 25.4604 26.0199 26.2638 25.4112L25.9619 25.0127ZM23.6426 26.917L23.3225 26.5329C22.868 26.9116 22.4004 27.3515 22.005 27.8523L22.3975 28.1621L22.7899 28.4719C23.127 28.045 23.5382 27.6548 23.9627 27.3011L23.6426 26.917ZM22.3975 28.1621V28.6621H22.8125V28.1621V27.6621H22.3975V28.1621ZM22.8125 28.1621V28.6621C23.0409 28.6621 23.2899 28.6338 23.5025 28.6102L23.4473 28.1133L23.392 27.6163C23.1652 27.6415 22.9747 27.6621 22.8125 27.6621V28.1621ZM23.4473 28.1133L23.5258 28.6071C24.6359 28.4305 25.7215 28.1022 26.7555 27.8136L26.6211 27.332L26.4867 26.8504C25.4211 27.1478 24.407 27.4543 23.3687 27.6195L23.4473 28.1133ZM26.6211 27.332L26.7571 27.8132C28.989 27.1824 31.6708 26.5869 34.1895 26.5869V26.0869V25.5869C31.5323 25.5869 28.7454 26.2121 26.4851 26.8509L26.6211 27.332ZM34.1895 26.0869V26.5869C35.239 26.5869 36.3463 26.7295 37.2599 27.1022C38.1671 27.4724 38.8429 28.0499 39.1362 28.9095L39.6094 28.748L40.0826 28.5866C39.6679 27.371 38.7201 26.618 37.6376 26.1763C36.5615 25.7373 35.3128 25.5869 34.1895 25.5869V26.0869ZM39.6094 28.748L39.1395 28.9189C39.3092 29.3857 39.3779 29.9101 39.3779 30.457H39.8779H40.3779C40.3779 29.8321 40.3002 29.1847 40.0793 28.5772L39.6094 28.748ZM39.8779 30.457H39.3779C39.3779 32.7966 38.1017 34.9538 36.6754 36.791L37.0703 37.0977L37.4653 37.4043C38.9198 35.5306 40.3779 33.1467 40.3779 30.457H39.8779ZM37.0703 37.0977L36.672 36.7954C33.6484 40.7789 28.946 44.3788 24.7313 47.2048L25.0098 47.6201L25.2882 48.0354C29.5208 45.1974 34.3398 41.5219 37.4686 37.4L37.0703 37.0977ZM25.0098 47.6201L24.7332 47.2036C21.6245 49.2679 18.3684 51.1634 15.0616 52.8898L15.293 53.333L15.5244 53.7762C18.8582 52.0358 22.145 50.1227 25.2864 48.0366L25.0098 47.6201ZM15.293 53.333L15.0605 52.8904C12.6445 54.1593 10.2239 55.3933 7.71213 56.3835L7.89551 56.8486L8.07889 57.3138C10.6453 56.302 13.1074 55.0458 15.5255 53.7757L15.293 53.333ZM7.89551 56.8486L7.71547 56.3822C6.31173 56.924 4.91044 57.4576 3.52447 57.5962L3.57422 58.0938L3.62397 58.5913C5.16769 58.4369 6.69608 57.8475 8.07555 57.3151L7.89551 56.8486ZM3.57422 58.0938L3.53435 57.5953L2.92399 57.6442L2.96387 58.1426L3.00374 58.641L3.61409 58.5922L3.57422 58.0938ZM22.0312 27.9912V27.4912H22.0068V27.9912V28.4912H22.0312V27.9912ZM22.0068 27.9912V28.4912H22.0312V27.9912V27.4912H22.0068V27.9912ZM48.8623 37.5859L48.3636 37.6216L48.3652 37.645L48.3691 37.6681L48.8623 37.5859ZM48.8379 37.2441H48.3379V37.262L48.3392 37.2798L48.8379 37.2441ZM49.5215 35.8037L49.914 36.1136L49.9196 36.1063L49.5215 35.8037ZM51.377 32.7764L50.9422 32.5294L50.9414 32.5309L51.377 32.7764ZM54.9658 26.2822L54.6123 25.9287L54.5605 25.9804L54.5257 26.0449L54.9658 26.2822ZM54.9902 26.2578V25.7578H54.7831L54.6367 25.9043L54.9902 26.2578ZM55.1367 26.7217H55.6367V26.6036L55.5839 26.4981L55.1367 26.7217ZM55.0391 27.4541L54.623 27.1768L54.6058 27.2027L54.5918 27.2305L55.0391 27.4541ZM52.5 32.0684L52.0636 31.8243L52.8769 32.3969L52.5 32.0684ZM55.1123 29.3096L55.461 29.668L55.4659 29.6631L55.1123 29.3096ZM56.5527 28.0156L56.8558 28.4133L56.8692 28.4031L56.882 28.3919L56.5527 28.0156ZM58.4326 27.4053L58.0166 27.6826L58.0333 27.7077L58.053 27.7307L58.4326 27.4053ZM58.6523 28.0156L59.152 27.9971L59.1501 27.945L59.1374 27.8944L58.6523 28.0156ZM58.6768 28.6748L58.1771 28.6933L58.1786 28.7335L58.1865 28.7729L58.6768 28.6748ZM58.7256 28.8213L59.2016 28.6683L59.1646 28.5532L59.0791 28.4677L58.7256 28.8213ZM62.3145 29.2852L62.4726 29.7595L62.476 29.7583L62.3145 29.2852ZM65.2197 27.9668V27.4668H65.0823L64.9642 27.537L65.2197 27.9668ZM65 29.3096L65.2421 29.7472L65.2519 29.7415L65 29.3096ZM61.3623 30.7744L61.2588 30.2852L61.2575 30.2855L61.3623 30.7744ZM59.4092 30.7744L59.2074 31.2319L59.2226 31.2386L59.2383 31.2443L59.4092 30.7744ZM58.4082 28.6504H58.9082V28.4433L58.7618 28.2968L58.4082 28.6504ZM58.2373 28.4795L58.116 28.9646L58.1758 28.9795H58.2373V28.4795ZM58.042 28.4307L58.1633 27.9456L58.1035 27.9307H58.042V28.4307ZM57.4072 28.6504L57.6474 29.089L57.6553 29.0845L57.4072 28.6504ZM54.6973 30.9453L55.056 31.2936L55.0561 31.2936L54.6973 30.9453ZM50.083 36.3164L49.6836 36.0156L49.6708 36.0326L49.6595 36.0507L50.083 36.3164ZM49.3018 37.5615L49.7179 37.839L49.7253 37.8273L49.3018 37.5615ZM48.9844 37.8789V37.3789C49.0364 37.3789 49.0976 37.3891 49.1599 37.4175C49.222 37.4459 49.2692 37.4851 49.3027 37.5232C49.3623 37.5909 49.3776 37.6534 49.3776 37.6535C49.3792 37.6593 49.3775 37.6546 49.3728 37.622C49.3698 37.6009 49.3627 37.547 49.3555 37.5037L48.8623 37.5859L48.3691 37.6681C48.3741 37.6981 48.3762 37.7175 48.3831 37.765C48.3883 37.8011 48.3973 37.8605 48.4141 37.9212C48.4294 37.9762 48.4645 38.0846 48.5524 38.1842C48.6593 38.3057 48.8133 38.3789 48.9844 38.3789V37.8789ZM48.8623 37.5859L49.361 37.5503L49.3366 37.2085L48.8379 37.2441L48.3392 37.2798L48.3636 37.6216L48.8623 37.5859ZM48.8379 37.2441H49.3379C49.3379 36.9041 49.5347 36.5939 49.9139 36.1135L49.5215 35.8037L49.129 35.4939C48.7759 35.9413 48.3379 36.51 48.3379 37.2441H48.8379ZM49.5215 35.8037L49.9196 36.1063C50.8744 34.8499 51.0702 34.3389 51.8125 33.0219L51.377 32.7764L50.9414 32.5309C50.17 33.8994 50.024 34.3162 49.1234 35.5012L49.5215 35.8037ZM51.377 32.7764L51.8117 33.0234C53.0346 30.8711 54.2327 28.6949 55.4059 26.5196L54.9658 26.2822L54.5257 26.0449C53.3552 28.2152 52.1607 30.3848 50.9422 32.5294L51.377 32.7764ZM54.9658 26.2822L55.3194 26.6358L55.3438 26.6114L54.9902 26.2578L54.6367 25.9043L54.6123 25.9287L54.9658 26.2822ZM54.9902 26.2578V26.7578C54.8109 26.7578 54.6964 26.6639 54.656 26.6256C54.6109 26.583 54.5865 26.5427 54.5784 26.529C54.561 26.4993 54.5554 26.4803 54.5592 26.491C54.5646 26.5061 54.5742 26.5393 54.5876 26.5927C54.601 26.6464 54.6112 26.6913 54.6244 26.7461C54.6301 26.7699 54.6368 26.7967 54.6435 26.8211C54.6469 26.8333 54.6514 26.8488 54.6568 26.8652C54.6607 26.8771 54.6714 26.9092 54.6895 26.9453L55.1367 26.7217L55.5839 26.4981C55.6061 26.5425 55.6138 26.5778 55.6073 26.5544C55.6052 26.5467 55.6017 26.5331 55.5964 26.5111C55.5875 26.4743 55.5718 26.4064 55.5577 26.3502C55.5436 26.2937 55.5242 26.2201 55.5014 26.1558C55.4911 26.1269 55.4716 26.0751 55.4407 26.0225C55.4259 25.9973 55.3949 25.9481 55.3433 25.8993C55.2964 25.8549 55.1757 25.7578 54.9902 25.7578V26.2578ZM55.1367 26.7217H54.6367V26.917H55.1367H55.6367V26.7217H55.1367ZM55.1367 26.917H54.6367C54.6367 27.0216 54.6359 27.085 54.6289 27.1378C54.6224 27.1864 54.6145 27.1896 54.623 27.1768L55.0391 27.4541L55.4551 27.7315C55.653 27.4346 55.6367 27.0691 55.6367 26.917H55.1367ZM55.0391 27.4541L54.5918 27.2305C54.0372 28.3398 52.8756 30.3726 52.0636 31.8243L52.5 32.0684L52.9364 32.3124C53.7357 30.8833 54.9179 28.8145 55.4863 27.6777L55.0391 27.4541ZM52.5 32.0684L52.8769 32.3969C53.6979 31.4552 54.5674 30.5374 55.461 29.6679L55.1123 29.3096L54.7636 28.9512C53.8506 29.8396 52.9622 30.7773 52.1231 31.7398L52.5 32.0684ZM55.1123 29.3096L55.4659 29.6631C55.9249 29.2041 56.37 28.7834 56.8558 28.4133L56.5527 28.0156L56.2497 27.6179C55.7101 28.0291 55.2275 28.4873 54.7588 28.956L55.1123 29.3096ZM56.5527 28.0156L56.882 28.3919C57.0757 28.2224 57.2872 28.045 57.5056 27.9098C57.7304 27.7706 57.9098 27.71 58.042 27.71V27.21V26.71C57.6371 26.71 57.2672 26.8812 56.9793 27.0595C56.685 27.2416 56.4204 27.467 56.2235 27.6393L56.5527 28.0156ZM58.042 27.21V27.71C58.0612 27.71 58.0607 27.7133 58.0487 27.7079C58.0424 27.705 58.035 27.7006 58.028 27.6947C58.021 27.6887 58.0174 27.6838 58.0166 27.6826L58.4326 27.4053L58.8486 27.1279C58.6327 26.8041 58.3038 26.71 58.042 26.71V27.21ZM58.4326 27.4053L58.053 27.7307C58.0592 27.738 58.0768 27.7634 58.0983 27.8387C58.1088 27.8753 58.1182 27.916 58.1293 27.9674C58.1392 28.0135 58.1525 28.0778 58.1673 28.1369L58.6523 28.0156L59.1374 27.8944C59.1278 27.8558 59.1197 27.8163 59.1068 27.7564C59.095 27.7017 59.0799 27.6341 59.0599 27.5639C59.0203 27.4256 58.9525 27.2435 58.8122 27.0799L58.4326 27.4053ZM58.6523 28.0156L58.1527 28.0341L58.1771 28.6933L58.6768 28.6748L59.1764 28.6563L59.152 27.9971L58.6523 28.0156ZM58.6768 28.6748C58.1865 28.7729 58.1865 28.7729 58.1865 28.7729C58.1865 28.773 58.1865 28.773 58.1865 28.773C58.1865 28.7731 58.1865 28.7731 58.1865 28.7732C58.1866 28.7733 58.1866 28.7734 58.1866 28.7735C58.1867 28.7738 58.1867 28.7741 58.1868 28.7744C58.1869 28.7751 58.1871 28.7758 58.1873 28.7767C58.1876 28.7785 58.1881 28.7808 58.1887 28.7835C58.1898 28.7888 58.1913 28.7959 58.1932 28.8044C58.1969 28.8208 58.2025 28.8444 58.2096 28.8705C58.2162 28.8947 58.2267 28.9303 58.241 28.9676C58.2454 28.979 58.2825 29.0853 58.372 29.1748L58.7256 28.8213L59.0791 28.4677C59.1275 28.5161 59.1519 28.5619 59.1584 28.574C59.1678 28.5919 59.1729 28.6049 59.1743 28.6086C59.1772 28.6161 59.177 28.6167 59.1744 28.6073C59.1723 28.5998 59.1703 28.5913 59.1687 28.5841C59.1679 28.5808 59.1674 28.5782 59.1671 28.5767C59.1669 28.576 59.1668 28.5757 59.1668 28.5756C59.1668 28.5756 59.1668 28.5757 59.1669 28.5759C59.1669 28.576 59.1669 28.5761 59.1669 28.5762C59.167 28.5763 59.167 28.5764 59.167 28.5765C59.167 28.5765 59.167 28.5766 59.167 28.5766C59.167 28.5766 59.167 28.5767 59.167 28.5767C59.167 28.5767 59.167 28.5767 58.6768 28.6748ZM58.7256 28.8213L58.2496 28.9743C58.4004 29.4436 58.6969 29.7715 59.0748 29.9713C59.4377 30.1632 59.8507 30.2246 60.2393 30.2246V29.7246V29.2246C59.9442 29.2246 59.7102 29.1761 59.5422 29.0873C59.3891 29.0063 59.2705 28.8826 59.2016 28.6683L58.7256 28.8213ZM60.2393 29.7246V30.2246C61.0905 30.2246 61.9728 29.9261 62.4726 29.7595L62.3145 29.2852L62.1563 28.8108C61.6307 28.986 60.9017 29.2246 60.2393 29.2246V29.7246ZM62.3145 29.2852L62.476 29.7583C63.5032 29.4076 64.5368 28.9546 65.4753 28.3966L65.2197 27.9668L64.9642 27.537C64.096 28.0532 63.1277 28.4791 62.1529 28.812L62.3145 29.2852ZM65.2197 27.9668V28.4668C65.0988 28.4668 65.0047 28.4217 64.9451 28.3787C64.8895 28.3387 64.8573 28.2964 64.8428 28.2754C64.8151 28.2353 64.8074 28.2073 64.8108 28.2175C64.8155 28.2312 64.8255 28.2704 64.8364 28.3359C64.8464 28.3959 64.8543 28.4598 64.8597 28.5122C64.8623 28.5381 64.8642 28.5597 64.8654 28.5749C64.8671 28.5971 64.8662 28.5929 64.8662 28.5771H65.3662H65.8662C65.8662 28.5136 65.8493 28.3306 65.8228 28.1715C65.8093 28.0904 65.7887 27.9862 65.7568 27.8931C65.742 27.8499 65.7144 27.7776 65.6653 27.7067C65.6299 27.6554 65.488 27.4668 65.2197 27.4668V27.9668ZM65.3662 28.5771H64.8662V28.6992H65.3662H65.8662V28.5771H65.3662ZM65.3662 28.6992H64.8662C64.8662 28.7779 64.8619 28.816 64.8588 28.8329C64.8566 28.8442 64.8581 28.8294 64.8724 28.8073C64.8856 28.7867 64.8953 28.7825 64.8778 28.7959C64.8563 28.8123 64.82 28.8357 64.7481 28.8777L65 29.3096L65.2519 29.7415C65.3844 29.6642 65.584 29.5495 65.7136 29.348C65.8515 29.1334 65.8662 28.8967 65.8662 28.6992H65.3662ZM65 29.3096L64.758 28.8721C63.6284 29.4969 62.4579 30.0316 61.2588 30.2852L61.3623 30.7744L61.4658 31.2636C62.8058 30.9801 64.0767 30.3918 65.242 29.7471L65 29.3096ZM61.3623 30.7744L61.2575 30.2855C60.9203 30.3578 60.5735 30.4209 60.2393 30.4209V30.9209V31.4209C60.6863 31.4209 61.1208 31.3375 61.4671 31.2633L61.3623 30.7744ZM60.2393 30.9209V30.4209C60.0056 30.4209 59.7948 30.3826 59.5801 30.3045L59.4092 30.7744L59.2383 31.2443C59.5606 31.3615 59.887 31.4209 60.2393 31.4209V30.9209ZM59.4092 30.7744L59.611 30.317C59.0899 30.087 58.9082 29.4761 58.9082 28.6504H58.4082H57.9082C57.9082 29.4848 58.0683 30.7294 59.2074 31.2319L59.4092 30.7744ZM58.4082 28.6504L58.7618 28.2968C58.7828 28.3178 58.7928 28.3351 58.7916 28.3331C58.7903 28.3309 58.7889 28.3286 58.7822 28.3168C58.7772 28.308 58.7665 28.2891 58.7537 28.269C58.7294 28.2307 58.6751 28.151 58.5795 28.0848C58.4729 28.011 58.353 27.9795 58.2373 27.9795V28.4795V28.9795C58.2075 28.9795 58.1697 28.9757 58.1276 28.9632C58.0847 28.9505 58.0451 28.9311 58.0103 28.907C57.9445 28.8614 57.9131 28.8106 57.9101 28.8059C57.908 28.8026 57.9076 28.8017 57.9132 28.8115C57.917 28.8183 57.9266 28.8352 57.9371 28.8525C57.9595 28.8894 57.997 28.9463 58.0546 29.0039L58.4082 28.6504ZM58.2373 28.4795L58.3586 27.9944L58.1633 27.9456L58.042 28.4307L57.9207 28.9157L58.116 28.9646L58.2373 28.4795ZM58.042 28.4307V27.9307C57.6747 27.9307 57.3251 28.1214 57.1592 28.2163L57.4072 28.6504L57.6553 29.0845C57.7315 29.041 57.8108 28.9997 57.8875 28.9699C57.9679 28.9387 58.0185 28.9307 58.042 28.9307V28.4307ZM57.4072 28.6504L57.1671 28.2118C56.0639 28.816 55.1334 29.778 54.3385 30.5971L54.6973 30.9453L55.0561 31.2936C55.8724 30.4524 56.6998 29.6079 57.6474 29.0889L57.4072 28.6504ZM54.6973 30.9453L54.3386 30.597C52.6894 32.2953 51.1132 34.1178 49.6836 36.0156L50.083 36.3164L50.4824 36.6172C51.8849 34.7553 53.4336 32.9644 55.056 31.2936L54.6973 30.9453ZM50.083 36.3164L49.6595 36.0507L48.8782 37.2958L49.3018 37.5615L49.7253 37.8273L50.5065 36.5822L50.083 36.3164ZM49.3018 37.5615L48.8857 37.2842C48.8486 37.3399 48.805 37.3954 48.7714 37.4308C48.7537 37.4494 48.7499 37.4507 48.7599 37.4435C48.7653 37.4396 48.7833 37.427 48.8127 37.4141C48.8394 37.4022 48.9003 37.3789 48.9844 37.3789V37.8789V38.3789C49.1689 38.3789 49.3019 38.2853 49.3423 38.2564C49.4035 38.2126 49.4561 38.1619 49.4964 38.1195C49.5787 38.0329 49.6573 37.9296 49.7178 37.8389L49.3018 37.5615ZM66.001 44.373L65.9029 44.8633L65.9515 44.873H66.001V44.373ZM65.8057 44.0557L66.296 43.9576L66.292 43.9378L66.2864 43.9183L65.8057 44.0557ZM65.7812 43.0303L66.2744 43.1125L66.2771 43.0963L66.2788 43.08L65.7812 43.0303ZM66.9043 39.4414L66.4412 39.2528L66.4407 39.254L66.9043 39.4414ZM69.4922 33.582L69.0418 33.3648L69.0394 33.37L69.4922 33.582ZM71.4941 29.4316L71.9445 29.6489L71.1539 29.0652L71.4941 29.4316ZM70.8105 30.0664L71.1495 30.434L71.1508 30.4328L70.8105 30.0664ZM65.9766 34.29L65.6587 33.904L65.6531 33.9088L65.9766 34.29ZM63.4863 36.2432L63.1957 35.8363L63.1942 35.8374L63.4863 36.2432ZM61.5332 37.4395L61.342 36.9774L61.3362 36.9799L61.5332 37.4395ZM60.5078 37.415L60.9674 37.2181L60.9522 37.1827L60.9318 37.15L60.5078 37.415ZM60.3613 36.707L59.8631 36.6655L59.8613 36.6862V36.707H60.3613ZM60.4102 36.1211L59.914 36.0591L59.9127 36.0693L59.9119 36.0796L60.4102 36.1211ZM60.752 35.0225L60.295 34.8194L60.2924 34.8255L60.752 35.0225ZM62.9248 31.2871L62.5079 31.0111L62.5062 31.0137L62.9248 31.2871ZM66.8066 26.3311L66.4596 25.9711L66.4589 25.9718L66.8066 26.3311ZM70.8105 25.1104L71.1641 24.7568L71.1576 24.7503L71.1508 24.744L70.8105 25.1104ZM71.7139 27.1855L72.2131 27.1578L72.212 27.1386L72.2095 27.1195L71.7139 27.1855ZM71.7383 27.625H72.2383V27.6111L72.2375 27.5973L71.7383 27.625ZM71.665 28.0156L72.0186 28.3692L72.0536 28.3342L72.0811 28.293L71.665 28.0156ZM71.4697 27.8203H70.9697V27.8819L70.9847 27.9416L71.4697 27.8203ZM71.4697 27.7471H71.9697V27.6737L71.9486 27.6034L71.4697 27.7471ZM71.3965 27.5029L70.9062 27.601L70.9108 27.6241L70.9176 27.6466L71.3965 27.5029ZM71.3721 27.3809L71.8624 27.2828L71.8563 27.2523L71.8464 27.2227L71.3721 27.3809ZM69.3457 25.916L69.4462 26.4058L69.4566 26.4037L69.467 26.4011L69.3457 25.916ZM66.8799 27.5029L66.5328 27.143L66.5325 27.1433L66.8799 27.5029ZM63.1445 32.2393L62.7304 31.9591L62.7298 31.96L63.1445 32.2393ZM60.9229 35.9746L60.4691 35.7645L60.4625 35.7788L60.4568 35.7934L60.9229 35.9746ZM60.752 36.4141L60.286 36.2328L60.021 36.9141H60.752V36.4141ZM60.8496 36.4141V36.9141H60.8723L60.8949 36.912L60.8496 36.4141ZM61.1182 36.3896L61.1634 36.8876L61.2136 36.883L61.2618 36.8686L61.1182 36.3896ZM61.8506 36.0723L62.0742 36.5195L62.0803 36.5164L61.8506 36.0723ZM63.877 34.7295L64.1746 35.1313L64.176 35.1302L63.877 34.7295ZM68.833 30.6035L68.5037 30.2272L68.4998 30.2307L68.833 30.6035ZM72.2754 27.4785L71.95 27.0989L71.9418 27.1059L71.9339 27.1133L72.2754 27.4785ZM72.7148 27.0146L73.099 27.3347L73.1343 27.2924L73.1595 27.2433L72.7148 27.0146ZM73.1543 26.1602L73.5989 26.3888L73.5998 26.3871L73.1543 26.1602ZM77.3291 18.2988L76.8926 18.0549L76.8922 18.0557L77.3291 18.2988ZM81.626 10.9014L81.2005 10.6387L81.2003 10.6391L81.626 10.9014ZM85.4834 5.06641L85.0824 4.76777L85.0815 4.76892L85.4834 5.06641ZM88.4619 1.77051L88.1752 1.36087L88.1713 1.36364L88.4619 1.77051ZM89.4873 1.37988L89.5326 0.881936L89.51 0.879883H89.4873V1.37988ZM90.1709 2.42969H90.6709V2.41654L90.6702 2.40341L90.1709 2.42969ZM88.584 6.94629L88.1509 6.69642L88.1493 6.69928L88.584 6.94629ZM84.5068 13.1475L84.101 12.8554L84.0997 12.8573L84.5068 13.1475ZM79.4287 19.9102L79.0345 19.6026L79.0324 19.6053L79.4287 19.9102ZM74.9365 25.5498L74.5491 25.2337L74.5471 25.2361L74.9365 25.5498ZM72.7881 28.1865L72.4085 27.8611L72.3684 27.9079L72.3409 27.9629L72.7881 28.1865ZM71.6406 30.4814L71.1934 30.2578L71.1924 30.2598L71.6406 30.4814ZM68.4424 37.2197L67.9867 37.0139L67.9846 37.0186L68.4424 37.2197ZM66.4404 42.1025L66.9104 42.2735L66.9141 42.2627L66.4404 42.1025ZM66.1719 42.9326L65.6895 42.8011L65.6719 42.8657V42.9326H66.1719ZM66.1719 42.957V43.457H66.6719V42.957H66.1719ZM66.123 43.0547L65.7695 42.7011L65.6482 42.8224L65.6269 42.9927L66.123 43.0547ZM66.0986 43.25L65.6025 43.188L65.5884 43.3005L65.6243 43.4081L66.0986 43.25ZM74.5459 24.7686L74.1058 24.5312L74.9338 25.0841L74.5459 24.7686ZM76.8896 21.8877L77.2776 22.2033L77.2823 22.1972L76.8896 21.8877ZM81.7236 15.6621L82.1225 15.9636L82.1236 15.9621L81.7236 15.6621ZM86.4355 9.11914L86.8488 9.40068L86.8516 9.39649L86.4355 9.11914ZM89.5117 3.8457L89.9713 4.04267L89.9733 4.03801L89.5117 3.8457ZM89.8535 2.9668L90.3279 3.12491L90.3403 3.08769L90.3467 3.049L89.8535 2.9668ZM89.8779 2.82031L90.3711 2.90251L90.4036 2.70748L90.294 2.54296L89.8779 2.82031ZM89.8291 2.74707L90.2451 2.46972L90.2177 2.42853L90.1827 2.39352L89.8291 2.74707ZM88.4375 3.01562L88.7375 3.41562L88.7459 3.40929L88.7541 3.4026L88.4375 3.01562ZM87.1191 4.28516L87.4914 4.61893L87.4918 4.61855L87.1191 4.28516ZM83.7256 8.875L83.3086 8.59913L83.3074 8.60099L83.7256 8.875ZM79.7217 15.3936L80.1534 15.6458L80.1537 15.6452L79.7217 15.3936ZM75.5469 22.9131L75.9869 23.1505L75.9889 23.1468L75.5469 22.9131ZM66.001 44.373L66.099 43.8828C66.178 43.8985 66.2354 43.9375 66.2697 43.9706C66.3006 44.0005 66.3128 44.0251 66.3139 44.0274C66.3157 44.031 66.3133 44.0268 66.3088 44.0116C66.3046 43.9973 66.3003 43.9794 66.296 43.9576L65.8057 44.0557L65.3154 44.1537C65.3297 44.2252 65.3582 44.352 65.4195 44.4746C65.4762 44.588 65.6166 44.8061 65.9029 44.8633L66.001 44.373ZM65.8057 44.0557L66.2864 43.9183C66.2523 43.7988 66.2324 43.6506 66.2324 43.4941H65.7324H65.2324C65.2324 43.7283 65.2614 43.9707 65.3249 44.193L65.8057 44.0557ZM65.7324 43.4941H66.2324C66.2324 43.3926 66.2503 43.2573 66.2744 43.1125L65.7812 43.0303L65.2881 42.9481C65.2634 43.0963 65.2324 43.3027 65.2324 43.4941H65.7324ZM65.7812 43.0303L66.2788 43.08C66.392 41.948 66.8918 40.8064 67.3679 39.6288L66.9043 39.4414L66.4407 39.254C65.9891 40.3713 65.4147 41.6712 65.2837 42.9805L65.7812 43.0303ZM66.9043 39.4414L67.3673 39.6301C68.1686 37.6633 69.0437 35.7186 69.945 33.7941L69.4922 33.582L69.0394 33.37C68.1341 35.3029 67.2513 37.2644 66.4413 39.2528L66.9043 39.4414ZM69.4922 33.582L69.9425 33.7993L71.9445 29.6489L71.4941 29.4316L71.0438 29.2144L69.0418 33.3648L69.4922 33.582ZM71.4941 29.4316L71.1539 29.0652L70.4703 29.7L70.8105 30.0664L71.1508 30.4328L71.8344 29.798L71.4941 29.4316ZM70.8105 30.0664L70.4716 29.6988C68.915 31.1338 67.3107 32.5436 65.6587 33.9041L65.9766 34.29L66.2944 34.676C67.9627 33.3021 69.5811 31.8798 71.1494 30.434L70.8105 30.0664ZM65.9766 34.29L65.6531 33.9088C64.8555 34.5855 64.0365 35.2357 63.1957 35.8363L63.4863 36.2432L63.7769 36.65C64.6451 36.0299 65.4863 35.3617 66.3001 34.6713L65.9766 34.29ZM63.4863 36.2432L63.1942 35.8374C62.5723 36.2852 61.9861 36.7109 61.342 36.9774L61.5332 37.4395L61.7244 37.9015C62.4964 37.582 63.1797 37.0801 63.7785 36.6489L63.4863 36.2432ZM61.5332 37.4395L61.3362 36.9799C61.2425 37.0201 61.1538 37.0594 61.0601 37.0915C60.9625 37.1249 60.9019 37.1348 60.874 37.1348V37.6348V38.1348C61.0659 38.1348 61.2494 38.0836 61.3838 38.0377C61.522 37.9904 61.653 37.9321 61.7302 37.899L61.5332 37.4395ZM60.874 37.6348V37.1348C60.8521 37.1348 60.8658 37.1305 60.8955 37.1461C60.9116 37.1545 60.9286 37.1669 60.9433 37.1829C60.9579 37.1989 60.965 37.2125 60.9674 37.2181L60.5078 37.415L60.0482 37.612C60.1294 37.8013 60.2637 37.944 60.4314 38.0319C60.5893 38.1146 60.7494 38.1348 60.874 38.1348V37.6348ZM60.5078 37.415L60.9318 37.15C60.8911 37.0849 60.8613 36.9445 60.8613 36.707H60.3613H59.8613C59.8613 36.9579 59.8804 37.3545 60.0838 37.68L60.5078 37.415ZM60.3613 36.707L60.8596 36.7486L60.9084 36.1626L60.4102 36.1211L59.9119 36.0796L59.8631 36.6655L60.3613 36.707ZM60.4102 36.1211L60.9063 36.1831C60.9455 35.8694 61.0653 35.5607 61.2115 35.2194L60.752 35.0225L60.2924 34.8255C60.1457 35.1679 59.9725 35.5916 59.914 36.0591L60.4102 36.1211ZM60.752 35.0225L61.2089 35.2255C61.7754 33.9508 62.557 32.7647 63.3434 31.5605L62.9248 31.2871L62.5062 31.0137C61.7301 32.2021 60.9004 33.4574 60.295 34.8194L60.752 35.0225ZM62.9248 31.2871L63.3417 31.5631C64.4885 29.8308 65.6834 28.1138 67.1544 26.6904L66.8066 26.3311L66.4589 25.9718C64.9025 27.478 63.6561 29.2766 62.5079 31.0111L62.9248 31.2871ZM66.8066 26.3311L67.1537 26.691C67.491 26.3658 67.9226 25.9702 68.3907 25.6572C68.8687 25.3376 69.3229 25.1465 69.7119 25.1465V24.6465V24.1465C69.0267 24.1465 68.3701 24.468 67.8349 24.8259C67.2898 25.1904 66.8059 25.6372 66.4596 25.9711L66.8066 26.3311ZM69.7119 24.6465V25.1465C69.962 25.1465 70.2099 25.2349 70.4703 25.4767L70.8105 25.1104L71.1508 24.744C70.7276 24.351 70.2431 24.1465 69.7119 24.1465V24.6465ZM70.8105 25.1104L70.457 25.4639C70.8842 25.8911 71.1276 26.572 71.2183 27.2516L71.7139 27.1855L72.2095 27.1195C72.1048 26.3343 71.8111 25.4038 71.1641 24.7568L70.8105 25.1104ZM71.7139 27.1855L71.2146 27.2133L71.2391 27.6527L71.7383 27.625L72.2375 27.5973L72.2131 27.1578L71.7139 27.1855ZM71.7383 27.625H71.2383C71.2383 27.6733 71.234 27.7237 71.2274 27.7621C71.2258 27.771 71.2243 27.7782 71.223 27.7836C71.2224 27.7863 71.2219 27.7883 71.2215 27.7898C71.2211 27.7912 71.2209 27.7919 71.2209 27.7919C71.2209 27.7919 71.2212 27.7909 71.2219 27.789C71.2226 27.7872 71.2238 27.7842 71.2256 27.7801C71.2289 27.7727 71.2362 27.7576 71.249 27.7383L71.665 28.0156L72.0811 28.293C72.1662 28.1653 72.198 28.0171 72.2126 27.9334C72.2303 27.8315 72.2383 27.7232 72.2383 27.625H71.7383ZM71.665 28.0156L71.3115 27.6621C71.2982 27.6754 71.2914 27.6821 71.2863 27.687C71.2809 27.6922 71.285 27.6879 71.2947 27.6801C71.3034 27.6732 71.4043 27.5889 71.5674 27.5889V28.0889V28.5889C71.7548 28.5889 71.8802 28.4924 71.9194 28.461C71.9615 28.4273 72.0028 28.385 72.0186 28.3692L71.665 28.0156ZM71.5674 28.0889V27.5889C71.6629 27.5889 71.7533 27.6189 71.8269 27.6696C71.8942 27.7161 71.9326 27.7692 71.9518 27.8007C71.9854 27.8559 71.9917 27.8978 71.9883 27.8827C71.9866 27.875 71.9846 27.8629 71.9792 27.8274C71.9753 27.8022 71.9675 27.7498 71.9548 27.699L71.4697 27.8203L70.9847 27.9416C70.9842 27.9396 70.9855 27.9453 70.9908 27.9795C70.9945 28.0035 71.0017 28.0525 71.0122 28.0997C71.021 28.1395 71.0426 28.2303 71.0976 28.3206C71.1597 28.4227 71.3104 28.5889 71.5674 28.5889V28.0889ZM71.4697 27.8203H71.9697V27.7471H71.4697H70.9697V27.8203H71.4697ZM71.4697 27.7471L71.9486 27.6034L71.8754 27.3593L71.3965 27.5029L70.9176 27.6466L70.9908 27.8907L71.4697 27.7471ZM71.3965 27.5029L71.8868 27.4049L71.8624 27.2828L71.3721 27.3809L70.8818 27.4789L70.9062 27.601L71.3965 27.5029ZM71.3721 27.3809L71.8464 27.2227C71.6834 26.7337 71.503 26.3652 71.0909 25.9531L70.7373 26.3066L70.3838 26.6602C70.6552 26.9316 70.7678 27.1492 70.8977 27.539L71.3721 27.3809ZM70.7373 26.3066L71.0909 25.9531C70.6893 25.5515 70.1882 25.3916 69.6875 25.3916V25.8916V26.3916C69.9681 26.3916 70.1994 26.4758 70.3838 26.6602L70.7373 26.3066ZM69.6875 25.8916V25.3916C69.5848 25.3916 69.3943 25.3885 69.2244 25.4309L69.3457 25.916L69.467 26.4011C69.4924 26.3947 69.5461 26.3916 69.6875 26.3916V25.8916ZM69.3457 25.916L69.2452 25.4262C68.1324 25.6545 67.2065 26.4934 66.5328 27.143L66.8799 27.5029L67.227 27.8629C67.9205 27.1941 68.6547 26.5682 69.4462 26.4058L69.3457 25.916ZM66.8799 27.5029L66.5325 27.1433C65.0498 28.5758 63.8517 30.3015 62.7304 31.9591L63.1445 32.2393L63.5587 32.5194C64.6834 30.8567 65.8291 29.2133 67.2273 27.8625L66.8799 27.5029ZM63.1445 32.2393L62.7298 31.96C61.9254 33.1544 61.0983 34.4055 60.4691 35.7645L60.9229 35.9746L61.3766 36.1847C61.9681 34.907 62.7524 33.7167 63.5592 32.5186L63.1445 32.2393ZM60.9229 35.9746L60.4568 35.7934L60.286 36.2328L60.752 36.4141L61.218 36.5953L61.3889 36.1558L60.9229 35.9746ZM60.752 36.4141V36.9141H60.8496V36.4141V35.9141H60.752V36.4141ZM60.8496 36.4141L60.8949 36.912L61.1634 36.8876L61.1182 36.3896L61.0729 35.8917L60.8043 35.9161L60.8496 36.4141ZM61.1182 36.3896L61.2618 36.8686C61.5549 36.7806 61.8386 36.6373 62.0742 36.5195L61.8506 36.0723L61.627 35.6251C61.3743 35.7514 61.1697 35.8522 60.9745 35.9107L61.1182 36.3896ZM61.8506 36.0723L62.0803 36.5164C62.8302 36.1285 63.5216 35.615 64.1746 35.1313L63.877 34.7295L63.5793 34.3277C62.914 34.8206 62.287 35.2836 61.6209 35.6282L61.8506 36.0723ZM63.877 34.7295L64.176 35.1302C65.9273 33.8229 67.5516 32.4197 69.1662 30.9763L68.833 30.6035L68.4998 30.2307C66.8917 31.6682 65.2934 33.0482 63.5779 34.3288L63.877 34.7295ZM68.833 30.6035L69.1623 30.9798C70.3395 29.9497 71.4913 28.8959 72.6168 27.8438L72.2754 27.4785L71.9339 27.1133C70.8134 28.1607 69.6702 29.2066 68.5038 30.2272L68.833 30.6035ZM72.2754 27.4785L72.6008 27.8581C72.8064 27.6819 72.9759 27.4824 73.099 27.3347L72.7148 27.0146L72.3307 26.6946C72.2096 26.8399 72.0862 26.9821 71.95 27.0989L72.2754 27.4785ZM72.7148 27.0146L73.1595 27.2433L73.5989 26.3888L73.1543 26.1602L72.7097 25.9315L72.2702 26.786L72.7148 27.0146ZM73.1543 26.1602L73.5998 26.3871C74.9404 23.7546 76.3291 21.1235 77.766 18.542L77.3291 18.2988L76.8922 18.0557C75.4482 20.65 74.0537 23.2923 72.7087 25.9333L73.1543 26.1602ZM77.3291 18.2988L77.7656 18.5427C79.1564 16.054 80.5682 13.5713 82.0517 11.1637L81.626 10.9014L81.2003 10.6391C79.7053 13.0654 78.2851 15.5632 76.8926 18.0549L77.3291 18.2988ZM81.626 10.9014L82.0514 11.164C83.2717 9.18715 84.5073 7.22536 85.8853 5.3639L85.4834 5.06641L85.0815 4.76892C83.6763 6.66722 82.4216 8.6605 81.2005 10.6387L81.626 10.9014ZM85.4834 5.06641L85.8844 5.36504C86.7547 4.19635 87.6336 2.97659 88.7525 2.17737L88.4619 1.77051L88.1713 1.36364C86.8976 2.27341 85.9211 3.64154 85.0824 4.76777L85.4834 5.06641ZM88.4619 1.77051L88.7486 2.18012C88.8735 2.09272 88.9841 2.01692 89.1001 1.96007C89.2133 1.90458 89.3073 1.87988 89.3896 1.87988V1.37988V0.879883C88.8411 0.879883 88.397 1.20559 88.1752 1.36089L88.4619 1.77051ZM89.3896 1.37988V1.87988H89.4873V1.37988V0.879883H89.3896V1.37988ZM89.4873 1.37988L89.442 1.87783C89.4915 1.88233 89.5115 1.89502 89.5204 1.90159C89.5321 1.91026 89.5524 1.92985 89.5755 1.97549C89.6279 2.07874 89.6604 2.24381 89.6716 2.45597L90.1709 2.42969L90.6702 2.40341C90.657 2.1517 90.6162 1.81628 90.4672 1.5228C90.3029 1.19911 90.0017 0.924583 89.5326 0.881936L89.4873 1.37988ZM90.1709 2.42969H89.6709V2.67383H90.1709H90.6709V2.42969H90.1709ZM90.1709 2.67383H89.6709C89.6709 4.05289 88.9006 5.397 88.1509 6.69643L88.584 6.94629L89.0171 7.19615C89.7322 5.95652 90.6709 4.37094 90.6709 2.67383H90.1709ZM88.584 6.94629L88.1493 6.69928C86.9421 8.82386 85.5387 10.8572 84.101 12.8554L84.5068 13.1475L84.9127 13.4395C86.3558 11.4338 87.7845 9.36559 89.0187 7.19329L88.584 6.94629ZM84.5068 13.1475L84.0997 12.8573C82.4698 15.144 80.7656 17.3838 79.0345 19.6026L79.4287 19.9102L79.8229 20.2177C81.5586 17.9931 83.2724 15.7408 84.914 13.4377L84.5068 13.1475ZM79.4287 19.9102L79.0324 19.6053C77.5718 21.504 76.0616 23.3796 74.5491 25.2337L74.9365 25.5498L75.324 25.8659C76.8387 24.009 78.3559 22.1249 79.825 20.215L79.4287 19.9102ZM74.9365 25.5498L74.5471 25.2361C73.8334 26.1221 73.1343 27.0143 72.4085 27.8611L72.7881 28.1865L73.1677 28.5119C73.9067 27.6497 74.6236 26.7353 75.3259 25.8635L74.9365 25.5498ZM72.7881 28.1865L72.3409 27.9629L71.1934 30.2578L71.6406 30.4814L72.0878 30.7051L73.2353 28.4101L72.7881 28.1865ZM71.6406 30.4814L71.1924 30.2598C70.0919 32.4853 69.0151 34.7369 67.9867 37.0139L68.4424 37.2197L68.8981 37.4255C69.9205 35.1616 70.9921 32.9209 72.0888 30.7031L71.6406 30.4814ZM68.4424 37.2197L67.9846 37.0186C67.2808 38.6203 66.5371 40.2561 65.9668 41.9423L66.4404 42.1025L66.9141 42.2627C67.4668 40.6286 68.1879 39.0418 68.9001 37.4209L68.4424 37.2197ZM66.4404 42.1025L65.9705 41.9317C65.8701 42.2079 65.7676 42.5147 65.6895 42.8011L66.1719 42.9326L66.6543 43.0642C66.7227 42.8134 66.8155 42.5343 66.9103 42.2734L66.4404 42.1025ZM66.1719 42.9326H65.6719V42.957H66.1719H66.6719V42.9326H66.1719ZM66.1719 42.957C66.1719 42.457 66.1716 42.457 66.1714 42.457C66.1713 42.457 66.1711 42.457 66.1709 42.457C66.1706 42.457 66.1702 42.457 66.1699 42.457C66.1692 42.457 66.1686 42.457 66.1679 42.457C66.1665 42.4571 66.1652 42.4571 66.1637 42.4571C66.1609 42.4571 66.158 42.4572 66.1549 42.4573C66.1489 42.4575 66.1423 42.4578 66.1352 42.4583C66.1212 42.4593 66.1046 42.4611 66.0859 42.4642C66.0508 42.4701 65.9965 42.4827 65.9361 42.5129C65.8737 42.5441 65.7961 42.5987 65.7353 42.69C65.6723 42.7844 65.6475 42.8878 65.6475 42.9814H66.1475H66.6475C66.6475 43.0628 66.6257 43.1571 66.5673 43.2447C66.511 43.3291 66.4395 43.3792 66.3833 43.4073C66.329 43.4344 66.2807 43.4455 66.2503 43.4506C66.2338 43.4533 66.2191 43.4549 66.2064 43.4558C66.2001 43.4563 66.194 43.4566 66.1883 43.4568C66.1854 43.4569 66.1826 43.4569 66.1799 43.457C66.1785 43.457 66.1772 43.457 66.1758 43.457C66.1752 43.457 66.1745 43.457 66.1738 43.457C66.1735 43.457 66.1732 43.457 66.1729 43.457C66.1727 43.457 66.1724 43.457 66.1724 43.457C66.1721 43.457 66.1719 43.457 66.1719 42.957ZM66.1475 42.9814H65.6475C65.6475 43.0029 65.6451 42.9538 65.6593 42.8968C65.6778 42.823 65.7163 42.7544 65.7695 42.7011L66.123 43.0547L66.4766 43.4082C66.6565 43.2284 66.6475 43.0133 66.6475 42.9814H66.1475ZM66.123 43.0547L65.6269 42.9927L65.6025 43.188L66.0986 43.25L66.5948 43.312L66.6192 43.1167L66.123 43.0547ZM66.0986 43.25L65.6243 43.4081C65.6308 43.4277 65.6475 43.4961 65.6475 43.5918H66.1475H66.6475C66.6475 43.3945 66.6153 43.2188 66.573 43.0919L66.0986 43.25ZM66.1475 43.5918H65.6475C65.6475 43.7222 65.628 43.8839 65.6022 44.0125C65.5893 44.0775 65.5776 44.1191 65.5717 44.1363C65.5676 44.1481 65.5721 44.1314 65.5886 44.103C65.596 44.0902 65.6191 44.0513 65.6622 44.0095C65.6977 43.9749 65.8139 43.873 66.001 43.873V44.373V44.873C66.1942 44.873 66.3168 44.7677 66.3592 44.7266C66.409 44.6781 66.4393 44.6295 66.454 44.604C66.4852 44.5502 66.5053 44.4965 66.5172 44.4618C66.5434 44.3859 66.5653 44.2963 66.5828 44.2087C66.6181 44.0321 66.6475 43.8031 66.6475 43.5918H66.1475ZM74.5459 24.7686L74.9338 25.0841L77.2775 22.2032L76.8896 21.8877L76.5018 21.5722L74.158 24.453L74.5459 24.7686ZM76.8896 21.8877L77.2823 22.1972C78.918 20.1221 80.5322 18.0677 82.1225 15.9636L81.7236 15.6621L81.3247 15.3606C79.7412 17.4557 78.1328 19.5029 76.497 21.5782L76.8896 21.8877ZM81.7236 15.6621L82.1236 15.9621C83.7373 13.8106 85.3292 11.6311 86.8488 9.40067L86.4355 9.11914L86.0223 8.83761C84.5146 11.0506 82.9326 13.2168 81.3236 15.3621L81.7236 15.6621ZM86.4355 9.11914L86.8516 9.39649C87.9693 7.71986 89.1443 5.97229 89.9713 4.04266L89.5117 3.8457L89.0521 3.64874C88.2678 5.47888 87.1479 7.14928 86.0195 8.84179L86.4355 9.11914ZM89.5117 3.8457L89.9733 4.03801C90.094 3.74821 90.2234 3.43822 90.3279 3.12491L89.8535 2.9668L89.3792 2.80868C89.2883 3.08132 89.1736 3.35726 89.0502 3.6534L89.5117 3.8457ZM89.8535 2.9668L90.3467 3.049L90.3711 2.90251L89.8779 2.82031L89.3847 2.73811L89.3603 2.8846L89.8535 2.9668ZM89.8779 2.82031L90.294 2.54296L90.2451 2.46972L89.8291 2.74707L89.4131 3.02442L89.4619 3.09766L89.8779 2.82031ZM89.8291 2.74707L90.1827 2.39352C89.97 2.18087 89.6842 2.10059 89.4385 2.10059V2.60059V3.10059C89.4574 3.10059 89.4725 3.10392 89.4812 3.1071C89.49 3.11028 89.4856 3.11065 89.4755 3.10062L89.8291 2.74707ZM89.4385 2.60059V2.10059H89.3652V2.60059V3.10059H89.4385V2.60059ZM89.3652 2.60059V2.10059C88.8409 2.10059 88.4073 2.39433 88.1209 2.62865L88.4375 3.01562L88.7541 3.4026C89.0048 3.19747 89.206 3.10059 89.3652 3.10059V2.60059ZM88.4375 3.01562L88.1375 2.61563C87.6071 3.01346 87.1644 3.48466 86.7465 3.95176L87.1191 4.28516L87.4918 4.61855C87.9039 4.15792 88.2914 3.75022 88.7375 3.41562L88.4375 3.01562ZM87.1191 4.28516L86.7469 3.95138C85.45 5.39788 84.3578 7.01315 83.3086 8.59913L83.7256 8.875L84.1426 9.15087C85.193 7.56302 86.2492 6.00446 87.4914 4.61893L87.1191 4.28516ZM83.7256 8.875L83.3074 8.60099C81.9095 10.7345 80.5864 12.9153 79.2896 15.1419L79.7217 15.3936L80.1537 15.6452C81.4448 13.4285 82.7584 11.2635 84.1438 9.14901L83.7256 8.875ZM79.7217 15.3936L79.2899 15.1414C77.8456 17.6139 76.4506 20.1347 75.1049 22.6793L75.5469 22.9131L75.9889 23.1468C77.3287 20.6133 78.7169 18.1049 80.1534 15.6458L79.7217 15.3936ZM75.5469 22.9131L75.1068 22.6757L74.1058 24.5312L74.5459 24.7686L74.9859 25.0059L75.9869 23.1505L75.5469 22.9131Z" fill="white"/>
    </g>
</svg>
