<svg width="81" height="59" viewBox="0 0 81 59" fill="none" xmlns="http://www.w3.org/2000/svg">
    <g opacity="0.8">
        <path d="M1.57227 58.1426C1.49902 58.1426 1.42578 57.7275 1.42578 57.6787V57.4834C1.42578 57.2881 1.4502 57.0928 1.52344 56.9463C13.8037 35.8037 30.2588 17.0781 52.1582 4.13867C50.8154 4.40723 49.4727 4.7002 48.1055 4.89551C44.248 5.45703 40 5.65234 35.752 5.65234C29.5752 5.65234 22.3242 5.21289 16.0498 4.33398C15.9521 4.33398 15.9033 4.08984 15.9033 3.82129C15.9033 3.47949 15.9766 3.11328 16.0498 3.11328C19.8584 3.65039 23.3496 3.94336 26.9629 4.16309C29.9414 4.33398 32.9443 4.45605 35.9229 4.45605C41.416 4.45605 46.2988 4.13867 51.6455 3.04004C52.3047 2.89355 52.9395 2.74707 53.5986 2.64941C53.7207 2.625 53.9648 2.55176 54.1602 2.55176C54.2578 2.55176 54.3311 2.57617 54.4043 2.625C54.5264 2.74707 54.5264 3.11328 54.5264 3.25977C54.5264 3.45508 54.5264 3.72363 54.4043 3.89453C54.3311 3.99219 54.2334 4.06543 54.1602 4.11426C53.7695 4.40723 53.3301 4.65137 52.915 4.89551C45.957 9.14355 41.4893 12.0488 35.166 17.3711C21.6162 28.7969 10.4834 42.7373 1.59668 58.1182L1.57227 58.1426ZM51.9629 40.6133C51.8896 40.6133 51.8652 40.3936 51.8652 40.3203L51.8164 39.9297C51.8164 39.6123 51.8652 39.5391 52.0117 39.2705C53.8184 35.6328 55.6494 32.166 57.627 28.5283C57.627 28.333 57.627 28.1133 57.7246 27.9912C58.6035 26.917 58.2129 27.4785 58.8965 26.1602C61.46 21.4971 62.9736 18.8359 65.6104 14.4414C63.6816 14.4902 61.7773 14.71 59.8975 15.1006C58.5791 15.3691 57.2119 15.6621 55.9668 16.1748C55.918 16.1748 55.8203 15.7354 55.8203 15.3691C55.8203 15.1738 55.8447 15.0029 55.9668 14.9541C56.3818 14.7832 56.8213 14.6611 57.2607 14.5146C59.9707 13.7334 63.3398 13.1963 66.3672 13.1963C68.1982 10.1445 70.4199 6.70215 72.7881 3.94336C73.3984 3.21094 74.082 2.47852 74.8633 1.91699C75.1318 1.72168 75.6445 1.37988 76.0596 1.37988C76.1572 1.37988 76.2549 1.37988 76.3525 1.42871C76.6455 1.59961 76.6455 2.1123 76.6455 2.38086C76.6455 3.69922 75.7666 5.06641 75.1074 6.16504C73.667 8.5332 71.8115 11.1455 70.1758 13.3184C72.6416 13.5381 75.083 14.002 77.4512 14.71C77.5488 14.7344 77.5977 14.9541 77.5977 15.1738C77.5977 15.5156 77.5 15.9307 77.4512 15.9307C74.79 15.1494 72.251 14.5879 69.3213 14.4902C64.7559 20.4961 62.9736 22.7422 58.3594 28.4795C56.0889 32.7031 54.2578 35.999 52.0361 40.54C52.0117 40.5889 51.9873 40.6133 51.9629 40.6133ZM60.5322 24.5244C63.3398 20.9844 64.9512 18.958 67.7832 15.2715C67.9785 14.9785 68.1982 14.71 68.3936 14.4414L66.416 14.417C64.4629 17.5176 62.3389 21.2285 60.5322 24.5244ZM69.2969 13.2451C70.8105 11.2188 72.2998 9.16797 73.7158 7.04395C74.3994 6.01855 75.083 4.99316 75.6689 3.89453C75.8643 3.55273 76.0596 3.16211 76.2061 2.77148C76.2305 2.72266 76.2549 2.67383 76.2549 2.625L76.1084 2.60059C75.9131 2.60059 75.7422 2.67383 75.5957 2.74707C74.8633 3.01562 74.2773 3.62598 73.7402 4.16309C71.8359 6.0918 70.2734 8.41113 68.7842 10.6816L67.1729 13.1719L69.2969 13.2451ZM60.2393 36.3896C59.9219 36.3896 59.9463 36.0967 59.9219 35.5596C59.9219 35.1445 60.0195 34.7051 60.1416 34.29C60.5322 32.9961 61.1426 31.751 61.7285 30.5059C63.6572 26.502 66.1475 21.9609 68.418 18.1035C70.6641 14.1729 73.3984 9.68066 76.0596 6.01855C76.9141 4.82227 77.793 3.60156 78.8916 2.60059C79.1357 2.38086 79.6484 1.94141 80.0146 1.94141C80.332 1.94141 80.5029 2.42969 80.5029 2.9668C80.5029 4.04102 79.8926 5.11523 79.4287 6.01855C78.501 7.75195 77.4512 9.3877 76.3525 11.0234C72.7393 16.5654 68.3691 22.2783 64.5117 27.4053C64.0723 27.9912 63.6328 28.5771 63.1689 29.1631L63.1445 29.1875L63.0957 29.1143C62.1191 31.0186 61.0449 33.1914 60.3125 35.1689C60.4834 35.1445 60.6055 35.0713 60.752 34.998C61.3379 34.6807 61.875 34.1924 62.3633 33.7529C64.7559 31.6533 66.709 29.4805 69.0283 27.4053C69.541 26.8926 70.0781 26.4043 70.6885 25.9893C70.8105 25.8916 71.1035 25.6475 71.3477 25.6475C71.5918 25.6475 71.6895 25.9893 71.6895 26.3555C71.6895 27.0146 71.543 27.4785 71.3721 27.8691C70.9082 28.9922 70.2734 29.8955 69.9805 31.043V31.1162C70.0781 31.3115 70.0049 31.2139 70.1758 31.3604C70.4932 31.5801 70.542 31.5068 70.9082 31.5557C71.4697 31.5557 72.0801 31.3359 72.5928 31.1406C74.5947 30.457 76.7432 29.1631 78.5254 27.9912L78.5498 27.9668C78.6475 27.9668 78.6719 28.333 78.6963 28.4062V28.7236C78.6963 28.8945 78.6963 29.1143 78.5986 29.1631C76.4502 30.5303 74.9609 31.4824 72.6416 32.3613C72.1289 32.5322 71.5186 32.752 70.9326 32.752C70.7861 32.752 70.6396 32.7275 70.4932 32.7031C69.8096 32.5322 69.6631 31.8242 69.6631 31.2139C69.7363 29.7002 70.249 28.8701 70.957 27.4541C71.0303 27.2588 71.1035 27.0879 71.2012 26.917C70.957 26.917 70.7861 27.1367 70.6152 27.2832C69.9805 27.7471 69.3945 28.2842 68.833 28.7969C66.4893 31.0186 64.3652 33.3379 62.0703 35.2422C61.5576 35.6816 60.7031 36.3896 60.2393 36.3896ZM64.9756 25.5254C68.0273 21.5459 70.8105 17.7373 73.9111 13.3184C75.2051 11.4629 76.499 9.58301 77.7197 7.62988C78.5498 6.31152 79.4043 4.96875 79.9902 3.50391C80.0391 3.38184 80.0879 3.28418 80.1123 3.16211H80.0146C79.4775 3.23535 79.2578 3.47949 78.8672 3.8457C78.4033 4.28516 77.9883 4.77344 77.5977 5.28613C76.4014 6.72656 75.3516 8.28906 74.3018 9.82715C71.543 14.002 68.9551 18.3477 66.6357 22.498L64.9756 25.5254Z" fill="white"/>
        <path d="M1.57227 58.1426V58.6426H1.77937L1.92582 58.4961L1.57227 58.1426ZM1.52344 56.9463L1.09108 56.6952L1.08322 56.7087L1.07622 56.7227L1.52344 56.9463ZM52.1582 4.13867L52.4126 4.56914L52.0601 3.64838L52.1582 4.13867ZM48.1055 4.89551L48.0348 4.40053L48.0334 4.40072L48.1055 4.89551ZM16.0498 4.33398L16.1192 3.83882L16.0847 3.83398H16.0498V4.33398ZM16.0498 3.11328L16.1196 2.61818L16.0849 2.61328H16.0498V3.11328ZM26.9629 4.16309L26.9325 4.66217L26.9342 4.66226L26.9629 4.16309ZM51.6455 3.04004L51.7462 3.52987L51.754 3.52813L51.6455 3.04004ZM53.5986 2.64941L53.6719 3.14402L53.6844 3.14217L53.6967 3.1397L53.5986 2.64941ZM54.4043 2.625L54.7579 2.27145L54.7228 2.23644L54.6816 2.20897L54.4043 2.625ZM54.4043 3.89453L54.8044 4.19461L54.8112 4.18515L54.4043 3.89453ZM54.1602 4.11426L53.8828 3.69823L53.8713 3.70593L53.8602 3.71426L54.1602 4.11426ZM52.915 4.89551L52.6615 4.46448L52.6545 4.46876L52.915 4.89551ZM35.166 17.3711L34.844 16.9886L34.8437 16.9889L35.166 17.3711ZM1.59668 58.1182L1.95023 58.4717L1.99672 58.4252L2.02961 58.3683L1.59668 58.1182ZM1.57227 58.1426V57.6426C1.6906 57.6426 1.78132 57.6853 1.83665 57.7224C1.88959 57.7578 1.92215 57.7955 1.93776 57.8153C1.95469 57.8368 1.96484 57.8543 1.96941 57.8625C1.97439 57.8716 1.97692 57.8774 1.97736 57.8784C1.978 57.8799 1.97559 57.8743 1.97097 57.8595C1.96663 57.8457 1.96175 57.8282 1.95663 57.8077C1.94628 57.7663 1.93721 57.7218 1.93088 57.6856C1.92774 57.6676 1.92571 57.6542 1.92465 57.6463C1.9241 57.6422 1.92409 57.6416 1.92429 57.6438C1.9244 57.6449 1.92469 57.648 1.92499 57.6526C1.92524 57.6566 1.92578 57.666 1.92578 57.6787H1.42578H0.925781C0.925781 57.7426 0.939663 57.8226 0.945855 57.858C0.955549 57.9134 0.969367 57.9817 0.986486 58.0502C1.00241 58.1139 1.02621 58.1984 1.05959 58.2755C1.07511 58.3114 1.10415 58.3731 1.15212 58.434C1.18392 58.4744 1.32248 58.6426 1.57227 58.6426V58.1426ZM1.42578 57.6787H1.92578V57.4834H1.42578H0.925781V57.6787H1.42578ZM1.42578 57.4834H1.92578C1.92578 57.3136 1.94965 57.2119 1.97065 57.1699L1.52344 56.9463L1.07622 56.7227C0.950741 56.9736 0.925781 57.2625 0.925781 57.4834H1.42578ZM1.52344 56.9463L1.9558 57.1974C14.2034 36.1111 30.6027 17.4557 52.4126 4.56914L52.1582 4.13867L51.9039 3.7082C29.9148 16.7006 13.404 35.4963 1.09108 56.6952L1.52344 56.9463ZM52.1582 4.13867L52.0601 3.64838C50.7057 3.91926 49.384 4.20779 48.0348 4.40053L48.1055 4.89551L48.1762 5.39048C49.5614 5.1926 50.9251 4.89519 52.2563 4.62896L52.1582 4.13867ZM48.1055 4.89551L48.0334 4.40072C44.2088 4.95748 39.987 5.15234 35.752 5.15234V5.65234V6.15234C40.013 6.15234 44.2873 5.95658 48.1775 5.39029L48.1055 4.89551ZM35.752 5.65234V5.15234C29.5953 5.15234 22.3677 4.71411 16.1192 3.83882L16.0498 4.33398L15.9804 4.82915C22.2807 5.71168 29.5551 6.15234 35.752 6.15234V5.65234ZM16.0498 4.33398V3.83398C16.2627 3.83398 16.3739 3.97315 16.3999 4.0116C16.4276 4.05258 16.43 4.07636 16.4241 4.05341C16.4141 4.01479 16.4033 3.93267 16.4033 3.82129H15.9033H15.4033C15.4033 3.97847 15.4169 4.15269 15.4558 4.30328C15.4743 4.37493 15.5072 4.47654 15.5715 4.57168C15.6341 4.6643 15.7881 4.83398 16.0498 4.83398V4.33398ZM15.9033 3.82129H16.4033C16.4033 3.68134 16.4188 3.53806 16.439 3.43931C16.4497 3.38666 16.4575 3.36842 16.4549 3.3744C16.4546 3.375 16.4406 3.40951 16.4046 3.45212C16.377 3.48488 16.2592 3.61328 16.0498 3.61328V3.11328V2.61328C15.8221 2.61328 15.686 2.75312 15.6403 2.80725C15.5864 2.87122 15.5546 2.93701 15.5371 2.97729C15.5002 3.06261 15.4759 3.15728 15.4592 3.23891C15.4245 3.40871 15.4033 3.61944 15.4033 3.82129H15.9033ZM16.0498 3.11328L15.98 3.60838C19.8061 4.14797 23.3115 4.44197 26.9325 4.66216L26.9629 4.16309L26.9932 3.66401C23.3877 3.44475 19.9107 3.15281 16.1196 2.61818L16.0498 3.11328ZM26.9629 4.16309L26.9342 4.66226C29.9179 4.83346 32.9312 4.95605 35.9229 4.95605V4.45605V3.95605C32.9575 3.95605 29.9649 3.83451 26.9915 3.66391L26.9629 4.16309ZM35.9229 4.45605V4.95605C41.4372 4.95605 46.3559 4.63739 51.7461 3.52981L51.6455 3.04004L51.5449 2.55027C46.2417 3.63995 41.3949 3.95605 35.9229 3.95605V4.45605ZM51.6455 3.04004L51.754 3.52813C52.42 3.38013 53.0345 3.23844 53.6719 3.14402L53.5986 2.64941L53.5254 2.15481C52.8444 2.2557 52.1894 2.40698 51.537 2.55195L51.6455 3.04004ZM53.5986 2.64941L53.6967 3.1397C53.7385 3.13134 53.7873 3.11955 53.8266 3.11017C53.87 3.0998 53.9123 3.08974 53.9557 3.08055C54.0476 3.06106 54.1161 3.05176 54.1602 3.05176V2.55176V2.05176C54.0089 2.05176 53.8577 2.07908 53.7482 2.10231C53.6908 2.11448 53.637 2.12732 53.5942 2.13754C53.5473 2.14876 53.5198 2.15528 53.5006 2.15912L53.5986 2.64941ZM54.1602 2.55176V3.05176C54.1637 3.05176 54.1632 3.05197 54.1597 3.05148C54.156 3.05097 54.1507 3.0499 54.1443 3.04796C54.138 3.04601 54.1328 3.0438 54.1291 3.04199C54.1255 3.04026 54.1247 3.03951 54.1269 3.04103L54.4043 2.625L54.6816 2.20897C54.5289 2.10714 54.3596 2.05176 54.1602 2.05176V2.55176ZM54.4043 2.625L54.0507 2.97855C54.0227 2.95049 54.0084 2.92607 54.0031 2.91596C53.9975 2.90541 53.9967 2.90131 53.9985 2.9071C54.0027 2.9202 54.0093 2.94837 54.0148 2.99375C54.0259 3.08482 54.0264 3.18459 54.0264 3.25977H54.5264H55.0264C55.0264 3.18846 55.0268 3.03187 55.0074 2.8727C54.9977 2.79296 54.9813 2.69753 54.9512 2.60306C54.9235 2.51622 54.8698 2.38339 54.7579 2.27145L54.4043 2.625ZM54.5264 3.25977H54.0264C54.0264 3.36217 54.0257 3.44501 54.0156 3.51934C54.0051 3.59729 53.9901 3.61411 53.9974 3.60391L54.4043 3.89453L54.8112 4.18515C54.9405 4.00405 54.9866 3.80114 55.0066 3.65326C55.0271 3.50177 55.0264 3.35267 55.0264 3.25977H54.5264ZM54.4043 3.89453L54.0043 3.59453C53.995 3.60696 53.9797 3.62351 53.9568 3.64308C53.9343 3.66235 53.9092 3.68063 53.8828 3.69823L54.1602 4.11426L54.4375 4.53028C54.5264 4.47103 54.68 4.36026 54.8043 4.19453L54.4043 3.89453ZM54.1602 4.11426L53.8602 3.71426C53.4983 3.98566 53.0926 4.21099 52.6615 4.46454L52.915 4.89551L53.1685 5.32647C53.5676 5.09174 54.0408 4.82879 54.4602 4.51426L54.1602 4.11426ZM52.915 4.89551L52.6545 4.46876C45.6867 8.72281 41.1949 11.6431 34.844 16.9886L35.166 17.3711L35.488 17.7536C41.7837 12.4546 46.2274 9.5643 53.1756 5.32226L52.915 4.89551ZM35.166 17.3711L34.8437 16.9889C21.2437 28.4569 10.0753 42.4442 1.16375 57.868L1.59668 58.1182L2.02961 58.3683C10.8915 43.0304 21.9887 29.1368 35.4883 17.7533L35.166 17.3711ZM1.59668 58.1182L1.24313 57.7646L1.21871 57.789L1.57227 58.1426L1.92582 58.4961L1.95023 58.4717L1.59668 58.1182ZM51.8652 40.3203H52.3652V40.2892L52.3614 40.2583L51.8652 40.3203ZM51.8164 39.9297H51.3164V39.9608L51.3203 39.9917L51.8164 39.9297ZM52.0117 39.2705L52.4507 39.5099L52.4553 39.5015L52.4595 39.4929L52.0117 39.2705ZM57.627 28.5283L58.0662 28.7671L58.127 28.6554V28.5283H57.627ZM57.7246 27.9912L57.3376 27.6746L57.3342 27.6789L57.7246 27.9912ZM58.8965 26.1602L58.4582 25.9192L58.4526 25.93L58.8965 26.1602ZM65.6104 14.4414L66.0391 14.6987L66.5072 13.9185L65.5977 13.9416L65.6104 14.4414ZM59.8975 15.1006L59.9973 15.5905L59.9992 15.5901L59.8975 15.1006ZM55.9668 16.1748V16.6748H56.0657L56.1572 16.6371L55.9668 16.1748ZM55.9668 14.9541L56.1525 15.4184L56.1572 15.4164L55.9668 14.9541ZM57.2607 14.5146L57.1222 14.0342L57.1124 14.0371L57.1026 14.0403L57.2607 14.5146ZM66.3672 13.1963V13.6963H66.6503L66.7959 13.4535L66.3672 13.1963ZM72.7881 3.94336L73.1675 4.26907L73.1722 4.26345L72.7881 3.94336ZM74.8633 1.91699L75.1551 2.32301L75.1574 2.32136L74.8633 1.91699ZM76.3525 1.42871L76.6045 0.996821L76.5906 0.988703L76.5761 0.981497L76.3525 1.42871ZM75.1074 6.16504L75.5346 6.42488L75.5362 6.42229L75.1074 6.16504ZM70.1758 13.3184L69.7763 13.0176L69.2351 13.7365L70.1314 13.8164L70.1758 13.3184ZM77.4512 14.71L77.308 15.189L77.3189 15.1923L77.3299 15.195L77.4512 14.71ZM77.4512 15.9307L77.3103 16.4104L77.3793 16.4307H77.4512V15.9307ZM69.3213 14.4902L69.3379 13.9905L69.0796 13.9819L68.9232 14.1877L69.3213 14.4902ZM58.3594 28.4795L57.9698 28.1661L57.9408 28.2021L57.919 28.2427L58.3594 28.4795ZM52.0361 40.54L52.4834 40.7637L52.4853 40.7598L52.0361 40.54ZM60.5322 24.5244L60.0938 24.2841L60.924 24.8351L60.5322 24.5244ZM67.7832 15.2715L68.1797 15.5761L68.1899 15.5628L68.1992 15.5488L67.7832 15.2715ZM68.3936 14.4414L68.7979 14.7355L69.3667 13.9534L68.3997 13.9414L68.3936 14.4414ZM66.416 14.417L66.4222 13.917L66.1422 13.9136L65.993 14.1505L66.416 14.417ZM69.2969 13.2451L69.2796 13.7448L69.541 13.7538L69.6975 13.5443L69.2969 13.2451ZM73.7158 7.04395L74.1318 7.3213L73.7158 7.04395ZM75.6689 3.89453L75.2348 3.64646L75.2312 3.6528L75.2278 3.65924L75.6689 3.89453ZM76.2061 2.77148L75.7588 2.54788L75.7471 2.57135L75.7379 2.59592L76.2061 2.77148ZM76.2549 2.625H76.7549V2.20144L76.3371 2.1318L76.2549 2.625ZM76.1084 2.60059L76.1906 2.10739L76.1498 2.10059H76.1084V2.60059ZM75.5957 2.74707L75.7678 3.21651L75.7942 3.20684L75.8193 3.19428L75.5957 2.74707ZM73.7402 4.16309L73.3867 3.80953L73.3844 3.81179L73.7402 4.16309ZM68.7842 10.6816L68.3661 10.4074L68.3644 10.41L68.7842 10.6816ZM67.1729 13.1719L66.7531 12.9002L66.2737 13.6412L67.1556 13.6716L67.1729 13.1719ZM51.9629 40.6133V40.1133C52.0888 40.1133 52.1876 40.1632 52.2503 40.2135C52.3072 40.2591 52.3372 40.3062 52.3494 40.3273C52.3727 40.3675 52.3764 40.3926 52.373 40.3785C52.3713 40.3715 52.369 40.3583 52.3671 40.3418C52.3652 40.3244 52.3652 40.3159 52.3652 40.3203H51.8652H51.3652C51.3652 40.3917 51.375 40.5041 51.4002 40.6101C51.4121 40.6601 51.4356 40.7446 51.484 40.8283C51.5197 40.8899 51.6648 41.1133 51.9629 41.1133V40.6133ZM51.8652 40.3203L52.3614 40.2583L52.3125 39.8677L51.8164 39.9297L51.3203 39.9917L51.3691 40.3823L51.8652 40.3203ZM51.8164 39.9297H52.3164C52.3164 39.7959 52.3271 39.7589 52.3335 39.7399C52.3463 39.7015 52.3663 39.6646 52.4507 39.5099L52.0117 39.2705L51.5728 39.0311C51.5106 39.145 51.433 39.2789 51.3848 39.4237C51.3301 39.5878 51.3164 39.7461 51.3164 39.9297H51.8164ZM52.0117 39.2705L52.4595 39.4929C54.2625 35.8625 56.0905 32.4015 58.0662 28.7671L57.627 28.5283L57.1877 28.2895C55.2083 31.9305 53.3742 35.4031 51.5639 39.0481L52.0117 39.2705ZM57.627 28.5283H58.127C58.127 28.4237 58.1277 28.3532 58.135 28.2963C58.1366 28.284 58.1383 28.2747 58.1397 28.268C58.1411 28.2613 58.1421 28.2584 58.142 28.2586C58.142 28.2588 58.1404 28.2634 58.1365 28.271C58.1325 28.2787 58.1257 28.2902 58.115 28.3036L57.7246 27.9912L57.3342 27.6789C57.1994 27.8473 57.1595 28.0429 57.1433 28.1683C57.1262 28.3006 57.127 28.4376 57.127 28.5283H57.627ZM57.7246 27.9912L58.1116 28.3078C58.5215 27.8068 58.6885 27.6261 58.8096 27.4293C58.8738 27.325 58.9279 27.2137 58.9976 27.0713C59.0703 26.923 59.1721 26.7149 59.3404 26.3903L58.8965 26.1602L58.4526 25.93C58.2791 26.2646 58.1734 26.4807 58.0996 26.6314C58.0228 26.7881 57.9915 26.8508 57.958 26.9052C57.8838 27.0258 57.8066 27.1014 57.3376 27.6746L57.7246 27.9912ZM58.8965 26.1602L59.3346 26.401C61.8957 21.7423 63.4062 19.0868 66.0391 14.6987L65.6104 14.4414L65.1816 14.1842C62.541 18.5851 61.0242 21.2518 58.4583 25.9193L58.8965 26.1602ZM65.6104 14.4414L65.5977 13.9416C63.6392 13.9911 61.7051 14.2143 59.7957 14.611L59.8975 15.1006L59.9992 15.5901C61.8496 15.2056 63.7241 14.9893 65.623 14.9412L65.6104 14.4414ZM59.8975 15.1006L59.7977 14.6106C58.4831 14.8784 57.0715 15.1792 55.7764 15.7125L55.9668 16.1748L56.1572 16.6371C57.3524 16.145 58.6751 15.8599 59.9973 15.5905L59.8975 15.1006ZM55.9668 16.1748V15.6748C56.154 15.6748 56.2702 15.7768 56.3059 15.8115C56.349 15.8535 56.3722 15.8925 56.3796 15.9054C56.3961 15.934 56.4005 15.9507 56.3965 15.9388C56.3906 15.9215 56.3789 15.8794 56.3659 15.8131C56.3403 15.6824 56.3203 15.5137 56.3203 15.3691H55.8203H55.3203C55.3203 15.5908 55.3492 15.8249 55.3846 16.0055C55.4021 16.0949 55.424 16.1855 55.4501 16.262C55.4621 16.297 55.4822 16.351 55.5134 16.405C55.5281 16.4306 55.5584 16.4794 55.6083 16.528C55.6508 16.5694 55.7735 16.6748 55.9668 16.6748V16.1748ZM55.8203 15.3691H56.3203C56.3203 15.3298 56.3216 15.2993 56.3238 15.276C56.3261 15.2518 56.3286 15.2438 56.3278 15.2467C56.3271 15.249 56.3191 15.2765 56.2924 15.3121C56.2625 15.352 56.2154 15.3932 56.1525 15.4183L55.9668 14.9541L55.7811 14.4899C55.5192 14.5946 55.4109 14.8188 55.3678 14.9667C55.3257 15.1109 55.3203 15.2613 55.3203 15.3691H55.8203ZM55.9668 14.9541L56.1572 15.4164C56.5516 15.254 56.9462 15.1465 57.4189 14.989L57.2607 14.5146L57.1026 14.0403C56.6963 14.1757 56.212 14.3124 55.7764 14.4918L55.9668 14.9541ZM57.2607 14.5146L57.3992 14.9951C60.069 14.2254 63.3915 13.6963 66.3672 13.6963V13.1963V12.6963C63.2882 12.6963 59.8724 13.2414 57.1222 14.0342L57.2607 14.5146ZM66.3672 13.1963L66.7959 13.4535C68.6234 10.4078 70.8276 6.99486 73.1675 4.26903L72.7881 3.94336L72.4087 3.61769C70.0122 6.40944 67.7731 9.88122 65.9384 12.939L66.3672 13.1963ZM72.7881 3.94336L73.1722 4.26345C73.7731 3.54239 74.4249 2.84784 75.1551 2.323L74.8633 1.91699L74.5715 1.51098C73.7392 2.10919 73.0238 2.87949 72.404 3.62327L72.7881 3.94336ZM74.8633 1.91699L75.1574 2.32136C75.2836 2.22956 75.455 2.1125 75.6352 2.01984C75.8266 1.92136 75.9725 1.87988 76.0596 1.87988V1.37988V0.879883C75.7316 0.879883 75.4136 1.0093 75.1778 1.13055C74.9307 1.25762 74.7115 1.40911 74.5692 1.51262L74.8633 1.91699ZM76.0596 1.37988V1.87988C76.0853 1.87988 76.1019 1.87992 76.1172 1.8804C76.1316 1.88085 76.1396 1.88158 76.144 1.88213C76.1507 1.88296 76.1421 1.88251 76.1289 1.87592L76.3525 1.42871L76.5761 0.981497C76.3583 0.872584 76.1446 0.879883 76.0596 0.879883V1.37988ZM76.3525 1.42871L76.1006 1.8606C76.0558 1.83447 76.0897 1.82163 76.1186 1.96622C76.1441 2.0935 76.1455 2.24054 76.1455 2.38086H76.6455H77.1455C77.1455 2.25262 77.147 2.00904 77.0992 1.77011C77.0549 1.54849 76.9422 1.19385 76.6045 0.996821L76.3525 1.42871ZM76.6455 2.38086H76.1455C76.1455 2.93427 75.9595 3.52815 75.671 4.14296C75.3825 4.75784 75.0151 5.34702 74.6787 5.90779L75.1074 6.16504L75.5362 6.42229C75.8589 5.88443 76.2606 5.24069 76.5763 4.56773C76.8921 3.8947 77.1455 3.14581 77.1455 2.38086H76.6455ZM75.1074 6.16504L74.6802 5.90521C73.2519 8.2535 71.4073 10.8511 69.7763 13.0176L70.1758 13.3184L70.5752 13.6191C72.2157 11.4399 74.0821 8.8129 75.5346 6.42487L75.1074 6.16504ZM70.1758 13.3184L70.1314 13.8164C72.5644 14.0332 74.9727 14.4908 77.308 15.189L77.4512 14.71L77.5944 14.2309C75.1934 13.5131 72.7188 13.043 70.2202 12.8203L70.1758 13.3184ZM77.4512 14.71L77.3299 15.195C77.1874 15.1594 77.1179 15.0672 77.0992 15.0392C77.0785 15.008 77.076 14.991 77.0803 15.006C77.0882 15.0336 77.0977 15.0944 77.0977 15.1738H77.5977H78.0977C78.0977 15.0335 78.0827 14.8746 78.0418 14.7313C78.0217 14.6608 77.9887 14.5706 77.9313 14.4845C77.876 14.4016 77.7638 14.2727 77.5724 14.2249L77.4512 14.71ZM77.5977 15.1738H77.0977C77.0977 15.3036 77.0783 15.458 77.0532 15.5784C77.0405 15.6395 77.0294 15.6768 77.0245 15.6903C77.0209 15.7002 77.0265 15.6815 77.0448 15.6514C77.0533 15.6376 77.0779 15.5988 77.1225 15.5578C77.1613 15.5221 77.2744 15.4307 77.4512 15.4307V15.9307V16.4307C77.6341 16.4307 77.7536 16.336 77.7993 16.294C77.8506 16.2468 77.8823 16.1988 77.8981 16.1729C77.9312 16.1188 77.9524 16.065 77.9648 16.0307C77.992 15.9557 78.0144 15.8678 78.0322 15.7824C78.0682 15.6099 78.0977 15.3859 78.0977 15.1738H77.5977ZM77.4512 15.9307L77.592 15.4509C74.909 14.6632 72.3254 14.0901 69.3379 13.9905L69.3213 14.4902L69.3046 14.99C72.1766 15.0857 74.6711 15.6356 77.3103 16.4104L77.4512 15.9307ZM69.3213 14.4902L68.9232 14.1877C64.3613 20.189 62.582 22.4314 57.9698 28.1661L58.3594 28.4795L58.749 28.7928C63.3653 23.053 65.1505 20.8032 69.7193 14.7928L69.3213 14.4902ZM58.3594 28.4795L57.919 28.2427C55.6515 32.4608 53.8141 35.7682 51.587 40.3203L52.0361 40.54L52.4853 40.7598C54.7015 36.2298 56.5262 32.9455 58.7998 28.7162L58.3594 28.4795ZM52.0361 40.54L51.5889 40.3164C51.59 40.3143 51.5941 40.3063 51.6018 40.2947C51.6092 40.2836 51.6235 40.2639 51.646 40.2414C51.6882 40.1991 51.7957 40.1133 51.9629 40.1133V40.6133V41.1133C52.1545 41.1133 52.2864 41.0152 52.3531 40.9485C52.4187 40.8828 52.4594 40.8116 52.4833 40.7636L52.0361 40.54ZM60.5322 24.5244L60.924 24.8351C63.7316 21.2951 65.3451 19.266 68.1797 15.5761L67.7832 15.2715L67.3867 14.9669C64.5573 18.65 62.9481 20.6737 60.1405 24.2137L60.5322 24.5244ZM67.7832 15.2715L68.1992 15.5488C68.39 15.2627 68.5771 15.0391 68.7979 14.7355L68.3936 14.4414L67.9892 14.1473C67.8194 14.3808 67.567 14.6944 67.3672 14.9941L67.7832 15.2715ZM68.3936 14.4414L68.3997 13.9414L66.4222 13.917L66.416 14.417L66.4098 14.917L68.3874 14.9414L68.3936 14.4414ZM66.416 14.417L65.993 14.1505C64.0324 17.2629 61.9029 20.9836 60.0938 24.2841L60.5322 24.5244L60.9707 24.7647C62.7748 21.4735 64.8934 17.7722 66.8391 14.6835L66.416 14.417ZM69.2969 13.2451L69.6975 13.5443C71.2135 11.5148 72.7087 9.45595 74.1318 7.3213L73.7158 7.04395L73.2998 6.7666C71.8909 8.87999 70.4076 10.9227 68.8963 12.9459L69.2969 13.2451ZM73.7158 7.04395L74.1318 7.3213C74.8133 6.29917 75.5107 5.25366 76.1101 4.12983L75.6689 3.89453L75.2278 3.65924C74.6553 4.73267 73.9856 5.73794 73.2998 6.7666L73.7158 7.04395ZM75.6689 3.89453L76.1031 4.1426C76.3075 3.78487 76.5158 3.36951 76.6742 2.94705L76.2061 2.77148L75.7379 2.59592C75.6033 2.95471 75.421 3.32059 75.2348 3.64646L75.6689 3.89453ZM76.2061 2.77148L76.6533 2.99509C76.6632 2.97529 76.7549 2.81483 76.7549 2.625H76.2549H75.7549C75.7549 2.56751 75.769 2.52933 75.7715 2.52268C75.7731 2.51834 75.7736 2.51765 75.7713 2.52265C75.7687 2.52815 75.7654 2.53467 75.7588 2.54788L76.2061 2.77148ZM76.2549 2.625L76.3371 2.1318L76.1906 2.10739L76.1084 2.60059L76.0262 3.09378L76.1727 3.1182L76.2549 2.625ZM76.1084 2.60059V2.10059C75.7904 2.10059 75.5314 2.22019 75.3721 2.29986L75.5957 2.74707L75.8193 3.19428C75.953 3.12746 76.0358 3.10059 76.1084 3.10059V2.60059ZM75.5957 2.74707L75.4236 2.27763C74.5659 2.5921 73.8984 3.29786 73.3867 3.80953L73.7402 4.16309L74.0938 4.51664C74.6563 3.9541 75.1606 3.43915 75.7678 3.21651L75.5957 2.74707ZM73.7402 4.16309L73.3844 3.81179C71.4407 5.78047 69.8536 8.13953 68.3661 10.4074L68.7842 10.6816L69.2023 10.9559C70.6932 8.68274 72.2312 6.40312 74.096 4.51438L73.7402 4.16309ZM68.7842 10.6816L68.3644 10.41L66.7531 12.9002L67.1729 13.1719L67.5926 13.4435L69.204 10.9533L68.7842 10.6816ZM67.1729 13.1719L67.1556 13.6716L69.2796 13.7448L69.2969 13.2451L69.3141 12.7454L67.1901 12.6722L67.1729 13.1719ZM59.9219 35.5596H59.4219V35.5709L59.4224 35.5823L59.9219 35.5596ZM60.1416 34.29L59.6629 34.1455L59.6619 34.149L60.1416 34.29ZM61.7285 30.5059L61.278 30.2889L61.2761 30.293L61.7285 30.5059ZM68.418 18.1035L68.8489 18.3572L68.8521 18.3516L68.418 18.1035ZM76.0596 6.01855L76.4641 6.31249L76.4664 6.30917L76.0596 6.01855ZM78.8916 2.60059L78.5571 2.22893L78.5549 2.23099L78.8916 2.60059ZM79.4287 6.01855L79.8696 6.25453L79.8735 6.24696L79.4287 6.01855ZM76.3525 11.0234L75.9374 10.7446L75.9337 10.7504L76.3525 11.0234ZM64.5117 27.4053L64.1122 27.1047L64.1117 27.1053L64.5117 27.4053ZM63.1689 29.1631L63.5225 29.5166L63.543 29.4962L63.561 29.4734L63.1689 29.1631ZM63.1445 29.1875L62.7285 29.4649L63.0668 29.9723L63.4981 29.5411L63.1445 29.1875ZM63.0957 29.1143L63.5117 28.8369L63.0394 28.1284L62.6508 28.8861L63.0957 29.1143ZM60.3125 35.1689L59.8436 34.9953L59.552 35.7827L60.3832 35.6639L60.3125 35.1689ZM60.752 34.998L60.9756 35.4453L60.9829 35.4416L60.9901 35.4377L60.752 34.998ZM62.3633 33.7529L62.0335 33.3771L62.0288 33.3813L62.3633 33.7529ZM69.0283 27.4053L69.3617 27.7779L69.3721 27.7686L69.3819 27.7588L69.0283 27.4053ZM70.6885 25.9893L70.9696 26.4027L70.9857 26.3918L71.0008 26.3797L70.6885 25.9893ZM71.3721 27.8691L70.9139 27.6687L70.9099 27.6783L71.3721 27.8691ZM69.9805 31.043L69.496 30.9193L69.4805 30.9801V31.043H69.9805ZM69.9805 31.1162H69.4805V31.2342L69.5333 31.3398L69.9805 31.1162ZM70.1758 31.3604L69.8504 31.74L69.87 31.7568L69.8912 31.7714L70.1758 31.3604ZM70.9082 31.5557L70.8421 32.0513L70.875 32.0557H70.9082V31.5557ZM72.5928 31.1406L72.4312 30.6675L72.4229 30.6703L72.4148 30.6734L72.5928 31.1406ZM78.5254 27.9912L78.8001 28.409L78.8428 28.3809L78.8789 28.3448L78.5254 27.9912ZM78.5498 27.9668V27.4668H78.3427L78.1963 27.6132L78.5498 27.9668ZM78.6963 28.4062H79.1963V28.3251L79.1706 28.2481L78.6963 28.4062ZM78.5986 29.1631L78.375 28.7159L78.352 28.7274L78.3302 28.7413L78.5986 29.1631ZM72.6416 32.3613L72.7997 32.8357L72.8093 32.8325L72.8188 32.8289L72.6416 32.3613ZM70.4932 32.7031L70.3719 33.1882L70.3913 33.193L70.411 33.1963L70.4932 32.7031ZM69.6631 31.2139L69.1637 31.1897L69.1631 31.2018V31.2139H69.6631ZM70.957 27.4541L71.4042 27.6777L71.416 27.6542L71.4252 27.6297L70.957 27.4541ZM71.2012 26.917L71.6353 27.1651L72.0628 26.417H71.2012V26.917ZM70.6152 27.2832L70.9102 27.6869L70.9259 27.6755L70.9406 27.6628L70.6152 27.2832ZM68.833 28.7969L68.4958 28.4276L68.489 28.434L68.833 28.7969ZM62.0703 35.2422L61.751 34.8574L61.7449 34.8626L62.0703 35.2422ZM64.9756 25.5254L64.5372 25.285L65.3723 25.8297L64.9756 25.5254ZM73.9111 13.3184L74.3204 13.6055L74.3213 13.6044L73.9111 13.3184ZM77.7197 7.62988L77.2966 7.36347L77.2957 7.36488L77.7197 7.62988ZM80.1123 3.16211L80.6026 3.26017L80.7222 2.66211H80.1123V3.16211ZM80.0146 3.16211V2.66211H79.9807L79.9471 2.66669L80.0146 3.16211ZM78.8672 3.8457L78.5252 3.48093L78.5233 3.48273L78.8672 3.8457ZM77.5977 5.28613L77.9823 5.60558L77.989 5.59751L77.9954 5.58915L77.5977 5.28613ZM74.3018 9.82715L73.8887 9.54525L73.8846 9.55149L74.3018 9.82715ZM66.6357 22.498L66.1993 22.2541L66.1973 22.2576L66.6357 22.498ZM60.2393 36.3896V35.8896C60.2367 35.8896 60.3064 35.8902 60.3806 35.9525C60.4486 36.0096 60.4593 36.0681 60.4545 36.0498C60.4493 36.0298 60.442 35.984 60.4363 35.8863C60.4303 35.7856 60.4282 35.6873 60.4214 35.5369L59.9219 35.5596L59.4224 35.5823C59.4278 35.7004 59.4318 35.8402 59.438 35.9454C59.4444 36.0538 59.4555 36.1819 59.4869 36.3022C59.5187 36.4243 59.5843 36.5897 59.7378 36.7185C59.8975 36.8525 60.0831 36.8896 60.2393 36.8896V36.3896ZM59.9219 35.5596H60.4219C60.4219 35.2158 60.5039 34.8303 60.6213 34.4311L60.1416 34.29L59.6619 34.149C59.5352 34.5799 59.4219 35.0733 59.4219 35.5596H59.9219ZM60.1416 34.29L60.6203 34.4345C60.9978 33.1841 61.5885 31.9777 62.1809 30.7188L61.7285 30.5059L61.2761 30.293C60.6967 31.5243 60.0667 32.8081 59.6629 34.1455L60.1416 34.29ZM61.7285 30.5059L62.179 30.7228C64.1 26.7348 66.5832 22.2064 68.8489 18.3571L68.418 18.1035L67.9871 17.8499C65.7117 21.7155 63.2144 26.2691 61.2781 30.2889L61.7285 30.5059ZM68.418 18.1035L68.8521 18.3516C71.0946 14.4272 73.8186 9.95306 76.4641 6.31248L76.0596 6.01855L75.6551 5.72463C72.9783 9.40827 70.2335 13.9185 67.9838 17.8554L68.418 18.1035ZM76.0596 6.01855L76.4664 6.30917C77.3252 5.10686 78.1751 3.92982 79.2283 2.97018L78.8916 2.60059L78.5549 2.23099C77.4108 3.27331 76.5029 4.53767 75.6527 5.72794L76.0596 6.01855ZM78.8916 2.60059L79.2261 2.97223C79.3443 2.86583 79.5121 2.72053 79.6861 2.60367C79.7728 2.54544 79.8512 2.50106 79.9172 2.47255C79.9872 2.44235 80.0171 2.44141 80.0146 2.44141V1.94141V1.44141C79.6688 1.44141 79.339 1.63217 79.1286 1.77353C78.8936 1.93133 78.683 2.11562 78.5571 2.22894L78.8916 2.60059ZM80.0146 1.94141V2.44141C79.9536 2.44141 79.9088 2.41423 79.8918 2.39902C79.882 2.39025 79.8965 2.39972 79.9194 2.45232C79.9659 2.559 80.0029 2.74182 80.0029 2.9668H80.5029H81.0029C81.0029 2.65466 80.9546 2.32478 80.8362 2.05305C80.727 1.80222 80.4771 1.44141 80.0146 1.44141V1.94141ZM80.5029 2.9668H80.0029C80.0029 3.41253 79.8755 3.8812 79.6769 4.36777C79.4769 4.85745 79.2233 5.32406 78.9839 5.79015L79.4287 6.01855L79.8735 6.24696C80.098 5.80973 80.3815 5.28757 80.6027 4.74576C80.8252 4.20083 81.0029 3.59528 81.0029 2.9668H80.5029ZM79.4287 6.01855L78.9879 5.78262C78.0719 7.49401 77.033 9.11354 75.9375 10.7447L76.3525 11.0234L76.7676 11.3022C77.8693 9.66185 78.93 8.0099 79.8695 6.25449L79.4287 6.01855ZM76.3525 11.0234L75.9337 10.7504C72.3319 16.2748 67.9743 21.9715 64.1122 27.1047L64.5117 27.4053L64.9113 27.7059C68.764 22.5852 73.1466 16.8561 76.7714 11.2965L76.3525 11.0234ZM64.5117 27.4053L64.1117 27.1053C63.6717 27.692 63.2361 28.2727 62.7769 28.8527L63.1689 29.1631L63.561 29.4734C64.0295 28.8815 64.4729 28.2904 64.9117 27.7053L64.5117 27.4053ZM63.1689 29.1631L62.8154 28.8095L62.791 28.8339L63.1445 29.1875L63.4981 29.5411L63.5225 29.5166L63.1689 29.1631ZM63.1445 29.1875L63.5606 28.9101L63.5117 28.8369L63.0957 29.1143L62.6797 29.3916L62.7285 29.4649L63.1445 29.1875ZM63.0957 29.1143L62.6508 28.8861C61.674 30.7908 60.5874 32.9871 59.8436 34.9953L60.3125 35.1689L60.7814 35.3426C61.5024 33.3957 62.5643 31.2463 63.5406 29.3424L63.0957 29.1143ZM60.3125 35.1689L60.3832 35.6639C60.6552 35.6251 60.8672 35.4995 60.9756 35.4453L60.752 34.998L60.5283 34.5508C60.3438 34.6431 60.3116 34.664 60.2418 34.674L60.3125 35.1689ZM60.752 34.998L60.9901 35.4377C61.6384 35.0865 62.2209 34.5538 62.6978 34.1246L62.3633 33.7529L62.0288 33.3813C61.5291 33.831 61.0374 34.2748 60.5138 34.5584L60.752 34.998ZM62.3633 33.7529L62.6931 34.1287C63.9019 33.0679 64.998 31.9901 66.0748 30.9255C67.1544 29.8582 68.2131 28.8056 69.3617 27.7779L69.0283 27.4053L68.6949 27.0327C67.5242 28.0802 66.4467 29.1516 65.3717 30.2144C64.294 31.2799 63.2173 32.3383 62.0335 33.3771L62.3633 33.7529ZM69.0283 27.4053L69.3819 27.7588C69.8845 27.2562 70.3963 26.7926 70.9696 26.4027L70.6885 25.9893L70.4073 25.5758C69.7599 26.016 69.1976 26.5289 68.6748 27.0517L69.0283 27.4053ZM70.6885 25.9893L71.0008 26.3797C71.0685 26.3255 71.1468 26.2614 71.2343 26.2076C71.2768 26.1814 71.3117 26.164 71.3378 26.154C71.3655 26.1434 71.367 26.1475 71.3477 26.1475V25.6475V25.1475C71.0806 25.1475 70.8465 25.2721 70.7102 25.3559C70.5597 25.4485 70.4305 25.5553 70.3761 25.5988L70.6885 25.9893ZM71.3477 25.6475V26.1475C71.3185 26.1475 71.2855 26.1421 71.2522 26.1292C71.2194 26.1166 71.194 26.0996 71.1762 26.0841C71.1436 26.0558 71.1402 26.0365 71.1489 26.0572C71.1566 26.0757 71.1677 26.1114 71.1763 26.1671C71.1847 26.2213 71.1895 26.2853 71.1895 26.3555H71.6895H72.1895C72.1895 26.1394 72.1622 25.8881 72.0713 25.6711C71.9818 25.4572 71.7636 25.1475 71.3477 25.1475V25.6475ZM71.6895 26.3555H71.1895C71.1895 26.9301 71.0642 27.3253 70.914 27.6687L71.3721 27.8691L71.8301 28.0696C72.0217 27.6317 72.1895 27.0992 72.1895 26.3555H71.6895ZM71.3721 27.8691L70.9099 27.6783C70.6869 28.2184 70.4277 28.6946 70.1644 29.2244C69.9069 29.7426 69.6558 30.2933 69.496 30.9193L69.9805 31.043L70.4649 31.1667C70.5981 30.6452 70.8109 30.1705 71.0599 29.6694C71.3032 29.1799 71.5934 28.643 71.8342 28.06L71.3721 27.8691ZM69.9805 31.043H69.4805V31.1162H69.9805H70.4805V31.043H69.9805ZM69.9805 31.1162L69.5333 31.3398C69.5536 31.3805 69.5639 31.4034 69.5744 31.4262C69.5792 31.4366 69.6099 31.5087 69.6665 31.5767C69.7172 31.6375 69.7801 31.6827 69.7805 31.683C69.7959 31.6949 69.8163 31.7108 69.8504 31.74L70.1758 31.3604L70.5012 30.9807C70.4498 30.9367 70.4153 30.9098 70.3933 30.8928C70.3804 30.8828 70.383 30.8846 70.3869 30.8879C70.3938 30.8937 70.4131 30.9105 70.4348 30.9365C70.4573 30.9635 70.4717 30.9877 70.4792 31.0015C70.4845 31.0112 70.487 31.0172 70.4819 31.0061C70.4734 30.9877 70.4562 30.9496 70.4277 30.8926L69.9805 31.1162ZM70.1758 31.3604L69.8912 31.7714C70.0849 31.9056 70.2476 31.985 70.4465 32.0161C70.5257 32.0285 70.606 32.0319 70.6558 32.0347C70.7124 32.0378 70.7693 32.0416 70.8421 32.0513L70.9082 31.5557L70.9743 31.0601C70.864 31.0453 70.7775 31.0399 70.712 31.0362C70.6398 31.0322 70.6193 31.031 70.6009 31.0281C70.5942 31.027 70.5903 31.0264 70.5783 31.021C70.5609 31.0131 70.5258 30.9945 70.4604 30.9493L70.1758 31.3604ZM70.9082 31.5557V32.0557C71.5758 32.0557 72.2701 31.7986 72.7708 31.6079L72.5928 31.1406L72.4148 30.6734C71.8901 30.8733 71.3636 31.0557 70.9082 31.0557V31.5557ZM72.5928 31.1406L72.7543 31.6138C74.8207 30.9082 77.0142 29.5833 78.8001 28.409L78.5254 27.9912L78.2507 27.5734C76.4721 28.7429 74.3688 30.0058 72.4312 30.6675L72.5928 31.1406ZM78.5254 27.9912L78.8789 28.3448L78.9034 28.3204L78.5498 27.9668L78.1963 27.6132L78.1718 27.6377L78.5254 27.9912ZM78.5498 27.9668V28.4668C78.3898 28.4668 78.2804 28.3875 78.2279 28.3346C78.1804 28.2866 78.1603 28.2431 78.1566 28.235C78.1485 28.2175 78.1524 28.2203 78.1614 28.2628C78.1691 28.299 78.1755 28.3388 78.1833 28.3868C78.1868 28.4082 78.1911 28.4345 78.1956 28.4586C78.1989 28.4763 78.2071 28.5198 78.2219 28.5644L78.6963 28.4062L79.1706 28.2481C79.1807 28.2784 79.1814 28.2943 79.1704 28.2265C79.1637 28.1853 79.1533 28.1198 79.1396 28.0553C79.1273 27.9971 79.1052 27.9038 79.0643 27.8153C79.0442 27.7718 79.0059 27.699 78.9384 27.6308C78.8658 27.5575 78.7343 27.4668 78.5498 27.4668V27.9668ZM78.6963 28.4062H78.1963V28.7236H78.6963H79.1963V28.4062H78.6963ZM78.6963 28.7236H78.1963C78.1963 28.7677 78.1962 28.8051 78.195 28.8407C78.1938 28.8767 78.1917 28.9008 78.1895 28.9159C78.1867 28.9344 78.1865 28.9203 78.2001 28.8905C78.2134 28.8613 78.2605 28.7731 78.375 28.7159L78.5986 29.1631L78.8222 29.6103C78.9856 29.5286 79.0693 29.3947 79.1101 29.3052C79.1511 29.2151 79.1692 29.1263 79.1787 29.0624C79.1973 28.9365 79.1963 28.7997 79.1963 28.7236H78.6963ZM78.5986 29.1631L78.3302 28.7413C76.1803 30.1094 74.7302 31.0352 72.4644 31.8938L72.6416 32.3613L72.8188 32.8289C75.1917 31.9297 76.7201 30.9512 78.8671 29.5849L78.5986 29.1631ZM72.6416 32.3613L72.4835 31.887C71.9417 32.0676 71.4191 32.252 70.9326 32.252V32.752V33.252C71.618 33.252 72.3161 32.9969 72.7997 32.8357L72.6416 32.3613ZM70.9326 32.752V32.252C70.8346 32.252 70.7292 32.2356 70.5754 32.2099L70.4932 32.7031L70.411 33.1963C70.5501 33.2195 70.7377 33.252 70.9326 33.252V32.752ZM70.4932 32.7031L70.6144 32.2181C70.4491 32.1767 70.3506 32.082 70.2787 31.9202C70.1978 31.7383 70.1631 31.4895 70.1631 31.2139H69.6631H69.1631C69.1631 31.5486 69.2016 31.959 69.3649 32.3264C69.5371 32.7139 69.8536 33.0586 70.3719 33.1882L70.4932 32.7031ZM69.6631 31.2139L70.1625 31.238C70.2296 29.8517 70.6809 29.1244 71.4042 27.6777L70.957 27.4541L70.5098 27.2305C69.8171 28.6158 69.2431 29.5487 69.1637 31.1897L69.6631 31.2139ZM70.957 27.4541L71.4252 27.6297C71.4936 27.4472 71.5561 27.3037 71.6353 27.1651L71.2012 26.917L70.7671 26.6689C70.6509 26.8721 70.5669 27.0704 70.4889 27.2785L70.957 27.4541ZM71.2012 26.917V26.417C70.9196 26.417 70.7084 26.5462 70.5747 26.6498C70.5072 26.702 70.4476 26.7572 70.4023 26.7997C70.3513 26.8476 70.3213 26.8766 70.2898 26.9036L70.6152 27.2832L70.9406 27.6628C70.9946 27.6165 71.0501 27.5631 71.0868 27.5287C71.1293 27.4888 71.1596 27.4616 71.1868 27.4405C71.2422 27.3976 71.2386 27.417 71.2012 27.417V26.917ZM70.6152 27.2832L70.3202 26.8795C69.6595 27.3623 69.0533 27.9187 68.4959 28.4276L68.833 28.7969L69.1701 29.1661C69.7357 28.6497 70.3014 28.1318 70.9102 27.6869L70.6152 27.2832ZM68.833 28.7969L68.489 28.434C66.1073 30.6917 64.0321 32.9646 61.751 34.8574L62.0703 35.2422L62.3896 35.627C64.6984 33.7111 66.8713 31.3454 69.177 29.1598L68.833 28.7969ZM62.0703 35.2422L61.7449 34.8626C61.4893 35.0816 61.1647 35.3535 60.8523 35.5693C60.696 35.6773 60.5538 35.7635 60.4335 35.821C60.3739 35.8494 60.3258 35.8679 60.289 35.8787C60.2511 35.8898 60.236 35.8896 60.2393 35.8896V36.3896V36.8896C60.4669 36.8896 60.6882 36.8075 60.8644 36.7233C61.0508 36.6343 61.2413 36.516 61.4207 36.3921C61.7797 36.144 62.1386 35.8422 62.3957 35.6218L62.0703 35.2422ZM64.9756 25.5254L65.3723 25.8297C68.4289 21.8439 71.2163 18.0295 74.3204 13.6055L73.9111 13.3184L73.5018 13.0312C70.4048 17.4451 67.6258 21.2479 64.5788 25.2211L64.9756 25.5254ZM73.9111 13.3184L74.3213 13.6044C75.6157 11.7481 76.9159 9.85945 78.1437 7.89488L77.7197 7.62988L77.2957 7.36488C76.0822 9.30656 74.7944 11.1777 73.501 13.0324L73.9111 13.3184ZM77.7197 7.62988L78.1428 7.89629C78.9674 6.58662 79.8485 5.20447 80.4545 3.6896L79.9902 3.50391L79.526 3.31821C78.9601 4.73303 78.1322 6.03643 77.2966 7.36348L77.7197 7.62988ZM79.9902 3.50391L80.4545 3.6896C80.4852 3.61277 80.5662 3.44193 80.6026 3.26017L80.1123 3.16211L79.622 3.06405C79.6095 3.12643 79.5929 3.1509 79.526 3.31821L79.9902 3.50391ZM80.1123 3.16211V2.66211H80.0146V3.16211V3.66211H80.1123V3.16211ZM80.0146 3.16211L79.9471 2.66669C79.2273 2.76485 78.8959 3.13342 78.5252 3.48093L78.8672 3.8457L79.2092 4.21047C79.6197 3.82556 79.7278 3.70585 80.0822 3.65752L80.0146 3.16211ZM78.8672 3.8457L78.5233 3.48273C78.0338 3.9465 77.6008 4.45699 77.1999 4.98311L77.5977 5.28613L77.9954 5.58915C78.3758 5.08988 78.7729 4.62382 79.2111 4.20868L78.8672 3.8457ZM77.5977 5.28613L77.213 4.96668C75.9984 6.42913 74.9342 8.0136 73.8888 9.54528L74.3018 9.82715L74.7147 10.109C75.7689 8.56453 76.8043 7.02399 77.9823 5.60558L77.5977 5.28613ZM74.3018 9.82715L73.8846 9.55149C71.1174 13.739 68.5231 18.0957 66.1993 22.2541L66.6357 22.498L67.0722 22.742C69.387 18.5996 71.9685 14.2649 74.7189 10.1028L74.3018 9.82715ZM66.6357 22.498L66.1973 22.2576L64.5372 25.285L64.9756 25.5254L65.414 25.7658L67.0741 22.7385L66.6357 22.498Z" fill="white"/>
    </g>
</svg>
