<svg width="71" height="59" viewBox="0 0 71 59" fill="none" xmlns="http://www.w3.org/2000/svg">
    <g opacity="0.8">
        <path d="M10.0859 58.2646C8.1084 58.2646 5.71582 58.1426 3.88477 57.3613C3.20117 57.0684 2.56641 56.6777 2.07812 56.0918C1.3457 55.1641 1.32129 54.5293 1.24805 53.333C1.24805 48.9385 6.05762 43.543 9.69531 39.6367C14.1143 34.8271 17.9473 31.3848 23.2451 26.4043C23.1475 24.8906 23.0986 24.4512 23.0986 22.8643C23.0986 17.3711 24.0752 10.4375 28.5918 6.16504C31.5947 3.25977 35.7451 2.06348 39.9688 2.06348C41.2871 2.06348 42.9229 2.16113 43.4844 3.35742C43.6309 3.72363 43.7041 4.13867 43.7041 4.5293C43.7041 5.67676 43.3135 6.67773 42.7764 7.55664C41.8242 9.29004 40.335 10.9746 39.041 12.3906C37.21 14.417 35.0371 16.5654 33.084 18.4453C27.0537 24.1826 29.8125 21.5947 23.6357 27.2832C23.7334 28.1621 23.6846 27.6982 23.8311 28.626C23.8311 28.748 23.8555 28.6748 23.8555 28.8457C23.8799 28.9922 23.9043 29.1631 23.9043 29.3096C23.9043 29.4561 23.8799 29.5781 23.8555 29.7002C23.8311 29.7979 23.7822 29.8467 23.7578 29.8467C23.709 29.8467 23.6846 29.7979 23.6602 29.7002C23.416 28.2109 23.5137 29.041 23.3672 27.5518C18.9238 31.6777 19.0703 31.458 14.4805 35.9746C12.0879 38.3184 10.1104 40.3691 7.96191 42.7861C5.39844 45.6182 3.03027 48.5234 1.76074 52.0635C1.76074 52.1123 1.73633 52.1611 1.71191 52.21C1.71191 52.5518 1.58984 52.4541 1.58984 52.8447H1.56543L1.5166 53.4062C1.54102 53.4307 1.54102 53.4551 1.54102 53.5039V53.626L1.63867 54.0166C1.88281 54.7734 2.59082 55.5059 3.44531 55.9453C5.34961 56.9219 7.83984 57.0684 9.93945 57.0684C14.749 57.0684 19.168 55.9453 22.7812 52.7227C26.5654 49.3047 28.543 44.2998 29.4219 39.2949C29.5684 37.7812 29.7393 37.6348 29.8613 35.9258L29.8857 35.7549L30.0322 33.3867V33.0693L30.0566 32.9473L30.0811 31.2627L30.0566 29.7002L30.0322 29.5537C30.0322 28.3574 29.9834 27.4785 29.8369 26.2822V26.1357C29.7637 25.8672 29.7881 25.6963 29.7637 25.3789C29.5928 24.1338 29.5439 24.2559 29.4707 22.9863C29.4707 22.7178 29.5684 22.5469 29.6416 22.5469C29.6904 22.5469 29.7148 22.6934 29.7393 22.8154C30.1787 25.8672 30.3008 27.7227 30.3252 31.0186C30.3252 38.7578 29.0068 47.7666 23.4893 53.2842C19.876 56.8975 15.1641 58.2646 10.0859 58.2646ZM23.5137 26.1602C30.2031 19.959 28.958 21.1797 34.9883 15.3691C36.7461 13.5625 38.626 11.7559 40.3594 9.63184C41.5312 8.24023 42.752 6.77539 43.3135 5.06641L43.3379 4.94434C43.4355 4.94434 43.3867 4.82227 43.4111 4.72461V4.60254C43.4111 4.57812 43.4111 4.55371 43.3867 4.5293L43.3379 4.38281H43.3135C43.2646 4.23633 43.2891 4.30957 43.1914 4.1875C43.0449 3.99219 42.8252 3.8457 42.6543 3.74805C42.0684 3.43066 41.3848 3.33301 40.75 3.30859C40.4082 3.28418 40.0664 3.28418 39.7246 3.28418C36.1846 3.28418 32.2539 4.30957 29.3975 6.67773C26.4189 9.11914 24.5635 13.001 23.8799 16.9316C23.6602 17.9326 23.4893 19.6172 23.4893 19.6172L23.3672 21.7168V23.8408C23.3672 24.0117 23.3916 23.9873 23.3916 24.207C23.3916 24.7197 23.4404 25.208 23.4648 25.6475L23.5137 26.1602ZM41.1406 40.6133C41.0674 40.6133 41.043 40.3936 41.043 40.3203L40.9941 39.9297C40.9941 39.6123 41.043 39.5391 41.1895 39.2705C42.9961 35.6328 44.8271 32.166 46.8047 28.5283C46.8047 28.333 46.8047 28.1133 46.9023 27.9912C47.7812 26.917 47.3906 27.4785 48.0742 26.1602C50.6377 21.4971 52.1514 18.8359 54.7881 14.4414C52.8594 14.4902 50.9551 14.71 49.0752 15.1006C47.7568 15.3691 46.3896 15.6621 45.1445 16.1748C45.0957 16.1748 44.998 15.7354 44.998 15.3691C44.998 15.1738 45.0225 15.0029 45.1445 14.9541C45.5596 14.7832 45.999 14.6611 46.4385 14.5146C49.1484 13.7334 52.5176 13.1963 55.5449 13.1963C57.376 10.1445 59.5977 6.70215 61.9658 3.94336C62.5762 3.21094 63.2598 2.47852 64.041 1.91699C64.3096 1.72168 64.8223 1.37988 65.2373 1.37988C65.335 1.37988 65.4326 1.37988 65.5303 1.42871C65.8232 1.59961 65.8232 2.1123 65.8232 2.38086C65.8232 3.69922 64.9443 5.06641 64.2852 6.16504C62.8447 8.5332 60.9893 11.1455 59.3535 13.3184C61.8193 13.5381 64.2607 14.002 66.6289 14.71C66.7266 14.7344 66.7754 14.9541 66.7754 15.1738C66.7754 15.5156 66.6777 15.9307 66.6289 15.9307C63.9678 15.1494 61.4287 14.5879 58.499 14.4902C53.9336 20.4961 52.1514 22.7422 47.5371 28.4795C45.2666 32.7031 43.4355 35.999 41.2139 40.54C41.1895 40.5889 41.165 40.6133 41.1406 40.6133ZM49.71 24.5244C52.5176 20.9844 54.1289 18.958 56.9609 15.2715C57.1562 14.9785 57.376 14.71 57.5713 14.4414L55.5938 14.417C53.6406 17.5176 51.5166 21.2285 49.71 24.5244ZM58.4746 13.2451C59.9883 11.2188 61.4775 9.16797 62.8936 7.04395C63.5771 6.01855 64.2607 4.99316 64.8467 3.89453C65.042 3.55273 65.2373 3.16211 65.3838 2.77148C65.4082 2.72266 65.4326 2.67383 65.4326 2.625L65.2861 2.60059C65.0908 2.60059 64.9199 2.67383 64.7734 2.74707C64.041 3.01562 63.4551 3.62598 62.918 4.16309C61.0137 6.0918 59.4512 8.41113 57.9619 10.6816L56.3506 13.1719L58.4746 13.2451ZM49.417 36.3896C49.0996 36.3896 49.124 36.0967 49.0996 35.5596C49.0996 35.1445 49.1973 34.7051 49.3193 34.29C49.71 32.9961 50.3203 31.751 50.9062 30.5059C52.835 26.502 55.3252 21.9609 57.5957 18.1035C59.8418 14.1729 62.5762 9.68066 65.2373 6.01855C66.0918 4.82227 66.9707 3.60156 68.0693 2.60059C68.3135 2.38086 68.8262 1.94141 69.1924 1.94141C69.5098 1.94141 69.6807 2.42969 69.6807 2.9668C69.6807 4.04102 69.0703 5.11523 68.6064 6.01855C67.6787 7.75195 66.6289 9.3877 65.5303 11.0234C61.917 16.5654 57.5469 22.2783 53.6895 27.4053C53.25 27.9912 52.8105 28.5771 52.3467 29.1631L52.3223 29.1875L52.2734 29.1143C51.2969 31.0186 50.2227 33.1914 49.4902 35.1689C49.6611 35.1445 49.7832 35.0713 49.9297 34.998C50.5156 34.6807 51.0527 34.1924 51.541 33.7529C53.9336 31.6533 55.8867 29.4805 58.2061 27.4053C58.7188 26.8926 59.2559 26.4043 59.8662 25.9893C59.9883 25.8916 60.2812 25.6475 60.5254 25.6475C60.7695 25.6475 60.8672 25.9893 60.8672 26.3555C60.8672 27.0146 60.7207 27.4785 60.5498 27.8691C60.0859 28.9922 59.4512 29.8955 59.1582 31.043V31.1162C59.2559 31.3115 59.1826 31.2139 59.3535 31.3604C59.6709 31.5801 59.7197 31.5068 60.0859 31.5557C60.6475 31.5557 61.2578 31.3359 61.7705 31.1406C63.7725 30.457 65.9209 29.1631 67.7031 27.9912L67.7275 27.9668C67.8252 27.9668 67.8496 28.333 67.874 28.4062V28.7236C67.874 28.8945 67.874 29.1143 67.7764 29.1631C65.6279 30.5303 64.1387 31.4824 61.8193 32.3613C61.3066 32.5322 60.6963 32.752 60.1104 32.752C59.9639 32.752 59.8174 32.7275 59.6709 32.7031C58.9873 32.5322 58.8408 31.8242 58.8408 31.2139C58.9141 29.7002 59.4268 28.8701 60.1348 27.4541C60.208 27.2588 60.2812 27.0879 60.3789 26.917C60.1348 26.917 59.9639 27.1367 59.793 27.2832C59.1582 27.7471 58.5723 28.2842 58.0107 28.7969C55.667 31.0186 53.543 33.3379 51.248 35.2422C50.7354 35.6816 49.8809 36.3896 49.417 36.3896ZM54.1533 25.5254C57.2051 21.5459 59.9883 17.7373 63.0889 13.3184C64.3828 11.4629 65.6768 9.58301 66.8975 7.62988C67.7275 6.31152 68.582 4.96875 69.168 3.50391C69.2168 3.38184 69.2656 3.28418 69.29 3.16211H69.1924C68.6553 3.23535 68.4355 3.47949 68.0449 3.8457C67.5811 4.28516 67.166 4.77344 66.7754 5.28613C65.5791 6.72656 64.5293 8.28906 63.4795 9.82715C60.7207 14.002 58.1328 18.3477 55.8135 22.498L54.1533 25.5254Z" fill="white"/>
        <path d="M3.88477 57.3613L3.68781 57.8209L3.68855 57.8212L3.88477 57.3613ZM2.07812 56.0918L1.68555 56.4017L1.69401 56.4119L2.07812 56.0918ZM1.24805 53.333H0.748047V53.3483L0.748981 53.3636L1.24805 53.333ZM9.69531 39.6367L10.0612 39.9775L10.0635 39.975L9.69531 39.6367ZM23.2451 26.4043L23.5876 26.7686L23.7592 26.6072L23.7441 26.3721L23.2451 26.4043ZM28.5918 6.16504L28.9354 6.5283L28.9395 6.52439L28.5918 6.16504ZM43.4844 3.35742L43.9486 3.17173L43.9432 3.15818L43.937 3.14497L43.4844 3.35742ZM42.7764 7.55664L42.3497 7.29592L42.3437 7.30578L42.3381 7.31592L42.7764 7.55664ZM39.041 12.3906L38.6719 12.0533L38.67 12.0554L39.041 12.3906ZM33.084 18.4453L33.4286 18.8076L33.4307 18.8056L33.084 18.4453ZM23.6357 27.2832L23.297 26.9154L23.1109 27.0869L23.1388 27.3384L23.6357 27.2832ZM23.8311 28.626H24.3311V28.5867L24.3249 28.548L23.8311 28.626ZM23.8555 28.8457H23.3555V28.8871L23.3623 28.9279L23.8555 28.8457ZM23.8555 29.7002L24.3405 29.8215L24.3434 29.8099L24.3458 29.7983L23.8555 29.7002ZM23.6602 29.7002L23.1667 29.7811L23.1701 29.8014L23.1751 29.8215L23.6602 29.7002ZM23.3672 27.5518L23.8648 27.5028L23.7661 26.4991L23.027 27.1854L23.3672 27.5518ZM14.4805 35.9746L14.8304 36.3318L14.8312 36.331L14.4805 35.9746ZM7.96191 42.7861L8.33262 43.1217L8.33562 43.1183L7.96191 42.7861ZM1.76074 52.0635L1.29009 51.8947L1.26074 51.9765V52.0635H1.76074ZM1.71191 52.21L1.2647 51.9864L1.21191 52.0919V52.21H1.71191ZM1.58984 52.8447V53.3447H2.08984V52.8447H1.58984ZM1.56543 52.8447V52.3447H1.10702L1.06731 52.8014L1.56543 52.8447ZM1.5166 53.4062L1.01848 53.3629L0.998297 53.5951L1.16305 53.7598L1.5166 53.4062ZM1.54102 53.626H1.04102V53.6875L1.05594 53.7472L1.54102 53.626ZM1.63867 54.0166L1.1536 54.1379L1.15767 54.1541L1.16282 54.1701L1.63867 54.0166ZM3.44531 55.9453L3.21664 56.39L3.21715 56.3902L3.44531 55.9453ZM22.7812 52.7227L23.1141 53.0958L23.1164 53.0937L22.7812 52.7227ZM29.4219 39.2949L29.9143 39.3814L29.9177 39.3623L29.9196 39.3431L29.4219 39.2949ZM29.8613 35.9258L29.3664 35.8551L29.3639 35.8725L29.3626 35.8902L29.8613 35.9258ZM29.8857 35.7549L30.3807 35.8256L30.3836 35.8058L30.3848 35.7858L29.8857 35.7549ZM30.0322 33.3867L30.5313 33.4176L30.5322 33.4022V33.3867H30.0322ZM30.0322 33.0693L29.5419 32.9713L29.5322 33.0198V33.0693H30.0322ZM30.0566 32.9473L30.5469 33.0453L30.5559 33.0004L30.5566 32.9545L30.0566 32.9473ZM30.0811 31.2627L30.581 31.2699L30.5811 31.2624L30.581 31.2549L30.0811 31.2627ZM30.0566 29.7002L30.5566 29.6924L30.556 29.6549L30.5498 29.618L30.0566 29.7002ZM30.0322 29.5537H29.5322V29.5951L29.539 29.6359L30.0322 29.5537ZM29.8369 26.2822H29.3369V26.3127L29.3406 26.343L29.8369 26.2822ZM29.8369 26.1357H30.3369V26.0688L30.3193 26.0042L29.8369 26.1357ZM29.7637 25.3789L30.2622 25.3406L30.2611 25.3257L30.259 25.3109L29.7637 25.3789ZM29.4707 22.9863H28.9707V23.0007L28.9715 23.0151L29.4707 22.9863ZM29.7393 22.8154L30.2342 22.7442L30.2322 22.7307L30.2295 22.7174L29.7393 22.8154ZM30.3252 31.0186L30.8252 31.0186L30.8252 31.0149L30.3252 31.0186ZM23.5137 26.1602L23.0159 26.2076L23.1118 27.2145L23.8536 26.5268L23.5137 26.1602ZM34.9883 15.3691L35.3352 15.7292L35.341 15.7236L35.3466 15.7178L34.9883 15.3691ZM40.3594 9.63184L39.9769 9.30973L39.972 9.3157L40.3594 9.63184ZM43.3135 5.06641L43.7885 5.22248L43.7979 5.19393L43.8038 5.16446L43.3135 5.06641ZM43.3379 4.94434V4.44434H42.928L42.8476 4.84628L43.3379 4.94434ZM43.4111 4.72461L43.8962 4.84588L43.9111 4.78616V4.72461H43.4111ZM43.3867 4.5293L42.9124 4.68741L42.9497 4.79939L43.0332 4.88285L43.3867 4.5293ZM43.3379 4.38281L43.8122 4.2247L43.6983 3.88281H43.3379V4.38281ZM43.3135 4.38281L42.8391 4.54093L42.9531 4.88281H43.3135V4.38281ZM43.1914 4.1875L42.7914 4.4875L42.7961 4.49375L42.801 4.49985L43.1914 4.1875ZM42.6543 3.74805L42.9024 3.31381L42.8924 3.3084L42.6543 3.74805ZM40.75 3.30859L40.7144 3.80732L40.7226 3.80791L40.7308 3.80822L40.75 3.30859ZM29.3975 6.67773L29.7144 7.06444L29.7166 7.06265L29.3975 6.67773ZM23.8799 16.9316L24.3683 17.0388L24.3706 17.0281L24.3725 17.0173L23.8799 16.9316ZM23.4893 19.6172L22.9918 19.5667L22.9907 19.5774L22.9901 19.5882L23.4893 19.6172ZM23.3672 21.7168L22.868 21.6878L22.8672 21.7023V21.7168H23.3672ZM23.4648 25.6475L22.9656 25.6752L22.9662 25.685L22.9671 25.6949L23.4648 25.6475ZM10.0859 58.2646V57.7646C8.10808 57.7646 5.8087 57.6386 4.08098 56.9014L3.88477 57.3613L3.68855 57.8212C5.62294 58.6466 8.10872 58.7646 10.0859 58.7646V58.2646ZM3.88477 57.3613L4.08173 56.9018C3.44091 56.6271 2.88273 56.2763 2.46224 55.7717L2.07812 56.0918L1.69401 56.4119C2.25009 57.0792 2.96144 57.5096 3.68781 57.8209L3.88477 57.3613ZM2.07812 56.0918L2.47057 55.782C2.14187 55.3656 1.98807 55.0378 1.90076 54.691C1.80783 54.322 1.78476 53.9173 1.74711 53.3025L1.24805 53.333L0.748981 53.3636C0.784578 53.945 0.81033 54.4559 0.931028 54.9352C1.05734 55.4369 1.28196 55.8902 1.68568 56.4016L2.07812 56.0918ZM1.24805 53.333H1.74805C1.74805 51.2969 2.87242 48.9572 4.51824 46.5869C6.15276 44.233 8.24219 41.9308 10.0612 39.9775L9.69531 39.6367L9.3294 39.296C7.51074 41.2489 5.37654 43.5976 3.69685 46.0166C2.02846 48.4193 0.748047 50.9746 0.748047 53.333H1.24805ZM9.69531 39.6367L10.0635 39.975C14.4666 35.1827 18.2811 31.7572 23.5876 26.7686L23.2451 26.4043L22.9026 26.04C17.6134 31.0123 13.762 34.4716 9.32712 39.2984L9.69531 39.6367ZM23.2451 26.4043L23.7441 26.3721C23.6462 24.855 23.5986 24.4321 23.5986 22.8643H23.0986H22.5986C22.5986 24.4702 22.6487 24.9262 22.7462 26.4365L23.2451 26.4043ZM23.0986 22.8643H23.5986C23.5986 17.3913 24.58 10.6482 28.9354 6.52827L28.5918 6.16504L28.2482 5.8018C23.5704 10.2268 22.5986 17.3508 22.5986 22.8643H23.0986ZM28.5918 6.16504L28.9395 6.52439C31.8224 3.73522 35.8321 2.56348 39.9688 2.56348V2.06348V1.56348C35.6581 1.56348 31.3671 2.78431 28.2441 5.80569L28.5918 6.16504ZM39.9688 2.06348V2.56348C40.6257 2.56348 41.3057 2.5894 41.88 2.74454C42.4488 2.8982 42.8378 3.15677 43.0318 3.56988L43.4844 3.35742L43.937 3.14497C43.5694 2.36179 42.8598 1.97338 42.1408 1.77914C41.4272 1.58638 40.6302 1.56348 39.9688 1.56348V2.06348ZM43.4844 3.35742L43.0201 3.54312C43.1411 3.84552 43.2041 4.19695 43.2041 4.5293H43.7041H44.2041C44.2041 4.08039 44.1206 3.60175 43.9486 3.17173L43.4844 3.35742ZM43.7041 4.5293H43.2041C43.2041 5.55784 42.8552 6.46884 42.3497 7.29592L42.7764 7.55664L43.203 7.81737C43.7718 6.88663 44.2041 5.79567 44.2041 4.5293H43.7041ZM42.7764 7.55664L42.3381 7.31592C41.4187 8.98981 39.9692 10.6336 38.6719 12.0533L39.041 12.3906L39.4101 12.7279C40.7007 11.3156 42.2298 9.59027 43.2146 7.79736L42.7764 7.55664ZM39.041 12.3906L38.67 12.0554C36.851 14.0685 34.6883 16.2072 32.7373 18.0851L33.084 18.4453L33.4307 18.8056C35.3859 16.9237 37.5689 14.7655 39.412 12.7258L39.041 12.3906ZM33.084 18.4453L32.7393 18.0831C26.7115 23.8181 29.4723 21.2283 23.297 26.9154L23.6357 27.2832L23.9745 27.651C30.1527 21.9611 27.396 24.5471 33.4286 18.8076L33.084 18.4453ZM23.6357 27.2832L23.1388 27.3384C23.238 28.2315 23.195 27.8037 23.3372 28.704L23.8311 28.626L24.3249 28.548C24.1741 27.5928 24.2288 28.0927 24.1327 27.228L23.6357 27.2832ZM23.8311 28.626H23.3311C23.3311 28.6701 23.333 28.7209 23.3425 28.7747C23.3528 28.8333 23.3719 28.8845 23.3689 28.8756C23.3673 28.8709 23.3638 28.8598 23.3605 28.8457C23.3575 28.8323 23.3559 28.8219 23.3552 28.816C23.3541 28.8071 23.3555 28.8124 23.3555 28.8457H23.8555H24.3555C24.3555 28.7935 24.3537 28.7439 24.3481 28.6969C24.3451 28.6719 24.3409 28.6466 24.3349 28.6208C24.3288 28.5943 24.3222 28.5733 24.3176 28.5594C24.3086 28.5323 24.3215 28.5682 24.3273 28.6009C24.3322 28.6287 24.3311 28.6429 24.3311 28.626H23.8311ZM23.8555 28.8457L23.3623 28.9279C23.3864 29.0727 23.4043 29.208 23.4043 29.3096H23.9043H24.4043C24.4043 29.1182 24.3734 28.9117 24.3487 28.7635L23.8555 28.8457ZM23.9043 29.3096H23.4043C23.4043 29.4005 23.39 29.4778 23.3652 29.6021L23.8555 29.7002L24.3458 29.7983C24.3697 29.6785 24.4043 29.5116 24.4043 29.3096H23.9043ZM23.8555 29.7002L23.3704 29.5789C23.3719 29.573 23.3793 29.5466 23.4066 29.5101C23.4197 29.4926 23.4448 29.463 23.4859 29.4332C23.5156 29.4115 23.6118 29.3467 23.7578 29.3467V29.8467V30.3467C23.916 30.3467 24.0275 30.2757 24.074 30.2419C24.1319 30.1998 24.1752 30.1519 24.2066 30.1101C24.2706 30.0247 24.3146 29.925 24.3405 29.8215L23.8555 29.7002ZM23.7578 29.8467V29.3467C23.835 29.3467 23.919 29.3678 23.9949 29.4164C24.0651 29.4613 24.1048 29.5146 24.1238 29.5451C24.1424 29.5747 24.1498 29.5962 24.1502 29.5974C24.151 29.5998 24.1493 29.5953 24.1452 29.5789L23.6602 29.7002L23.1751 29.8215C23.188 29.8731 23.2151 29.9779 23.2758 30.0751C23.3555 30.2025 23.5156 30.3467 23.7578 30.3467V29.8467ZM23.6602 29.7002L24.1536 29.6193C23.9089 28.1267 24.0094 28.9731 23.8648 27.5028L23.3672 27.5518L22.8696 27.6007C23.0179 29.1089 22.9232 28.2952 23.1667 29.7811L23.6602 29.7002ZM23.3672 27.5518L23.027 27.1854C18.586 31.3092 18.726 31.0953 14.1298 35.6182L14.4805 35.9746L14.8312 36.331C19.4146 31.8207 19.2617 32.0463 23.7074 27.9182L23.3672 27.5518ZM14.4805 35.9746L14.1306 35.6174C11.7313 37.9677 9.74562 40.0269 7.58821 42.454L7.96191 42.7861L8.33562 43.1183C10.4751 40.7114 12.4444 38.669 14.8304 36.3318L14.4805 35.9746ZM7.96191 42.7861L7.59122 42.4506C5.02324 45.2876 2.59536 48.255 1.29009 51.8947L1.76074 52.0635L2.23139 52.2323C3.46518 48.7919 5.77364 45.9487 8.33261 43.1217L7.96191 42.7861ZM1.76074 52.0635H1.26074C1.26074 52.006 1.27483 51.9678 1.27732 51.9612C1.27895 51.9568 1.27946 51.9561 1.27711 51.9611C1.27453 51.9666 1.2713 51.9732 1.2647 51.9864L1.71191 52.21L2.15913 52.4336C2.16903 52.4138 2.26074 52.2533 2.26074 52.0635H1.76074ZM1.71191 52.21H1.21191C1.21191 52.2657 1.20691 52.2805 1.20826 52.2752C1.20954 52.2701 1.21373 52.2624 1.1957 52.3021C1.17588 52.3457 1.14377 52.4179 1.121 52.5196C1.09934 52.6163 1.08984 52.7219 1.08984 52.8447H1.58984H2.08984C2.08984 52.7723 2.09561 52.7436 2.09684 52.7381C2.09696 52.7375 2.09536 52.7395 2.10606 52.7159C2.11854 52.6885 2.15325 52.6167 2.17742 52.5216C2.20166 52.4263 2.21191 52.3251 2.21191 52.21H1.71191ZM1.58984 52.8447V52.3447H1.56543V52.8447V53.3447H1.58984V52.8447ZM1.56543 52.8447L1.06731 52.8014L1.01848 53.3629L1.5166 53.4062L2.01472 53.4496L2.06355 52.888L1.56543 52.8447ZM1.5166 53.4062L1.16305 53.7598C1.13874 53.7355 1.1117 53.7021 1.08882 53.6589C1.06596 53.6157 1.05395 53.5754 1.04767 53.544C1.04197 53.5155 1.04117 53.4948 1.04103 53.4915C1.04093 53.489 1.04102 53.4889 1.04102 53.5039H1.54102H2.04102C2.04102 53.4956 2.06394 53.2465 1.87015 53.0527L1.5166 53.4062ZM1.54102 53.5039H1.04102V53.626H1.54102H2.04102V53.5039H1.54102ZM1.54102 53.626L1.05594 53.7472L1.1536 54.1379L1.63867 54.0166L2.12374 53.8953L2.02609 53.5047L1.54102 53.626ZM1.63867 54.0166L1.16282 54.1701C1.4586 55.087 2.28077 55.9087 3.21664 56.39L3.44531 55.9453L3.67399 55.5007C2.90087 55.1031 2.30703 54.4599 2.11453 53.8631L1.63867 54.0166ZM3.44531 55.9453L3.21715 56.3902C5.23911 57.4271 7.83984 57.5684 9.93945 57.5684V57.0684V56.5684C7.83985 56.5684 5.46011 56.4166 3.67347 55.5004L3.44531 55.9453ZM9.93945 57.0684V57.5684C14.8278 57.5684 19.381 56.4253 23.1141 53.0958L22.7812 52.7227L22.4484 52.3495C18.955 55.4653 14.6702 56.5684 9.93945 56.5684V57.0684ZM22.7812 52.7227L23.1164 53.0937C27.0151 49.5723 29.0252 44.4445 29.9143 39.3814L29.4219 39.2949L28.9294 39.2084C28.0607 44.1552 26.1157 49.0371 22.4461 52.3516L22.7812 52.7227ZM29.4219 39.2949L29.9196 39.3431C29.9907 38.6074 30.0669 38.2097 30.1434 37.7691C30.2219 37.3169 30.2976 36.8361 30.3601 35.9614L29.8613 35.9258L29.3626 35.8902C29.303 36.7245 29.2322 37.1714 29.1581 37.5981C29.082 38.0364 28.9995 38.4688 28.9242 39.2468L29.4219 39.2949ZM29.8613 35.9258L30.3563 35.9965L30.3807 35.8256L29.8857 35.7549L29.3908 35.6842L29.3664 35.8551L29.8613 35.9258ZM29.8857 35.7549L30.3848 35.7858L30.5313 33.4176L30.0322 33.3867L29.5332 33.3558L29.3867 35.724L29.8857 35.7549ZM30.0322 33.3867H30.5322V33.0693H30.0322H29.5322V33.3867H30.0322ZM30.0322 33.0693L30.5225 33.1674L30.5469 33.0453L30.0566 32.9473L29.5664 32.8492L29.5419 32.9713L30.0322 33.0693ZM30.0566 32.9473L30.5566 32.9545L30.581 31.2699L30.0811 31.2627L29.5811 31.2554L29.5567 32.94L30.0566 32.9473ZM30.0811 31.2627L30.581 31.2549L30.5566 29.6924L30.0566 29.7002L29.5567 29.708L29.5811 31.2705L30.0811 31.2627ZM30.0566 29.7002L30.5498 29.618L30.5254 29.4715L30.0322 29.5537L29.539 29.6359L29.5634 29.7824L30.0566 29.7002ZM30.0322 29.5537H30.5322C30.5322 28.3386 30.4823 27.4393 30.3332 26.2215L29.8369 26.2822L29.3406 26.343C29.4845 27.5177 29.5322 28.3763 29.5322 29.5537H30.0322ZM29.8369 26.2822H30.3369V26.1357H29.8369H29.3369V26.2822H29.8369ZM29.8369 26.1357L30.3193 26.0042C30.2949 25.9147 30.2862 25.8424 30.2813 25.7494C30.2773 25.6727 30.2744 25.4991 30.2622 25.3406L29.7637 25.3789L29.2651 25.4173C29.2774 25.5761 29.2745 25.6466 29.2827 25.8019C29.29 25.9408 29.3057 26.0882 29.3545 26.2673L29.8369 26.1357ZM29.7637 25.3789L30.259 25.3109C30.082 24.0212 30.0417 24.2023 29.9699 22.9575L29.4707 22.9863L28.9715 23.0151C29.0462 24.3095 29.1035 24.2464 29.2683 25.4469L29.7637 25.3789ZM29.4707 22.9863H29.9707C29.9707 22.9492 29.9741 22.9197 29.9782 22.8984C29.9824 22.8764 29.9867 22.8665 29.9863 22.8673C29.9861 22.8678 29.9837 22.8732 29.9782 22.882C29.9729 22.8903 29.9622 22.9058 29.9443 22.9245C29.9197 22.95 29.8177 23.0469 29.6416 23.0469V22.5469V22.0469C29.4289 22.0469 29.2872 22.1651 29.2237 22.2311C29.1516 22.306 29.1034 22.3909 29.071 22.4645C29.0048 22.6151 28.9707 22.7955 28.9707 22.9863H29.4707ZM29.6416 22.5469V23.0469C29.5129 23.0469 29.4127 22.996 29.3494 22.9462C29.2918 22.9008 29.2603 22.8536 29.2471 22.832C29.222 22.7908 29.2158 22.7626 29.2199 22.7765C29.227 22.8006 29.2333 22.8352 29.249 22.9135L29.7393 22.8154L30.2295 22.7174C30.2208 22.6736 30.2027 22.5739 30.1793 22.4943C30.1681 22.4563 30.1451 22.3838 30.1009 22.3114C30.0708 22.262 29.9302 22.0469 29.6416 22.0469V22.5469ZM29.7393 22.8154L29.2444 22.8867C29.6801 25.9129 29.8009 27.7455 29.8252 31.0223L30.3252 31.0186L30.8252 31.0149C30.8006 27.6998 30.6773 25.8215 30.2342 22.7442L29.7393 22.8154ZM30.3252 31.0186H29.8252C29.8252 38.7407 28.5012 47.5652 23.1357 52.9306L23.4893 53.2842L23.8428 53.6377C29.5125 47.968 30.8252 38.7749 30.8252 31.0186H30.3252ZM23.4893 53.2842L23.1357 52.9306C19.6427 56.4237 15.0743 57.7646 10.0859 57.7646V58.2646V58.7646C15.2538 58.7646 20.1093 57.3713 23.8428 53.6377L23.4893 53.2842ZM23.5137 26.1602L23.8536 26.5268C30.5423 20.3264 29.3008 21.5437 35.3352 15.7292L34.9883 15.3691L34.6413 15.0091C28.6152 20.8157 29.864 19.5916 23.1738 25.7935L23.5137 26.1602ZM34.9883 15.3691L35.3466 15.7178C37.0896 13.9264 38.9951 12.0943 40.7468 9.94797L40.3594 9.63184L39.972 9.3157C38.2568 11.4174 36.4025 13.1986 34.6299 15.0205L34.9883 15.3691ZM40.3594 9.63184L40.7418 9.9539C41.902 8.57621 43.1916 7.03898 43.7885 5.22248L43.3135 5.06641L42.8385 4.91033C42.3123 6.5118 41.1605 7.90426 39.9769 9.30977L40.3594 9.63184ZM43.3135 5.06641L43.8038 5.16446L43.8282 5.04239L43.3379 4.94434L42.8476 4.84628L42.8232 4.96835L43.3135 5.06641ZM43.3379 4.94434V5.44434C43.4775 5.44434 43.6629 5.39269 43.7899 5.21993C43.888 5.08656 43.8979 4.94572 43.9007 4.90672C43.9027 4.87852 43.9029 4.85325 43.903 4.83905C43.9031 4.81882 43.9029 4.81714 43.9031 4.80772C43.9033 4.79265 43.9044 4.81315 43.8962 4.84588L43.4111 4.72461L42.9261 4.60334C42.9057 4.68489 42.9037 4.75728 42.9032 4.79257C42.9029 4.80832 42.903 4.83144 42.903 4.83505C42.9029 4.84469 42.9028 4.8423 42.9032 4.83547C42.9037 4.82913 42.9056 4.80541 42.914 4.77319C42.9226 4.74051 42.9415 4.68567 42.9843 4.62754C43.0302 4.56505 43.0931 4.51347 43.1675 4.48088C43.2375 4.45024 43.2993 4.44434 43.3379 4.44434V4.94434ZM43.4111 4.72461H43.9111V4.60254H43.4111H42.9111V4.72461H43.4111ZM43.4111 4.60254H43.9111C43.9111 4.5707 43.9201 4.35561 43.7403 4.17574L43.3867 4.5293L43.0332 4.88285C42.9799 4.82962 42.9415 4.76101 42.923 4.68719C42.9088 4.63016 42.9111 4.58105 42.9111 4.60254H43.4111ZM43.3867 4.5293L43.8611 4.37118L43.8122 4.2247L43.3379 4.38281L42.8635 4.54093L42.9124 4.68741L43.3867 4.5293ZM43.3379 4.38281V3.88281H43.3135V4.38281V4.88281H43.3379V4.38281ZM43.3135 4.38281L43.7878 4.2247C43.7778 4.19452 43.7652 4.15634 43.7533 4.12589C43.7379 4.08648 43.7114 4.02643 43.6612 3.96365C43.6411 3.93851 43.6224 3.91967 43.6156 3.91277C43.604 3.901 43.6086 3.90579 43.6038 3.90084C43.6028 3.8999 43.5965 3.89353 43.5818 3.87515L43.1914 4.1875L42.801 4.49985C42.8351 4.5425 42.8624 4.57276 42.8859 4.59699C42.8912 4.60252 42.8958 4.60717 42.8992 4.61052C42.9036 4.61499 42.9034 4.61473 42.9045 4.61587C42.9061 4.61745 42.8943 4.60586 42.8803 4.58835C42.8727 4.57886 42.8649 4.56826 42.8573 4.55658C42.8496 4.54499 42.8432 4.53403 42.838 4.52412C42.828 4.5054 42.8226 4.49164 42.8217 4.48943C42.8209 4.48729 42.8216 4.489 42.8252 4.49934C42.8286 4.50924 42.8328 4.52192 42.8391 4.54093L43.3135 4.38281ZM43.1914 4.1875L43.5914 3.8875C43.3818 3.60798 43.0886 3.42032 42.9024 3.31393L42.6543 3.74805L42.4062 4.18217C42.5618 4.27108 42.7081 4.3764 42.7914 4.4875L43.1914 4.1875ZM42.6543 3.74805L42.8924 3.3084C42.2064 2.9368 41.4319 2.83445 40.7692 2.80896L40.75 3.30859L40.7308 3.80822C41.3376 3.83157 41.9303 3.92453 42.4162 4.18769L42.6543 3.74805ZM40.75 3.30859L40.7856 2.80986C40.4231 2.78397 40.0635 2.78418 39.7246 2.78418V3.28418V3.78418C40.0694 3.78418 40.3933 3.78439 40.7144 3.80732L40.75 3.30859ZM39.7246 3.28418V2.78418C36.1024 2.78418 32.0478 3.83098 29.0783 6.29282L29.3975 6.67773L29.7166 7.06265C32.46 4.78817 36.2668 3.78418 39.7246 3.78418V3.28418ZM29.3975 6.67773L29.0805 6.29104C25.9848 8.82848 24.0853 12.8325 23.3873 16.846L23.8799 16.9316L24.3725 17.0173C25.0417 13.1695 26.8531 9.4098 29.7144 7.06443L29.3975 6.67773ZM23.8799 16.9316L23.3915 16.8244C23.2766 17.3479 23.1767 18.0378 23.1062 18.5861C23.0707 18.8625 23.0422 19.1071 23.0225 19.2826C23.0127 19.3705 23.005 19.4411 22.9998 19.49C22.9972 19.5145 22.9952 19.5335 22.9939 19.5464C22.9932 19.5529 22.9927 19.5579 22.9924 19.5613C22.9922 19.563 22.9921 19.5643 22.992 19.5652C22.9919 19.5657 22.9919 19.566 22.9919 19.5663C22.9918 19.5664 22.9918 19.5665 22.9918 19.5666C22.9918 19.5666 22.9918 19.5667 22.9918 19.5667C22.9918 19.5667 22.9918 19.5667 23.4893 19.6172C23.9867 19.6677 23.9867 19.6677 23.9867 19.6677C23.9867 19.6677 23.9867 19.6677 23.9867 19.6676C23.9867 19.6676 23.9867 19.6676 23.9867 19.6675C23.9867 19.6673 23.9868 19.6671 23.9868 19.6667C23.9869 19.666 23.987 19.6649 23.9871 19.6633C23.9875 19.6603 23.9879 19.6557 23.9886 19.6496C23.9898 19.6374 23.9917 19.6193 23.9942 19.5957C23.9992 19.5485 24.0067 19.4798 24.0163 19.394C24.0355 19.2225 24.0634 18.9834 24.0981 18.7135C24.168 18.1692 24.2634 17.5164 24.3683 17.0388L23.8799 16.9316ZM23.4893 19.6172L22.9901 19.5882L22.868 21.6878L23.3672 21.7168L23.8663 21.7458L23.9884 19.6462L23.4893 19.6172ZM23.3672 21.7168H22.8672V23.8408H23.3672H23.8672V21.7168H23.3672ZM23.3672 23.8408H22.8672C22.8672 23.8959 22.8692 23.9418 22.8731 23.9845C22.8768 24.0254 22.8821 24.06 22.8844 24.0763C22.8874 24.097 22.8916 24.1222 22.8916 24.207H23.3916H23.8916C23.8916 24.0721 23.8836 23.9996 23.8744 23.9349C23.8706 23.9085 23.8698 23.9034 23.8689 23.894C23.8683 23.8863 23.8672 23.8712 23.8672 23.8408H23.3672ZM23.3916 24.207H22.8916C22.8916 24.7375 22.9428 25.2652 22.9656 25.6752L23.4648 25.6475L23.9641 25.6197C23.938 25.1508 23.8916 24.7019 23.8916 24.207H23.3916ZM23.4648 25.6475L22.9671 25.6949L23.0159 26.2076L23.5137 26.1602L24.0114 26.1128L23.9626 25.6001L23.4648 25.6475ZM41.043 40.3203H41.543V40.2892L41.5391 40.2583L41.043 40.3203ZM40.9941 39.9297H40.4941V39.9608L40.498 39.9917L40.9941 39.9297ZM41.1895 39.2705L41.6284 39.5099L41.633 39.5015L41.6373 39.4929L41.1895 39.2705ZM46.8047 28.5283L47.244 28.7671L47.3047 28.6554V28.5283H46.8047ZM46.9023 27.9912L46.5153 27.6746L46.5119 27.6789L46.9023 27.9912ZM48.0742 26.1602L47.6359 25.9192L47.6303 25.93L48.0742 26.1602ZM54.7881 14.4414L55.2168 14.6987L55.6849 13.9185L54.7754 13.9416L54.7881 14.4414ZM49.0752 15.1006L49.175 15.5905L49.1769 15.5901L49.0752 15.1006ZM45.1445 16.1748V16.6748H45.2434L45.3349 16.6371L45.1445 16.1748ZM45.1445 14.9541L45.3302 15.4184L45.3349 15.4164L45.1445 14.9541ZM46.4385 14.5146L46.3 14.0342L46.2901 14.0371L46.2804 14.0403L46.4385 14.5146ZM55.5449 13.1963V13.6963H55.828L55.9737 13.4535L55.5449 13.1963ZM61.9658 3.94336L62.3453 4.26907L62.3499 4.26345L61.9658 3.94336ZM64.041 1.91699L64.3328 2.32301L64.3351 2.32136L64.041 1.91699ZM65.5303 1.42871L65.7822 0.996821L65.7683 0.988703L65.7539 0.981497L65.5303 1.42871ZM64.2852 6.16504L64.7123 6.42488L64.7139 6.42229L64.2852 6.16504ZM59.3535 13.3184L58.9541 13.0176L58.4129 13.7365L59.3091 13.8164L59.3535 13.3184ZM66.6289 14.71L66.4857 15.189L66.4966 15.1923L66.5076 15.195L66.6289 14.71ZM66.6289 15.9307L66.4881 16.4104L66.557 16.4307H66.6289V15.9307ZM58.499 14.4902L58.5157 13.9905L58.2574 13.9819L58.101 14.1877L58.499 14.4902ZM47.5371 28.4795L47.1475 28.1661L47.1186 28.2021L47.0967 28.2427L47.5371 28.4795ZM41.2139 40.54L41.6611 40.7637L41.663 40.7598L41.2139 40.54ZM49.71 24.5244L49.2715 24.2841L50.1017 24.8351L49.71 24.5244ZM56.9609 15.2715L57.3574 15.5761L57.3677 15.5628L57.377 15.5488L56.9609 15.2715ZM57.5713 14.4414L57.9757 14.7355L58.5445 13.9534L57.5775 13.9414L57.5713 14.4414ZM55.5938 14.417L55.5999 13.917L55.3199 13.9136L55.1707 14.1505L55.5938 14.417ZM58.4746 13.2451L58.4574 13.7448L58.7187 13.7538L58.8752 13.5443L58.4746 13.2451ZM62.8936 7.04395L63.3096 7.3213L62.8936 7.04395ZM64.8467 3.89453L64.4126 3.64646L64.4089 3.6528L64.4055 3.65924L64.8467 3.89453ZM65.3838 2.77148L64.9366 2.54788L64.9248 2.57135L64.9156 2.59592L65.3838 2.77148ZM65.4326 2.625H65.9326V2.20144L65.5148 2.1318L65.4326 2.625ZM65.2861 2.60059L65.3683 2.10739L65.3275 2.10059H65.2861V2.60059ZM64.7734 2.74707L64.9456 3.21651L64.9719 3.20684L64.997 3.19428L64.7734 2.74707ZM62.918 4.16309L62.5644 3.80953L62.5622 3.81179L62.918 4.16309ZM57.9619 10.6816L57.5438 10.4074L57.5421 10.41L57.9619 10.6816ZM56.3506 13.1719L55.9308 12.9002L55.4514 13.6412L56.3334 13.6716L56.3506 13.1719ZM41.1406 40.6133V40.1133C41.2665 40.1133 41.3653 40.1632 41.428 40.2135C41.485 40.2591 41.515 40.3062 41.5272 40.3273C41.5505 40.3675 41.5541 40.3926 41.5507 40.3785C41.5491 40.3715 41.5467 40.3583 41.5449 40.3418C41.5429 40.3244 41.543 40.3159 41.543 40.3203H41.043H40.543C40.543 40.3917 40.5527 40.5041 40.5779 40.6101C40.5898 40.6601 40.6133 40.7446 40.6618 40.8283C40.6974 40.8899 40.8425 41.1133 41.1406 41.1133V40.6133ZM41.043 40.3203L41.5391 40.2583L41.4903 39.8677L40.9941 39.9297L40.498 39.9917L40.5468 40.3823L41.043 40.3203ZM40.9941 39.9297H41.4941C41.4941 39.7959 41.5049 39.7589 41.5112 39.7399C41.524 39.7015 41.5441 39.6646 41.6284 39.5099L41.1895 39.2705L40.7505 39.0311C40.6884 39.145 40.6108 39.2789 40.5625 39.4237C40.5078 39.5878 40.4941 39.7461 40.4941 39.9297H40.9941ZM41.1895 39.2705L41.6373 39.4929C43.4403 35.8625 45.2682 32.4015 47.244 28.7671L46.8047 28.5283L46.3654 28.2895C44.386 31.9305 42.5519 35.4031 40.7416 39.0481L41.1895 39.2705ZM46.8047 28.5283H47.3047C47.3047 28.4237 47.3054 28.3532 47.3128 28.2963C47.3144 28.284 47.316 28.2747 47.3174 28.268C47.3189 28.2613 47.3199 28.2584 47.3198 28.2586C47.3197 28.2588 47.3182 28.2634 47.3142 28.271C47.3102 28.2787 47.3034 28.2902 47.2928 28.3036L46.9023 27.9912L46.5119 27.6789C46.3771 27.8473 46.3372 28.0429 46.321 28.1683C46.3039 28.3006 46.3047 28.4376 46.3047 28.5283H46.8047ZM46.9023 27.9912L47.2893 28.3078C47.6992 27.8068 47.8662 27.6261 47.9874 27.4293C48.0515 27.325 48.1056 27.2137 48.1753 27.0713C48.248 26.923 48.3498 26.7149 48.5181 26.3903L48.0742 26.1602L47.6303 25.93C47.4568 26.2646 47.3511 26.4807 47.2773 26.6314C47.2006 26.7881 47.1692 26.8508 47.1357 26.9052C47.0615 27.0258 46.9843 27.1014 46.5154 27.6746L46.9023 27.9912ZM48.0742 26.1602L48.5124 26.401C51.0734 21.7423 52.584 19.0868 55.2168 14.6987L54.7881 14.4414L54.3593 14.1842C51.7188 18.5851 50.202 21.2518 47.6361 25.9193L48.0742 26.1602ZM54.7881 14.4414L54.7754 13.9416C52.8169 13.9911 50.8828 14.2143 48.9735 14.611L49.0752 15.1006L49.1769 15.5901C51.0273 15.2056 52.9018 14.9893 54.8007 14.9412L54.7881 14.4414ZM49.0752 15.1006L48.9754 14.6106C47.6608 14.8784 46.2492 15.1792 44.9542 15.7125L45.1445 16.1748L45.3349 16.6371C46.5301 16.145 47.8528 15.8599 49.175 15.5905L49.0752 15.1006ZM45.1445 16.1748V15.6748C45.3317 15.6748 45.448 15.7768 45.4836 15.8115C45.5268 15.8535 45.5499 15.8925 45.5573 15.9054C45.5738 15.934 45.5783 15.9507 45.5742 15.9388C45.5683 15.9215 45.5566 15.8794 45.5436 15.8131C45.518 15.6824 45.498 15.5137 45.498 15.3691H44.998H44.498C44.498 15.5908 44.5269 15.8249 44.5623 16.0055C44.5798 16.0949 44.6017 16.1855 44.6279 16.262C44.6398 16.297 44.6599 16.351 44.6911 16.405C44.7059 16.4306 44.7361 16.4794 44.786 16.528C44.8285 16.5694 44.9512 16.6748 45.1445 16.6748V16.1748ZM44.998 15.3691H45.498C45.498 15.3298 45.4993 15.2993 45.5015 15.276C45.5038 15.2518 45.5064 15.2438 45.5055 15.2467C45.5048 15.249 45.4969 15.2765 45.4701 15.3121C45.4402 15.352 45.3932 15.3932 45.3302 15.4183L45.1445 14.9541L44.9588 14.4899C44.6969 14.5946 44.5887 14.8188 44.5455 14.9667C44.5034 15.1109 44.498 15.2613 44.498 15.3691H44.998ZM45.1445 14.9541L45.3349 15.4164C45.7294 15.254 46.124 15.1465 46.5966 14.989L46.4385 14.5146L46.2804 14.0403C45.8741 14.1757 45.3898 14.3124 44.9542 14.4918L45.1445 14.9541ZM46.4385 14.5146L46.577 14.9951C49.2468 14.2254 52.5692 13.6963 55.5449 13.6963V13.1963V12.6963C52.4659 12.6963 49.0501 13.2414 46.3 14.0342L46.4385 14.5146ZM55.5449 13.1963L55.9737 13.4535C57.8011 10.4078 60.0053 6.99486 62.3452 4.26903L61.9658 3.94336L61.5864 3.61769C59.19 6.40944 56.9509 9.88122 55.1162 12.939L55.5449 13.1963ZM61.9658 3.94336L62.3499 4.26345C62.9508 3.54239 63.6026 2.84784 64.3328 2.323L64.041 1.91699L63.7492 1.51098C62.9169 2.10919 62.2015 2.87949 61.5817 3.62327L61.9658 3.94336ZM64.041 1.91699L64.3351 2.32136C64.4613 2.22956 64.6327 2.1125 64.8129 2.01984C65.0044 1.92136 65.1502 1.87988 65.2373 1.87988V1.37988V0.879883C64.9094 0.879883 64.5913 1.0093 64.3556 1.13055C64.1085 1.25762 63.8893 1.40911 63.7469 1.51262L64.041 1.91699ZM65.2373 1.37988V1.87988C65.263 1.87988 65.2796 1.87992 65.2949 1.8804C65.3093 1.88085 65.3174 1.88158 65.3218 1.88213C65.3284 1.88296 65.3198 1.88251 65.3067 1.87592L65.5303 1.42871L65.7539 0.981497C65.5361 0.872584 65.3224 0.879883 65.2373 0.879883V1.37988ZM65.5303 1.42871L65.2783 1.8606C65.2335 1.83447 65.2674 1.82163 65.2963 1.96622C65.3218 2.0935 65.3232 2.24054 65.3232 2.38086H65.8232H66.3232C66.3232 2.25262 66.3247 2.00904 66.2769 1.77011C66.2326 1.54849 66.12 1.19385 65.7822 0.996821L65.5303 1.42871ZM65.8232 2.38086H65.3232C65.3232 2.93427 65.1372 3.52815 64.8487 4.14296C64.5602 4.75784 64.1929 5.34702 63.8564 5.90779L64.2852 6.16504L64.7139 6.42229C65.0366 5.88443 65.4383 5.24069 65.754 4.56773C66.0698 3.8947 66.3232 3.14581 66.3232 2.38086H65.8232ZM64.2852 6.16504L63.858 5.90521C62.4296 8.2535 60.585 10.8511 58.9541 13.0176L59.3535 13.3184L59.753 13.6191C61.3935 11.4399 63.2598 8.8129 64.7123 6.42487L64.2852 6.16504ZM59.3535 13.3184L59.3091 13.8164C61.7421 14.0332 64.1504 14.4908 66.4857 15.189L66.6289 14.71L66.7721 14.2309C64.3711 13.5131 61.8965 13.043 59.3979 12.8203L59.3535 13.3184ZM66.6289 14.71L66.5076 15.195C66.3651 15.1594 66.2956 15.0672 66.277 15.0392C66.2562 15.008 66.2537 14.991 66.258 15.006C66.2659 15.0336 66.2754 15.0944 66.2754 15.1738H66.7754H67.2754C67.2754 15.0335 67.2605 14.8746 67.2195 14.7313C67.1994 14.6608 67.1664 14.5706 67.109 14.4845C67.0537 14.4016 66.9415 14.2727 66.7502 14.2249L66.6289 14.71ZM66.7754 15.1738H66.2754C66.2754 15.3036 66.2561 15.458 66.231 15.5784C66.2182 15.6395 66.2071 15.6768 66.2023 15.6903C66.1987 15.7002 66.2042 15.6815 66.2226 15.6514C66.231 15.6376 66.2556 15.5988 66.3002 15.5578C66.3391 15.5221 66.4521 15.4307 66.6289 15.4307V15.9307V16.4307C66.8118 16.4307 66.9313 16.336 66.977 16.294C67.0284 16.2468 67.0601 16.1988 67.0759 16.1729C67.1089 16.1188 67.1301 16.065 67.1425 16.0307C67.1697 15.9557 67.1922 15.8678 67.2099 15.7824C67.2459 15.6099 67.2754 15.3859 67.2754 15.1738H66.7754ZM66.6289 15.9307L66.7698 15.4509C64.0867 14.6632 61.5031 14.0901 58.5157 13.9905L58.499 14.4902L58.4824 14.99C61.3543 15.0857 63.8488 15.6356 66.4881 16.4104L66.6289 15.9307ZM58.499 14.4902L58.101 14.1877C53.539 20.189 51.7597 22.4314 47.1475 28.1661L47.5371 28.4795L47.9267 28.7928C52.543 23.053 54.3282 20.8032 58.8971 14.7928L58.499 14.4902ZM47.5371 28.4795L47.0967 28.2427C44.8292 32.4608 42.9918 35.7682 40.7647 40.3203L41.2139 40.54L41.663 40.7598C43.8793 36.2298 45.704 32.9455 47.9775 28.7162L47.5371 28.4795ZM41.2139 40.54L40.7667 40.3164C40.7677 40.3143 40.7718 40.3063 40.7795 40.2947C40.787 40.2836 40.8012 40.2639 40.8237 40.2414C40.866 40.1991 40.9735 40.1133 41.1406 40.1133V40.6133V41.1133C41.3322 41.1133 41.4641 41.0152 41.5308 40.9485C41.5965 40.8828 41.6371 40.8116 41.6611 40.7636L41.2139 40.54ZM49.71 24.5244L50.1017 24.8351C52.9093 21.2951 54.5228 19.266 57.3574 15.5761L56.9609 15.2715L56.5644 14.9669C53.735 18.65 52.1258 20.6737 49.3182 24.2137L49.71 24.5244ZM56.9609 15.2715L57.377 15.5488C57.5678 15.2627 57.7548 15.0391 57.9757 14.7355L57.5713 14.4414L57.1669 14.1473C56.9971 14.3808 56.7447 14.6944 56.5449 14.9941L56.9609 15.2715ZM57.5713 14.4414L57.5775 13.9414L55.5999 13.917L55.5938 14.417L55.5876 14.917L57.5651 14.9414L57.5713 14.4414ZM55.5938 14.417L55.1707 14.1505C53.2101 17.2629 51.0807 20.9836 49.2715 24.2841L49.71 24.5244L50.1484 24.7647C51.9525 21.4735 54.0712 17.7722 56.0168 14.6835L55.5938 14.417ZM58.4746 13.2451L58.8752 13.5443C60.3913 11.5148 61.8865 9.45595 63.3096 7.3213L62.8936 7.04395L62.4775 6.7666C61.0686 8.87999 59.5853 10.9227 58.074 12.9459L58.4746 13.2451ZM62.8936 7.04395L63.3096 7.3213C63.991 6.29917 64.6885 5.25366 65.2879 4.12983L64.8467 3.89453L64.4055 3.65924C63.833 4.73267 63.1633 5.73794 62.4775 6.7666L62.8936 7.04395ZM64.8467 3.89453L65.2808 4.1426C65.4852 3.78487 65.6935 3.36951 65.852 2.94705L65.3838 2.77148L64.9156 2.59592C64.7811 2.95471 64.5988 3.32059 64.4126 3.64646L64.8467 3.89453ZM65.3838 2.77148L65.831 2.99509C65.8409 2.97529 65.9326 2.81483 65.9326 2.625H65.4326H64.9326C64.9326 2.56751 64.9467 2.52933 64.9492 2.52268C64.9508 2.51834 64.9513 2.51765 64.949 2.52265C64.9464 2.52815 64.9432 2.53467 64.9366 2.54788L65.3838 2.77148ZM65.4326 2.625L65.5148 2.1318L65.3683 2.10739L65.2861 2.60059L65.2039 3.09378L65.3504 3.1182L65.4326 2.625ZM65.2861 2.60059V2.10059C64.9681 2.10059 64.7092 2.22019 64.5498 2.29986L64.7734 2.74707L64.997 3.19428C65.1307 3.12746 65.2135 3.10059 65.2861 3.10059V2.60059ZM64.7734 2.74707L64.6013 2.27763C63.7437 2.5921 63.0761 3.29786 62.5644 3.80953L62.918 4.16309L63.2715 4.51664C63.8341 3.9541 64.3384 3.43915 64.9456 3.21651L64.7734 2.74707ZM62.918 4.16309L62.5622 3.81179C60.6184 5.78047 59.0314 8.13953 57.5438 10.4074L57.9619 10.6816L58.38 10.9559C59.871 8.68274 61.4089 6.40312 63.2738 4.51438L62.918 4.16309ZM57.9619 10.6816L57.5421 10.41L55.9308 12.9002L56.3506 13.1719L56.7704 13.4435L58.3817 10.9533L57.9619 10.6816ZM56.3506 13.1719L56.3334 13.6716L58.4574 13.7448L58.4746 13.2451L58.4918 12.7454L56.3678 12.6722L56.3506 13.1719ZM49.0996 35.5596H48.5996V35.5709L48.6001 35.5823L49.0996 35.5596ZM49.3193 34.29L48.8407 34.1455L48.8397 34.149L49.3193 34.29ZM50.9062 30.5059L50.4558 30.2889L50.4538 30.293L50.9062 30.5059ZM57.5957 18.1035L58.0266 18.3572L58.0298 18.3516L57.5957 18.1035ZM65.2373 6.01855L65.6418 6.31249L65.6442 6.30917L65.2373 6.01855ZM68.0693 2.60059L67.7348 2.22893L67.7326 2.23099L68.0693 2.60059ZM68.6064 6.01855L69.0473 6.25453L69.0512 6.24696L68.6064 6.01855ZM65.5303 11.0234L65.1152 10.7446L65.1114 10.7504L65.5303 11.0234ZM53.6895 27.4053L53.2899 27.1047L53.2895 27.1053L53.6895 27.4053ZM52.3467 29.1631L52.7002 29.5166L52.7207 29.4962L52.7387 29.4734L52.3467 29.1631ZM52.3223 29.1875L51.9062 29.4649L52.2446 29.9723L52.6758 29.5411L52.3223 29.1875ZM52.2734 29.1143L52.6895 28.8369L52.2171 28.1284L51.8285 28.8861L52.2734 29.1143ZM49.4902 35.1689L49.0214 34.9953L48.7297 35.7827L49.5609 35.6639L49.4902 35.1689ZM49.9297 34.998L50.1533 35.4453L50.1606 35.4416L50.1678 35.4377L49.9297 34.998ZM51.541 33.7529L51.2112 33.3771L51.2065 33.3813L51.541 33.7529ZM58.2061 27.4053L58.5395 27.7779L58.5498 27.7686L58.5596 27.7588L58.2061 27.4053ZM59.8662 25.9893L60.1474 26.4027L60.1634 26.3918L60.1786 26.3797L59.8662 25.9893ZM60.5498 27.8691L60.0916 27.6687L60.0877 27.6783L60.5498 27.8691ZM59.1582 31.043L58.6737 30.9193L58.6582 30.9801V31.043H59.1582ZM59.1582 31.1162H58.6582V31.2342L58.711 31.3398L59.1582 31.1162ZM59.3535 31.3604L59.0281 31.74L59.0477 31.7568L59.0689 31.7714L59.3535 31.3604ZM60.0859 31.5557L60.0199 32.0513L60.0528 32.0557H60.0859V31.5557ZM61.7705 31.1406L61.6089 30.6675L61.6007 30.6703L61.5925 30.6734L61.7705 31.1406ZM67.7031 27.9912L67.9778 28.409L68.0205 28.3809L68.0567 28.3448L67.7031 27.9912ZM67.7275 27.9668V27.4668H67.5204L67.374 27.6132L67.7275 27.9668ZM67.874 28.4062H68.374V28.3251L68.3484 28.2481L67.874 28.4062ZM67.7764 29.1631L67.5528 28.7159L67.5297 28.7274L67.5079 28.7413L67.7764 29.1631ZM61.8193 32.3613L61.9774 32.8357L61.9871 32.8325L61.9965 32.8289L61.8193 32.3613ZM59.6709 32.7031L59.5496 33.1882L59.569 33.193L59.5887 33.1963L59.6709 32.7031ZM58.8408 31.2139L58.3414 31.1897L58.3408 31.2018V31.2139H58.8408ZM60.1348 27.4541L60.582 27.6777L60.5937 27.6542L60.6029 27.6297L60.1348 27.4541ZM60.3789 26.917L60.813 27.1651L61.2405 26.417H60.3789V26.917ZM59.793 27.2832L60.088 27.6869L60.1036 27.6755L60.1184 27.6628L59.793 27.2832ZM58.0107 28.7969L57.6735 28.4276L57.6668 28.434L58.0107 28.7969ZM51.248 35.2422L50.9287 34.8574L50.9227 34.8626L51.248 35.2422ZM54.1533 25.5254L53.7149 25.285L54.5501 25.8297L54.1533 25.5254ZM63.0889 13.3184L63.4982 13.6055L63.499 13.6044L63.0889 13.3184ZM66.8975 7.62988L66.4743 7.36347L66.4735 7.36488L66.8975 7.62988ZM69.29 3.16211L69.7803 3.26017L69.8999 2.66211H69.29V3.16211ZM69.1924 3.16211V2.66211H69.1584L69.1248 2.66669L69.1924 3.16211ZM68.0449 3.8457L67.7029 3.48093L67.701 3.48273L68.0449 3.8457ZM66.7754 5.28613L67.16 5.60558L67.1667 5.59751L67.1731 5.58915L66.7754 5.28613ZM63.4795 9.82715L63.0665 9.54525L63.0623 9.55149L63.4795 9.82715ZM55.8135 22.498L55.377 22.2541L55.3751 22.2576L55.8135 22.498ZM49.417 36.3896V35.8896C49.4144 35.8896 49.4841 35.8902 49.5584 35.9525C49.6264 36.0096 49.637 36.0681 49.6322 36.0498C49.627 36.0298 49.6198 35.984 49.614 35.8863C49.608 35.7856 49.6059 35.6873 49.5991 35.5369L49.0996 35.5596L48.6001 35.5823C48.6055 35.7004 48.6095 35.8402 48.6157 35.9454C48.6222 36.0538 48.6332 36.1819 48.6646 36.3022C48.6965 36.4243 48.7621 36.5897 48.9155 36.7185C49.0752 36.8525 49.2608 36.8896 49.417 36.8896V36.3896ZM49.0996 35.5596H49.5996C49.5996 35.2158 49.6816 34.8303 49.799 34.4311L49.3193 34.29L48.8397 34.149C48.7129 34.5799 48.5996 35.0733 48.5996 35.5596H49.0996ZM49.3193 34.29L49.798 34.4345C50.1755 33.1841 50.7662 31.9777 51.3587 30.7188L50.9062 30.5059L50.4538 30.293C49.8744 31.5243 49.2444 32.8081 48.8407 34.1455L49.3193 34.29ZM50.9062 30.5059L51.3567 30.7228C53.2778 26.7348 55.7609 22.2064 58.0266 18.3571L57.5957 18.1035L57.1648 17.8499C54.8895 21.7155 52.3921 26.2691 50.4558 30.2889L50.9062 30.5059ZM57.5957 18.1035L58.0298 18.3516C60.2723 14.4272 62.9963 9.95306 65.6418 6.31248L65.2373 6.01855L64.8328 5.72463C62.156 9.40827 59.4113 13.9185 57.1616 17.8554L57.5957 18.1035ZM65.2373 6.01855L65.6442 6.30917C66.503 5.10686 67.3528 3.92982 68.4061 2.97018L68.0693 2.60059L67.7326 2.23099C66.5886 3.27331 65.6806 4.53767 64.8304 5.72794L65.2373 6.01855ZM68.0693 2.60059L68.4038 2.97223C68.522 2.86583 68.6899 2.72053 68.8639 2.60367C68.9506 2.54544 69.0289 2.50106 69.0949 2.47255C69.1649 2.44235 69.1948 2.44141 69.1924 2.44141V1.94141V1.44141C68.8465 1.44141 68.5168 1.63217 68.3063 1.77353C68.0714 1.93133 67.8608 2.11562 67.7349 2.22894L68.0693 2.60059ZM69.1924 1.94141V2.44141C69.1314 2.44141 69.0866 2.41423 69.0695 2.39902C69.0597 2.39025 69.0742 2.39972 69.0971 2.45232C69.1436 2.559 69.1807 2.74182 69.1807 2.9668H69.6807H70.1807C70.1807 2.65466 70.1323 2.32478 70.014 2.05305C69.9047 1.80222 69.6548 1.44141 69.1924 1.44141V1.94141ZM69.6807 2.9668H69.1807C69.1807 3.41253 69.0533 3.8812 68.8546 4.36777C68.6547 4.85745 68.401 5.32406 68.1617 5.79015L68.6064 6.01855L69.0512 6.24696C69.2758 5.80973 69.5592 5.28757 69.7804 4.74576C70.0029 4.20083 70.1807 3.59528 70.1807 2.9668H69.6807ZM68.6064 6.01855L68.1656 5.78262C67.2497 7.49401 66.2107 9.11354 65.1152 10.7447L65.5303 11.0234L65.9453 11.3022C67.0471 9.66185 68.1078 8.0099 69.0473 6.25449L68.6064 6.01855ZM65.5303 11.0234L65.1114 10.7504C61.5096 16.2748 57.152 21.9715 53.2899 27.1047L53.6895 27.4053L54.089 27.7059C57.9417 22.5852 62.3244 16.8561 65.9491 11.2965L65.5303 11.0234ZM53.6895 27.4053L53.2895 27.1053C52.8494 27.692 52.4138 28.2727 51.9547 28.8527L52.3467 29.1631L52.7387 29.4734C53.2073 28.8815 53.6506 28.2904 54.0895 27.7053L53.6895 27.4053ZM52.3467 29.1631L51.9931 28.8095L51.9687 28.8339L52.3223 29.1875L52.6758 29.5411L52.7002 29.5166L52.3467 29.1631ZM52.3223 29.1875L52.7383 28.9101L52.6895 28.8369L52.2734 29.1143L51.8574 29.3916L51.9062 29.4649L52.3223 29.1875ZM52.2734 29.1143L51.8285 28.8861C50.8517 30.7908 49.7651 32.9871 49.0214 34.9953L49.4902 35.1689L49.9591 35.3426C50.6802 33.3957 51.742 31.2463 52.7183 29.3424L52.2734 29.1143ZM49.4902 35.1689L49.5609 35.6639C49.833 35.6251 50.0449 35.4995 50.1533 35.4453L49.9297 34.998L49.7061 34.5508C49.5215 34.6431 49.4893 34.664 49.4195 34.674L49.4902 35.1689ZM49.9297 34.998L50.1678 35.4377C50.8161 35.0865 51.3986 34.5538 51.8755 34.1246L51.541 33.7529L51.2065 33.3813C50.7068 33.831 50.2152 34.2748 49.6915 34.5584L49.9297 34.998ZM51.541 33.7529L51.8708 34.1287C53.0796 33.0679 54.1757 31.9901 55.2525 30.9255C56.3321 29.8582 57.3909 28.8056 58.5395 27.7779L58.2061 27.4053L57.8727 27.0327C56.7019 28.0802 55.6245 29.1516 54.5495 30.2144C53.4718 31.2799 52.395 32.3383 51.2112 33.3771L51.541 33.7529ZM58.2061 27.4053L58.5596 27.7588C59.0622 27.2562 59.5741 26.7926 60.1474 26.4027L59.8662 25.9893L59.5851 25.5758C58.9376 26.016 58.3753 26.5289 57.8525 27.0517L58.2061 27.4053ZM59.8662 25.9893L60.1786 26.3797C60.2462 26.3255 60.3246 26.2614 60.4121 26.2076C60.4546 26.1814 60.4894 26.164 60.5155 26.154C60.5433 26.1434 60.5447 26.1475 60.5254 26.1475V25.6475V25.1475C60.2584 25.1475 60.0242 25.2721 59.888 25.3559C59.7375 25.4485 59.6082 25.5553 59.5539 25.5988L59.8662 25.9893ZM60.5254 25.6475V26.1475C60.4962 26.1475 60.4632 26.1421 60.4299 26.1292C60.3971 26.1166 60.3718 26.0996 60.3539 26.0841C60.3213 26.0558 60.318 26.0365 60.3266 26.0572C60.3344 26.0757 60.3454 26.1114 60.354 26.1671C60.3624 26.2213 60.3672 26.2853 60.3672 26.3555H60.8672H61.3672C61.3672 26.1394 61.3399 25.8881 61.2491 25.6711C61.1595 25.4572 60.9413 25.1475 60.5254 25.1475V25.6475ZM60.8672 26.3555H60.3672C60.3672 26.9301 60.242 27.3253 60.0917 27.6687L60.5498 27.8691L61.0079 28.0696C61.1994 27.6317 61.3672 27.0992 61.3672 26.3555H60.8672ZM60.5498 27.8691L60.0877 27.6783C59.8646 28.2184 59.6055 28.6946 59.3422 29.2244C59.0846 29.7426 58.8336 30.2933 58.6737 30.9193L59.1582 31.043L59.6427 31.1667C59.7758 30.6452 59.9886 30.1705 60.2377 29.6694C60.481 29.1799 60.7711 28.643 61.0119 28.06L60.5498 27.8691ZM59.1582 31.043H58.6582V31.1162H59.1582H59.6582V31.043H59.1582ZM59.1582 31.1162L58.711 31.3398C58.7313 31.3805 58.7416 31.4034 58.7522 31.4262C58.757 31.4366 58.7876 31.5087 58.8443 31.5767C58.895 31.6375 58.9578 31.6827 58.9582 31.683C58.9736 31.6949 58.994 31.7108 59.0281 31.74L59.3535 31.3604L59.6789 30.9807C59.6276 30.9367 59.593 30.9098 59.571 30.8928C59.5582 30.8828 59.5607 30.8846 59.5646 30.8879C59.5715 30.8937 59.5909 30.9105 59.6125 30.9365C59.635 30.9635 59.6494 30.9877 59.6569 31.0015C59.6622 31.0112 59.6648 31.0172 59.6596 31.0061C59.6511 30.9877 59.6339 30.9496 59.6054 30.8926L59.1582 31.1162ZM59.3535 31.3604L59.0689 31.7714C59.2627 31.9056 59.4253 31.985 59.6242 32.0161C59.7035 32.0285 59.7837 32.0319 59.8336 32.0347C59.8901 32.0378 59.9471 32.0416 60.0199 32.0513L60.0859 31.5557L60.152 31.0601C60.0417 31.0453 59.9552 31.0399 59.8897 31.0362C59.8175 31.0322 59.797 31.031 59.7786 31.0281C59.7719 31.027 59.768 31.0264 59.7561 31.021C59.7386 31.0131 59.7035 30.9945 59.6381 30.9493L59.3535 31.3604ZM60.0859 31.5557V32.0557C60.7536 32.0557 61.4478 31.7986 61.9485 31.6079L61.7705 31.1406L61.5925 30.6734C61.0678 30.8733 60.5414 31.0557 60.0859 31.0557V31.5557ZM61.7705 31.1406L61.9321 31.6138C63.9984 30.9082 66.1919 29.5833 67.9778 28.409L67.7031 27.9912L67.4284 27.5734C65.6499 28.7429 63.5465 30.0058 61.6089 30.6675L61.7705 31.1406ZM67.7031 27.9912L68.0567 28.3448L68.0811 28.3204L67.7275 27.9668L67.374 27.6132L67.3496 27.6377L67.7031 27.9912ZM67.7275 27.9668V28.4668C67.5675 28.4668 67.4581 28.3875 67.4057 28.3346C67.3582 28.2866 67.3381 28.2431 67.3344 28.235C67.3263 28.2175 67.3301 28.2203 67.3391 28.2628C67.3468 28.299 67.3532 28.3388 67.361 28.3868C67.3645 28.4082 67.3688 28.4345 67.3733 28.4586C67.3766 28.4763 67.3848 28.5198 67.3997 28.5644L67.874 28.4062L68.3484 28.2481C68.3585 28.2784 68.3591 28.2943 68.3481 28.2265C68.3414 28.1853 68.331 28.1198 68.3174 28.0553C68.305 27.9971 68.2829 27.9038 68.242 27.8153C68.2219 27.7718 68.1837 27.699 68.1161 27.6308C68.0435 27.5575 67.912 27.4668 67.7275 27.4668V27.9668ZM67.874 28.4062H67.374V28.7236H67.874H68.374V28.4062H67.874ZM67.874 28.7236H67.374C67.374 28.7677 67.374 28.8051 67.3728 28.8407C67.3716 28.8767 67.3694 28.9008 67.3672 28.9159C67.3645 28.9344 67.3642 28.9203 67.3778 28.8905C67.3912 28.8613 67.4382 28.7731 67.5528 28.7159L67.7764 29.1631L68 29.6103C68.1633 29.5286 68.247 29.3947 68.2878 29.3052C68.3289 29.2151 68.347 29.1263 68.3564 29.0624C68.3751 28.9365 68.374 28.7997 68.374 28.7236H67.874ZM67.7764 29.1631L67.5079 28.7413C65.3581 30.1094 63.9079 31.0352 61.6422 31.8938L61.8193 32.3613L61.9965 32.8289C64.3694 31.9297 65.8978 30.9512 68.0448 29.5849L67.7764 29.1631ZM61.8193 32.3613L61.6612 31.887C61.1195 32.0676 60.5969 32.252 60.1104 32.252V32.752V33.252C60.7957 33.252 61.4938 32.9969 61.9774 32.8357L61.8193 32.3613ZM60.1104 32.752V32.252C60.0123 32.252 59.9069 32.2356 59.7531 32.2099L59.6709 32.7031L59.5887 33.1963C59.7278 33.2195 59.9154 33.252 60.1104 33.252V32.752ZM59.6709 32.7031L59.7922 32.2181C59.6269 32.1767 59.5283 32.082 59.4564 31.9202C59.3755 31.7383 59.3408 31.4895 59.3408 31.2139H58.8408H58.3408C58.3408 31.5486 58.3793 31.959 58.5426 32.3264C58.7148 32.7139 59.0313 33.0586 59.5496 33.1882L59.6709 32.7031ZM58.8408 31.2139L59.3402 31.238C59.4073 29.8517 59.8586 29.1244 60.582 27.6777L60.1348 27.4541L59.6876 27.2305C58.9949 28.6158 58.4208 29.5487 58.3414 31.1897L58.8408 31.2139ZM60.1348 27.4541L60.6029 27.6297C60.6714 27.4472 60.7338 27.3037 60.813 27.1651L60.3789 26.917L59.9448 26.6689C59.8287 26.8721 59.7447 27.0704 59.6666 27.2785L60.1348 27.4541ZM60.3789 26.917V26.417C60.0973 26.417 59.8862 26.5462 59.7524 26.6498C59.685 26.702 59.6253 26.7572 59.58 26.7997C59.529 26.8476 59.499 26.8766 59.4676 26.9036L59.793 27.2832L60.1184 27.6628C60.1724 27.6165 60.2278 27.5631 60.2646 27.5287C60.307 27.4888 60.3374 27.4616 60.3646 27.4405C60.42 27.3976 60.4163 27.417 60.3789 27.417V26.917ZM59.793 27.2832L59.498 26.8795C58.8373 27.3623 58.2311 27.9187 57.6736 28.4276L58.0107 28.7969L58.3479 29.1661C58.9135 28.6497 59.4791 28.1318 60.088 27.6869L59.793 27.2832ZM58.0107 28.7969L57.6668 28.434C55.285 30.6917 53.2098 32.9646 50.9288 34.8574L51.248 35.2422L51.5673 35.627C53.8761 33.7111 56.049 31.3454 58.3547 29.1598L58.0107 28.7969ZM51.248 35.2422L50.9227 34.8626C50.6671 35.0816 50.3424 35.3535 50.03 35.5693C49.8737 35.6773 49.7315 35.7635 49.6112 35.821C49.5516 35.8494 49.5035 35.8679 49.4668 35.8787C49.4288 35.8898 49.4138 35.8896 49.417 35.8896V36.3896V36.8896C49.6447 36.8896 49.8659 36.8075 50.0422 36.7233C50.2286 36.6343 50.419 36.516 50.5984 36.3921C50.9574 36.144 51.3163 35.8422 51.5734 35.6218L51.248 35.2422ZM54.1533 25.5254L54.5501 25.8297C57.6067 21.8439 60.394 18.0295 63.4982 13.6055L63.0889 13.3184L62.6796 13.0312C59.5825 17.4451 56.8035 21.2479 53.7566 25.2211L54.1533 25.5254ZM63.0889 13.3184L63.499 13.6044C64.7935 11.7481 66.0936 9.85945 67.3215 7.89488L66.8975 7.62988L66.4735 7.36488C65.2599 9.30656 63.9722 11.1777 62.6787 13.0324L63.0889 13.3184ZM66.8975 7.62988L67.3206 7.89629C68.1452 6.58662 69.0263 5.20447 69.6322 3.6896L69.168 3.50391L68.7037 3.31821C68.1378 4.73303 67.3099 6.03643 66.4743 7.36348L66.8975 7.62988ZM69.168 3.50391L69.6322 3.6896C69.6629 3.61277 69.744 3.44193 69.7803 3.26017L69.29 3.16211L68.7997 3.06405C68.7873 3.12643 68.7707 3.1509 68.7037 3.31821L69.168 3.50391ZM69.29 3.16211V2.66211H69.1924V3.16211V3.66211H69.29V3.16211ZM69.1924 3.16211L69.1248 2.66669C68.405 2.76485 68.0736 3.13342 67.703 3.48093L68.0449 3.8457L68.3869 4.21047C68.7975 3.82556 68.9055 3.70585 69.2599 3.65752L69.1924 3.16211ZM68.0449 3.8457L67.701 3.48273C67.2115 3.9465 66.7785 4.45699 66.3777 4.98311L66.7754 5.28613L67.1731 5.58915C67.5535 5.08988 67.9506 4.62382 68.3888 4.20868L68.0449 3.8457ZM66.7754 5.28613L66.3907 4.96668C65.1762 6.42913 64.112 8.0136 63.0665 9.54528L63.4795 9.82715L63.8925 10.109C64.9466 8.56453 65.982 7.02399 67.16 5.60558L66.7754 5.28613ZM63.4795 9.82715L63.0623 9.55149C60.2952 13.739 57.7009 18.0957 55.377 22.2541L55.8135 22.498L56.2499 22.742C58.5648 18.5996 61.1462 14.2649 63.8966 10.1028L63.4795 9.82715ZM55.8135 22.498L55.3751 22.2576L53.7149 25.285L54.1533 25.5254L54.5917 25.7658L56.2519 22.7385L55.8135 22.498Z" fill="white"/>
    </g>
</svg>
