<svg width="106" height="22" viewBox="0 0 106 22" fill="none" xmlns="http://www.w3.org/2000/svg">
  <path d="M19.8125 8.95312V10.9453H11.8672C13.332 15.2227 16.2031 18.1523 20.9844 19.3125C20.5391 19.7344 19.9766 20.5781 19.6719 21.1406C15.1367 19.8516 12.3477 17.1445 10.625 13.0547C9.58203 16.207 7.07422 19.1953 1.25 21.1406C1.03906 20.6484 0.453125 19.8516 0.0546875 19.4531C6.32422 17.3906 8.375 14.1328 9.00781 10.9453H1.22656V8.95312H9.24219C9.25391 8.57812 9.26562 8.21484 9.26562 7.85156V3.96094H0.546875V1.96875H20.3516V3.96094H11.3281V7.85156L11.3047 8.95312H19.8125ZM48.875 1.96875V3.89062H39.4062V7.82812L39.7578 7.42969C42.3828 8.71875 45.9453 10.7109 47.7266 12.0938L46.3438 13.8516C44.8555 12.6328 41.9258 10.8164 39.4062 9.42188V21.0703H37.3438V3.89062H28.7891V1.96875H48.875ZM73.4375 10.1484V8.08594H68.0938V10.1484H73.4375ZM66.2188 10.1484V8.08594H58.8594V6.46875H75.3594V11.7422H68.0938V13.6641H76.6484C76.6484 13.6641 76.6484 14.1562 76.6016 14.4141C76.3203 17.5312 76.0156 18.9141 75.4531 19.5C75.0547 19.8984 74.5859 20.0625 73.9297 20.1094C73.3672 20.1562 72.2656 20.1562 71.0938 20.0859C71.0703 19.5703 70.8594 18.8203 70.5547 18.3281C71.6328 18.4453 72.6406 18.4688 73.0391 18.4453C73.4375 18.4453 73.6484 18.4219 73.8594 18.2578C74.1641 17.9766 74.375 17.1562 74.5859 15.3047H68.0938V21.0938H66.2188V15.9609C64.0742 18.0586 60.9922 19.8281 58.1562 20.7656C57.8984 20.2969 57.3125 19.5938 56.9141 19.2422C59.6211 18.4922 62.5977 17.0156 64.6016 15.3047H60.5938L60.3828 16.0312L58.4609 15.75C58.9531 14.2734 59.5156 11.9766 59.8672 10.1484H66.2188ZM66.8516 2.20312V3.72656H62.9141C63.2539 4.42969 63.5703 5.16797 63.7344 5.67188L62.0703 6.375C61.8828 5.64844 61.4375 4.61719 60.9688 3.72656H60.2891C59.6328 4.80469 58.9062 5.76562 58.1797 6.49219C57.8281 6.1875 57.0547 5.69531 56.5859 5.4375C58.0156 4.14844 59.2812 2.15625 60.0312 0.164062L61.8125 0.65625C61.6133 1.17188 61.3789 1.6875 61.1328 2.20312H66.8516ZM77.3984 2.20312V3.72656H72.6641C73.168 4.41797 73.625 5.15625 73.8828 5.71875L72.1719 6.375C71.9023 5.66016 71.2461 4.59375 70.6016 3.72656H69.1719C68.4805 4.74609 67.707 5.64844 66.9219 6.35156C66.5938 6.04688 65.7734 5.48438 65.3281 5.25C66.8984 4.05469 68.2344 2.15625 68.9609 0.164062L70.7891 0.632812C70.5781 1.17188 70.3438 1.6875 70.0859 2.20312H77.3984ZM61.0156 13.6641H66.2188V11.7422H61.4609L61.0156 13.6641ZM105.922 9.42188V11.5312H85.25V9.42188H105.922Z" fill="#FCFDFF"/>
</svg>
