<svg width="190" height="32" viewBox="0 0 190 32" fill="none" xmlns="http://www.w3.org/2000/svg">
  <path d="M12.4595 15.6583C12.4595 15.6583 4.30194 16.6779 4.38704 12.14C4.48717 6.78659 10.2803 2.64204 14.8333 1.5C14.8333 1.5 9.72173 2.44009 6.25801 4.74809C2.79429 7.05609 0 10.2718 0 12.9929C0 15.7139 2.8229 17.0326 4.1074 17.2521C5.3919 17.4716 8.07391 17.6096 12.4595 15.6583Z" fill="#18191A"/>
  <path d="M0.764648 30.5C0.764648 30.5 7.83227 27.9971 13.4459 22.9969C19.0595 17.9967 20.0644 10.286 8.51099 12.4976C8.51099 12.4976 13.237 10.5688 16.65 10.5688C20.0629 10.5688 24.0001 11.2021 24.0001 15.0948C24.003 20.3856 13.8035 29.9448 0.764648 30.5Z" fill="#18191A"/>
  <path d="M21.4776 3.6187C22.2307 4.90217 21.6364 6.62684 20.1502 7.47053C18.664 8.31421 16.8495 7.95887 16.0964 6.67539C15.3433 5.39192 15.9648 3.71299 17.4231 2.82357C18.6919 2.04954 20.7245 2.33523 21.4776 3.6187Z" fill="#18191A"/>
  <path d="M42.8164 10.3633C42.8164 12.7266 44.3984 15.0312 47.0352 15.9492L46.0195 17.3945C44.1055 16.6621 42.6797 15.2168 41.9375 13.3906C41.1758 15.4219 39.6816 17.0234 37.6211 17.8047L36.625 16.3398C39.3398 15.3633 40.9609 12.9414 40.9805 10.3047V8.23438H42.8164V10.3633ZM51.2344 7.17969V20.2266H49.3789V12.6875H45.6875V11.1641H49.3789V7.17969H51.2344ZM51.625 22.7852V24.2891H39.8086V18.7617H41.6836V22.7852H51.625ZM68.1819 7.17969V20.0508H66.3459V7.17969H68.1819ZM68.6702 22.7852V24.2891H56.6194V19.0352H58.4748V22.7852H68.6702ZM62.6155 8.39062V13.6055H56.4241V16.125C59.6467 16.1152 61.8342 16.0078 64.4319 15.5391L64.6272 17.0625C61.8733 17.5508 59.5491 17.6484 56.0725 17.6484H54.6077V12.1992H60.7795V9.875H54.5686V8.39062H62.6155ZM85.2466 7.17969V19.8945H83.3911V7.17969H85.2466ZM85.7739 22.7852V24.2891H73.8013V18.6055H75.6763V22.7852H85.7739ZM75.7544 8.35156C78.3911 8.35156 80.4028 10.1484 80.4028 12.6875C80.4028 15.2656 78.3911 17.043 75.7544 17.043C73.1177 17.043 71.0864 15.2656 71.0864 12.6875C71.0864 10.1484 73.1177 8.35156 75.7544 8.35156ZM75.7544 9.97266C74.1138 9.97266 72.9028 11.0859 72.9028 12.6875C72.9028 14.3281 74.1138 15.4219 75.7544 15.4219C77.3559 15.4219 78.5864 14.3281 78.5864 12.6875C78.5864 11.0859 77.3559 9.97266 75.7544 9.97266ZM102.37 7.16016V24.6992H100.534V15.1484H97.0573V13.625H100.534V7.16016H102.37ZM96.7644 8.72266V10.2266H90.4558V13.625H96.0222V15.1094H90.4558V19.0156C93.3855 19.0059 95.4167 18.9375 97.7409 18.5273L97.9362 20.0312C95.3972 20.4414 93.1902 20.5391 89.948 20.5586H88.5808V8.72266H96.7644ZM107.56 8.72266V15.3633C109.308 15.3438 111.017 15.2266 112.931 14.8164L113.106 16.3203C110.841 16.8086 108.927 16.9258 106.856 16.9258H105.743V8.72266H107.56ZM119.806 7.17969V18.9961H118.048V7.17969H119.806ZM116.27 7.51172V17.4336H114.513V12.5703H110.938V11.0664H114.513V7.51172H116.27ZM114.767 18.6836C114.767 20.832 117.364 22.6875 120.665 23.1367L119.962 24.582C117.247 24.1621 114.933 22.8828 113.849 21.0469C112.755 22.8828 110.45 24.1621 107.755 24.582L107.052 23.1367C110.333 22.6875 112.931 20.832 112.931 18.6836V18.0977H114.767V18.6836ZM136.03 8.83984V10.5586C136.03 12.7266 136.03 15.1484 135.366 18.7227L133.491 18.5273C134.175 15.1484 134.175 12.668 134.175 10.5586V10.3438H123.55V8.83984H136.03ZM137.827 20.7539V22.2969H121.87V20.7539H127.945V14.582H129.78V20.7539H137.827ZM154.892 15.3828V16.9062H138.915V15.3828H154.892ZM153.037 12.3555V13.8594H140.908V7.78516H152.919V9.30859H142.744V12.3555H153.037ZM146.884 18.2734C150.654 18.2734 152.919 19.4258 152.919 21.457C152.919 23.4883 150.654 24.6406 146.884 24.6211C143.095 24.6406 140.81 23.4883 140.81 21.457C140.81 19.4258 143.095 18.2734 146.884 18.2734ZM146.884 19.6992C144.208 19.7188 142.685 20.3438 142.685 21.457C142.685 22.5703 144.208 23.1953 146.884 23.1953C149.521 23.1953 151.064 22.5703 151.064 21.457C151.064 20.3438 149.521 19.7188 146.884 19.6992ZM166.41 8.9375V10.4219H155.98V8.9375H160.277V7.08203H162.132V8.9375H166.41ZM161.195 11.2031C163.715 11.2227 165.433 12.4727 165.433 14.3867C165.433 16.3008 163.715 17.5703 161.195 17.5703C158.656 17.5703 156.937 16.3008 156.937 14.3867C156.937 12.4727 158.656 11.2227 161.195 11.2031ZM161.195 12.6289C159.711 12.6289 158.715 13.3125 158.734 14.3867C158.715 15.4805 159.711 16.125 161.195 16.125C162.679 16.125 163.675 15.4805 163.695 14.3867C163.675 13.3125 162.679 12.6289 161.195 12.6289ZM169.711 7.16016V11.9062H172.25V13.4492H169.711V18.0977H167.855V7.16016H169.711ZM169.711 18.9961V24.6602H167.855V20.5H158.148V18.9961H169.711ZM187.225 8.83984V10.7148C187.205 12.9219 187.205 15.2266 186.58 18.5664L184.764 18.3711C185.369 15.207 185.369 12.8633 185.369 10.7148V10.3438H174.646V8.83984H187.225ZM188.963 20.7539V22.2969H173.006V20.7539H176.775V15.0898H178.631V20.7539H181.15V15.0898H182.967V20.7539H188.963Z" fill="#18191A"/>
</svg>
