<svg width="70" height="59" viewBox="0 0 70 59" fill="none" xmlns="http://www.w3.org/2000/svg">
    <g opacity="0.8">
        <path d="M32.834 2.94238L32.8584 2.91797L32.834 2.94238ZM1.48633 58.1426C1.41309 58.1426 1.36426 57.752 1.33984 57.7031V57.4834C1.33984 57.2881 1.33984 57.0928 1.4375 56.9463C1.48633 56.8975 1.51074 56.8486 1.53516 56.7998C6.34473 49.5 5.39258 50.8428 11.2275 41.6631C15.1094 35.4131 16.6963 32.9473 20.6514 26.3311C23.752 21.1797 28.1221 13.8555 30.8809 7.99609C31.6865 6.33594 32.2969 5.01758 32.7852 3.23535L32.834 2.9668L32.8584 2.91797C32.8096 2.69824 32.6875 2.67383 32.4189 2.67383C32.248 2.67383 32.0283 2.72266 31.8818 2.74707C31.1494 2.94238 30.4658 3.33301 29.8555 3.77246C28.2197 4.91992 26.8525 6.45801 25.6074 7.99609C22.3359 12.0244 20.1875 15.6865 17.502 20.4229C17.4287 20.4229 17.3555 20.0322 17.3555 19.9834V19.7637C17.3555 19.1777 17.4775 19.1777 17.7461 18.6895C19.4307 15.6133 21.5547 12.2197 23.5078 9.48535C24.8018 7.67871 26.1934 5.89648 27.7559 4.33398C28.9033 3.18652 30.8564 1.45312 32.3945 1.45312C32.7119 1.45312 32.9561 1.59961 33.0537 2.01465C33.127 2.25879 33.1514 2.52734 33.1514 2.77148C33.1514 3.30859 33.0293 3.82129 32.9072 4.30957C32.4189 6.36035 31.2715 8.55762 30.3682 10.3887C27.1211 16.8584 23.2881 23.2061 19.4795 29.5781C15.3779 36.3164 17.502 32.8496 13.083 40.0029C8.44434 47.2783 8.0293 48.0107 3.12207 55.6523C2.73145 56.2627 2.34082 56.873 1.92578 57.4834C1.80371 57.7031 1.65723 57.9229 1.51074 58.1182L1.48633 58.1426ZM42.917 40.5156C42.8438 40.5156 42.7949 40.2959 42.7949 40.2227L42.7705 39.8076C42.7705 39.6367 42.7949 39.4902 42.8438 39.3926L42.9414 39.1729L45.2852 34.6074L47.7266 29.9932L47.5801 30.1396C45.627 31.7998 43.4541 33.1914 41.2568 34.4854C39.2061 35.6572 37.1309 36.7559 34.9824 37.7324C34.3232 38.0498 33.6396 38.3428 32.9316 38.5869C32.8096 38.6357 32.4922 38.8066 32.2725 38.8066C32.1748 38.8066 32.126 38.7822 32.0771 38.709C32.0039 38.5869 31.9795 38.3916 31.9795 38.1963C31.9795 37.9766 32.0283 37.7568 32.0771 37.6348C32.1016 37.5615 32.126 37.5371 32.1748 37.4883C32.2969 37.3418 32.4922 37.2441 32.6631 37.1465C33.4443 36.6582 34.2988 36.2188 35.1289 35.7793C36.4473 35.0957 37.79 34.4609 39.0352 33.6309C39.4014 33.3623 39.7676 33.0938 40.085 32.7764C40.207 32.6787 40.3291 32.5322 40.4268 32.3857L40.1826 32.1904C39.7432 31.8975 39.2549 31.7266 38.791 31.5312C37.9609 31.2139 36.6426 30.8965 36.3984 29.8955C36.3496 29.6758 36.3252 29.4561 36.3252 29.2363C36.3252 28.6992 36.4961 28.1621 36.8379 27.7471C37.3018 27.1855 37.8877 26.7461 38.4492 26.3311C39.1572 25.8184 39.9141 25.3789 40.7441 25.0615C41.3301 24.8418 41.9648 24.6709 42.5996 24.6709C42.9414 24.6953 43.4053 24.7441 43.6494 25.0371C43.8447 25.2568 43.918 25.5742 43.918 25.916C43.918 26.1846 43.8691 26.4775 43.7959 26.6973C43.625 27.1855 43.21 27.5273 42.7949 27.8203C42.0869 28.3574 41.2812 28.7969 40.5 29.2607C40.0361 29.5537 39.5479 29.8223 39.0596 30.1152C38.9619 30.1641 38.8643 30.2373 38.7422 30.2861C39.2549 30.4814 39.7676 30.6768 40.207 30.9697C40.6465 31.2627 40.8174 31.6289 40.8662 32.166V32.2881C40.8662 32.874 40.7197 33.3379 40.3535 33.7529C41.2812 33.2402 42.209 32.7031 43.0879 32.1416C45.0898 30.8721 47.043 29.5049 48.7031 27.8203L49.2891 27.1123C49.4844 26.7217 49.6797 26.3555 49.8994 25.9893C51.7305 22.5957 53.6348 19.2266 55.6123 15.9062L56.6377 14.1729C54.709 14.2461 52.7803 14.4658 50.876 14.832C49.5576 15.1006 48.1904 15.418 46.9209 15.9307C46.8965 15.9307 46.7988 15.4912 46.7988 15.125C46.7988 14.9297 46.8232 14.7344 46.9209 14.71C47.3604 14.5391 47.7998 14.3926 48.2393 14.2705C50.7539 13.5137 53.3906 13.123 56.0029 12.9766C56.4668 12.9521 56.9307 12.9277 57.3945 12.9277C58.6641 10.877 59.958 8.875 61.3252 6.89746C62.1309 5.77441 62.9609 4.67578 63.8643 3.62598C64.4746 2.89355 65.1582 2.16113 65.9639 1.59961C66.2568 1.4043 66.7695 1.03809 67.1846 1.03809C67.2822 1.03809 67.3799 1.03809 67.4531 1.08691C67.7461 1.25781 67.7461 1.77051 67.7461 2.03906C67.7461 2.47852 67.6729 2.89355 67.5264 3.28418C67.209 4.1875 66.6963 5.04199 66.1836 5.87207C65.4512 7.09277 64.6455 8.26465 63.8398 9.43652C62.9854 10.6572 62.1309 11.8779 61.2275 13.0498C63.7178 13.2695 66.1592 13.7334 68.5518 14.4414C68.6738 14.4902 68.6982 14.6855 68.6982 14.9297C68.6982 15.2715 68.625 15.6865 68.5518 15.6865C66.1104 14.9541 63.5957 14.4658 61.0566 14.2705L60.373 14.2217C59.4209 15.4912 58.4688 16.7607 57.4922 18.0303C55.4902 20.6182 53.4883 23.1572 51.4619 25.6963L49.3379 28.3086L48.6299 29.627C47.2627 32.1904 45.8955 34.7295 44.5771 37.3174C44.04 38.3428 43.5029 39.3926 42.9902 40.4424C42.9658 40.4912 42.9414 40.5156 42.917 40.5156ZM38.1562 30.0664L38.1318 29.7734C38.1318 29.5293 38.1807 29.3096 38.2783 29.2852C38.3271 29.2852 38.376 29.2607 38.4004 29.2363C39.0352 28.9189 39.6455 28.5527 40.2314 28.1865C40.9883 27.7471 41.7695 27.2832 42.502 26.7949C42.8438 26.5752 43.1367 26.3555 43.3809 26.0625C43.3076 26.0137 43.21 25.9893 43.1367 25.9648C42.9658 25.916 42.7705 25.8916 42.5752 25.8916C42.2822 25.8916 41.9648 25.9404 41.6475 26.0137C39.9873 26.3799 38.4736 27.3809 37.2773 28.5527C37.082 28.748 36.8623 28.9678 36.7158 29.2119L36.8379 29.3584C37.0088 29.5049 37.2041 29.627 37.375 29.7246C37.6436 29.8467 37.8877 29.9688 38.1562 30.0664ZM51.5352 24.3291C53.9766 21.2773 56.3936 18.2256 58.8105 15.0029L59.4453 14.1729C58.7861 14.1484 58.127 14.1484 57.4434 14.1484C55.4414 17.3955 53.4883 20.8135 51.5352 24.3291ZM60.3486 13.001C61.8867 10.9502 63.376 8.875 64.8164 6.75098C65.5 5.70117 66.1592 4.67578 66.7695 3.57715C66.9648 3.21094 67.1602 2.84473 67.3066 2.42969C67.3311 2.38086 67.3555 2.33203 67.3555 2.2832L67.209 2.25879C67.0381 2.25879 66.8428 2.33203 66.6719 2.40527C65.9639 2.69824 65.3535 3.28418 64.8164 3.8457C62.8877 5.77441 61.3496 8.11816 59.8359 10.3887C59.2988 11.2188 58.7373 12.0732 58.2246 12.9277C58.9326 12.9277 59.6406 12.9521 60.3486 13.001Z" fill="white"/>
        <path d="M1.48633 58.1426V58.6426H1.69343L1.83988 58.4961L1.48633 58.1426ZM1.33984 57.7031H0.839844V57.8212L0.89263 57.9267L1.33984 57.7031ZM1.4375 56.9463L1.08395 56.5927L1.04894 56.6277L1.02147 56.6689L1.4375 56.9463ZM1.53516 56.7998L1.11763 56.5247L1.10126 56.5496L1.08794 56.5762L1.53516 56.7998ZM11.2275 41.6631L11.6495 41.9313L11.6523 41.9269L11.2275 41.6631ZM20.6514 26.3311L20.223 26.0732L20.2222 26.0745L20.6514 26.3311ZM30.8809 7.99609L30.431 7.77778L30.4285 7.7831L30.8809 7.99609ZM32.7852 3.23535L33.2674 3.36747L33.2732 3.34634L33.2771 3.32479L32.7852 3.23535ZM32.834 2.9668L32.3868 2.74319L32.3548 2.80708L32.342 2.87735L32.834 2.9668ZM32.8584 2.91797L33.3056 3.14158L33.385 2.9828L33.3465 2.8095L32.8584 2.91797ZM31.8818 2.74707L31.7996 2.25387L31.7761 2.2578L31.753 2.26395L31.8818 2.74707ZM29.8555 3.77246L30.1426 4.18182L30.1476 4.17823L29.8555 3.77246ZM25.6074 7.99609L25.9956 8.3113L25.996 8.31069L25.6074 7.99609ZM17.502 20.4229V20.9229H17.7932L17.9369 20.6695L17.502 20.4229ZM17.7461 18.6895L18.1842 18.9304L18.1846 18.9296L17.7461 18.6895ZM23.5078 9.48535L23.1013 9.19421L23.1009 9.19473L23.5078 9.48535ZM33.0537 2.01465L32.567 2.12917L32.5705 2.14386L32.5748 2.15832L33.0537 2.01465ZM32.9072 4.30957L32.4221 4.18829L32.4208 4.19376L32.9072 4.30957ZM30.3682 10.3887L30.8151 10.613L30.8166 10.6099L30.3682 10.3887ZM19.4795 29.5781L19.9066 29.8381L19.9087 29.8346L19.4795 29.5781ZM13.083 40.0029L13.5046 40.2718L13.5084 40.2657L13.083 40.0029ZM3.12207 55.6523L2.70135 55.3822L2.70093 55.3828L3.12207 55.6523ZM1.92578 57.4834L1.51232 57.2022L1.49965 57.2209L1.4887 57.2406L1.92578 57.4834ZM1.51074 58.1182L1.8643 58.4717L1.88942 58.4466L1.91074 58.4182L1.51074 58.1182ZM32.834 2.94238L33.1875 3.29594L33.212 3.27152L32.8584 2.91797L32.5048 2.56442L32.4804 2.58883L32.834 2.94238ZM32.8584 2.91797L32.5048 2.56442L32.4804 2.58883L32.834 2.94238L33.1875 3.29594L33.212 3.27152L32.8584 2.91797ZM1.48633 58.1426V57.6426C1.59842 57.6426 1.68764 57.6811 1.74681 57.7199C1.80256 57.7564 1.83711 57.7962 1.85449 57.8185C1.87298 57.8422 1.88409 57.8619 1.88934 57.8718C1.89501 57.8825 1.89804 57.8897 1.8989 57.8918C1.89928 57.8928 1.89273 57.8745 1.88148 57.8266C1.87107 57.7824 1.86258 57.7396 1.85201 57.6894C1.84736 57.6673 1.84157 57.6403 1.83539 57.6155C1.83228 57.603 1.82792 57.5862 1.82233 57.5682C1.81816 57.5547 1.80702 57.5195 1.78706 57.4795L1.33984 57.7031L0.89263 57.9267C0.867137 57.8757 0.859249 57.8339 0.864895 57.8566C0.866346 57.8624 0.868948 57.874 0.873457 57.8954C0.881198 57.9322 0.894062 57.9962 0.908067 58.0557C0.92123 58.1116 0.942151 58.194 0.97305 58.2697C0.987431 58.305 1.01589 58.3692 1.06552 58.4329C1.10439 58.4828 1.24219 58.6426 1.48633 58.6426V58.1426ZM1.33984 57.7031H1.83984V57.4834H1.33984H0.839844V57.7031H1.33984ZM1.33984 57.4834H1.83984C1.83984 57.3788 1.84063 57.3153 1.84766 57.2626C1.85415 57.214 1.8621 57.2108 1.85353 57.2236L1.4375 56.9463L1.02147 56.6689C0.823548 56.9658 0.839844 57.3313 0.839844 57.4834H1.33984ZM1.4375 56.9463L1.79105 57.2998C1.90295 57.1879 1.95786 57.0724 1.98237 57.0234L1.53516 56.7998L1.08794 56.5762C1.08478 56.5825 1.08242 56.5872 1.08014 56.5917C1.07795 56.596 1.07628 56.5993 1.07491 56.6018C1.07218 56.607 1.07122 56.6085 1.07148 56.608C1.07188 56.6074 1.07339 56.6051 1.07591 56.6018C1.07848 56.5986 1.08125 56.5954 1.08395 56.5927L1.4375 56.9463ZM1.53516 56.7998L1.95268 57.0749C6.76521 49.7706 5.81854 51.1047 11.6495 41.9313L11.2275 41.6631L10.8056 41.3949C4.96661 50.5808 5.92425 49.2294 1.11763 56.5247L1.53516 56.7998ZM11.2275 41.6631L11.6523 41.9269C15.5323 35.6798 17.1226 33.2086 21.0805 26.5876L20.6514 26.3311L20.2222 26.0745C16.27 32.686 14.6864 35.1464 10.8028 41.3993L11.2275 41.6631ZM20.6514 26.3311L21.0798 26.5889C24.1777 21.442 28.5617 14.0956 31.3332 8.20908L30.8809 7.99609L30.4285 7.7831C27.6825 13.6153 23.3262 20.9174 20.223 26.0732L20.6514 26.3311ZM30.8809 7.99609L31.3307 8.21439C32.1386 6.54967 32.7662 5.1967 33.2674 3.36747L32.7852 3.23535L32.3029 3.10323C31.8275 4.83846 31.2345 6.12221 30.431 7.77779L30.8809 7.99609ZM32.7852 3.23535L33.2771 3.32479L33.3259 3.05624L32.834 2.9668L32.342 2.87735L32.2932 3.14591L32.7852 3.23535ZM32.834 2.9668L33.2812 3.1904L33.3056 3.14158L32.8584 2.91797L32.4112 2.69436L32.3868 2.74319L32.834 2.9668ZM32.8584 2.91797L33.3465 2.8095C33.3019 2.60871 33.1923 2.38462 32.9368 2.26243C32.7483 2.17228 32.5356 2.17383 32.4189 2.17383V2.67383V3.17383C32.4822 3.17383 32.5167 3.17549 32.5372 3.17783C32.5576 3.18017 32.5392 3.18075 32.5053 3.16457C32.4869 3.15575 32.4656 3.14279 32.4443 3.1246C32.4228 3.10632 32.4058 3.08656 32.3931 3.06776C32.3689 3.03206 32.3666 3.00971 32.3703 3.02643L32.8584 2.91797ZM32.4189 2.67383V2.17383C32.193 2.17383 31.8985 2.2374 31.7996 2.25387L31.8818 2.74707L31.964 3.24027C32.1582 3.20791 32.3031 3.17383 32.4189 3.17383V2.67383ZM31.8818 2.74707L31.753 2.26395C30.939 2.48103 30.1991 2.90892 29.5633 3.36669L29.8555 3.77246L30.1476 4.17823C30.7325 3.75709 31.3599 3.40374 32.0107 3.23019L31.8818 2.74707ZM29.8555 3.77246L29.5683 3.36313C27.8729 4.55248 26.4698 6.13616 25.2188 7.68149L25.6074 7.99609L25.996 8.31069C27.2353 6.77985 28.5666 5.28736 30.1426 4.18179L29.8555 3.77246ZM25.6074 7.99609L25.2193 7.68089C21.9195 11.744 19.7539 15.4376 17.067 20.1762L17.502 20.4229L17.9369 20.6695C20.6211 15.9354 22.7523 12.3048 25.9956 8.3113L25.6074 7.99609ZM17.502 20.4229V19.9229C17.6127 19.9229 17.6994 19.9605 17.7548 19.9954C17.8077 20.0288 17.8412 20.0649 17.8582 20.0852C17.8763 20.1068 17.8874 20.1248 17.8928 20.1339C17.8985 20.1437 17.9016 20.1504 17.9026 20.1524C17.9032 20.1539 17.8958 20.1359 17.8846 20.0935C17.8747 20.0559 17.8659 20.0152 17.8598 19.9821C17.8568 19.9656 17.8549 19.9537 17.8539 19.9471C17.8535 19.9437 17.8535 19.9438 17.8538 19.9466C17.854 19.9481 17.8543 19.9516 17.8546 19.9566C17.8549 19.9609 17.8555 19.9706 17.8555 19.9834H17.3555H16.8555C16.8555 20.0496 16.8701 20.1295 16.8763 20.1632C16.8863 20.2171 16.9004 20.2832 16.9179 20.3494C16.9341 20.4107 16.9588 20.4934 16.9938 20.5697C17.0102 20.6054 17.0408 20.6666 17.0911 20.7267C17.1283 20.7713 17.2652 20.9229 17.502 20.9229V20.4229ZM17.3555 19.9834H17.8555V19.7637H17.3555H16.8555V19.9834H17.3555ZM17.3555 19.7637H17.8555C17.8555 19.5068 17.8826 19.4446 17.9013 19.4053C17.9182 19.3698 17.9417 19.3314 17.9944 19.2481C18.0439 19.1697 18.1091 19.067 18.1842 18.9304L17.7461 18.6895L17.308 18.4485C17.2488 18.5561 17.198 18.6364 17.1492 18.7137C17.1034 18.786 17.046 18.8758 16.9988 18.9746C16.8894 19.2038 16.8555 19.4346 16.8555 19.7637H17.3555ZM17.7461 18.6895L18.1846 18.9296C19.8601 15.8701 21.9736 12.4935 23.9147 9.77597L23.5078 9.48535L23.1009 9.19473C21.1358 11.946 19.0012 15.3565 17.3075 18.4493L17.7461 18.6895ZM23.5078 9.48535L23.9143 9.77649C25.2014 7.97945 26.5748 6.22219 28.1094 4.68754L27.7559 4.33398L27.4023 3.98043C25.812 5.57078 24.4021 7.37797 23.1013 9.19421L23.5078 9.48535ZM27.7559 4.33398L28.1094 4.68754C28.6748 4.12212 29.4263 3.42529 30.2154 2.87287C31.0237 2.30711 31.7881 1.95312 32.3945 1.95312V1.45312V0.953125C31.4629 0.953125 30.4817 1.46584 29.642 2.05364C28.7832 2.65478 27.9843 3.39839 27.4023 3.98043L27.7559 4.33398ZM32.3945 1.45312V1.95312C32.4772 1.95312 32.4977 1.97151 32.4981 1.97178C32.5003 1.97348 32.5088 1.9805 32.521 2.00161C32.5339 2.02398 32.5516 2.06365 32.567 2.12917L33.0537 2.01465L33.5404 1.90013C33.4734 1.61532 33.3409 1.36179 33.115 1.18472C32.8895 1.00799 32.6292 0.953125 32.3945 0.953125V1.45312ZM33.0537 2.01465L32.5748 2.15832C32.6293 2.33991 32.6514 2.55595 32.6514 2.77148H33.1514H33.6514C33.6514 2.49874 33.6246 2.17767 33.5326 1.87097L33.0537 2.01465ZM33.1514 2.77148H32.6514C32.6514 3.23933 32.5451 3.69659 32.4222 4.1883L32.9072 4.30957L33.3923 4.43084C33.5135 3.94599 33.6514 3.37786 33.6514 2.77148H33.1514ZM32.9072 4.30957L32.4208 4.19376C31.9489 6.1759 30.8352 8.31189 29.9198 10.1675L30.3682 10.3887L30.8166 10.6099C31.7078 8.80335 32.889 6.5448 33.3936 4.42538L32.9072 4.30957ZM30.3682 10.3887L29.9213 10.1644C26.6842 16.6142 22.8619 22.9446 19.0503 29.3216L19.4795 29.5781L19.9087 29.8346C23.7143 23.4675 27.558 17.1026 30.815 10.613L30.3682 10.3887ZM19.4795 29.5781L19.0524 29.3182C14.9516 36.0552 17.0762 32.5874 12.6576 39.7402L13.083 40.0029L13.5084 40.2657C17.9277 33.1118 15.8043 36.5776 19.9066 29.8381L19.4795 29.5781ZM13.083 40.0029L12.6614 39.7341C8.01902 47.0153 7.60898 47.7399 2.70135 55.3822L3.12207 55.6523L3.54279 55.9225C8.44961 48.2815 8.86965 47.5413 13.5046 40.2717L13.083 40.0029ZM3.12207 55.6523L2.70093 55.3828C2.30974 55.9941 1.92281 56.5986 1.51232 57.2022L1.92578 57.4834L2.33924 57.7646C2.75884 57.1475 3.15316 56.5313 3.54321 55.9219L3.12207 55.6523ZM1.92578 57.4834L1.4887 57.2406C1.37956 57.437 1.24613 57.6377 1.11074 57.8182L1.51074 58.1182L1.91074 58.4182C2.06833 58.2081 2.22786 57.9692 2.36286 57.7262L1.92578 57.4834ZM1.51074 58.1182L1.15719 57.7646L1.13277 57.789L1.48633 58.1426L1.83988 58.4961L1.8643 58.4717L1.51074 58.1182ZM42.7949 40.2227H43.2949V40.208L43.2941 40.1933L42.7949 40.2227ZM42.7705 39.8076H42.2705V39.8223L42.2714 39.837L42.7705 39.8076ZM42.8438 39.3926L43.291 39.6162L43.296 39.606L43.3007 39.5956L42.8438 39.3926ZM42.9414 39.1729L42.4966 38.9445L42.4902 38.957L42.4845 38.9698L42.9414 39.1729ZM45.2852 34.6074L44.8432 34.3736L44.8403 34.3791L45.2852 34.6074ZM47.7266 29.9932L48.1685 30.227L47.373 29.6396L47.7266 29.9932ZM47.5801 30.1396L47.9039 30.5206L47.9193 30.5075L47.9336 30.4932L47.5801 30.1396ZM41.2568 34.4854L41.5049 34.9195L41.5106 34.9162L41.2568 34.4854ZM34.9824 37.7324L34.7755 37.2771L34.7655 37.2819L34.9824 37.7324ZM32.9316 38.5869L32.7686 38.1142L32.7572 38.1182L32.7459 38.1227L32.9316 38.5869ZM32.0771 38.709L31.6484 38.9662L31.6545 38.9764L31.6611 38.9863L32.0771 38.709ZM32.0771 37.6348L32.5414 37.8205L32.5468 37.8068L32.5515 37.7929L32.0771 37.6348ZM32.1748 37.4883L32.5284 37.8418L32.5444 37.8258L32.5589 37.8084L32.1748 37.4883ZM32.6631 37.1465L32.9112 37.5806L32.9197 37.5757L32.9281 37.5705L32.6631 37.1465ZM35.1289 35.7793L34.8987 35.3354L34.895 35.3374L35.1289 35.7793ZM39.0352 33.6309L39.3125 34.0469L39.3218 34.0407L39.3308 34.0341L39.0352 33.6309ZM40.085 32.7764L39.7726 32.3859L39.751 32.4032L39.7314 32.4228L40.085 32.7764ZM40.4268 32.3857L40.8428 32.6631L41.0971 32.2817L40.7391 31.9953L40.4268 32.3857ZM40.1826 32.1904L40.495 31.8L40.478 31.7864L40.46 31.7744L40.1826 32.1904ZM38.791 31.5312L38.985 31.0704L38.9774 31.0672L38.9696 31.0642L38.791 31.5312ZM36.3984 29.8955L35.9102 30.004L35.9127 30.014L36.3984 29.8955ZM36.8379 27.7471L36.4524 27.4286L36.4519 27.4292L36.8379 27.7471ZM38.4492 26.3311L38.1559 25.9261L38.152 25.929L38.4492 26.3311ZM40.7441 25.0615L40.5686 24.5933L40.5656 24.5945L40.7441 25.0615ZM42.5996 24.6709L42.6352 24.1722L42.6174 24.1709H42.5996V24.6709ZM43.6494 25.0371L43.2653 25.3572L43.2704 25.3633L43.2757 25.3693L43.6494 25.0371ZM43.7959 26.6973L44.2679 26.8625L44.2702 26.8554L43.7959 26.6973ZM42.7949 27.8203L42.5066 27.4118L42.4996 27.4168L42.4927 27.422L42.7949 27.8203ZM40.5 29.2607L40.2446 28.8307L40.233 28.838L40.5 29.2607ZM39.0596 30.1152L39.2832 30.5624L39.3004 30.5539L39.3168 30.544L39.0596 30.1152ZM38.7422 30.2861L38.5565 29.8219L37.3675 30.2975L38.5642 30.7534L38.7422 30.2861ZM40.8662 32.166H41.3662V32.1433L41.3642 32.1207L40.8662 32.166ZM40.3535 33.7529L39.9786 33.4221L40.5954 34.1906L40.3535 33.7529ZM43.0879 32.1416L42.8201 31.7193L42.8187 31.7203L43.0879 32.1416ZM48.7031 27.8203L49.0592 28.1713L49.0745 28.1558L49.0883 28.1391L48.7031 27.8203ZM49.2891 27.1123L49.6743 27.4311L49.7107 27.387L49.7363 27.3359L49.2891 27.1123ZM49.8994 25.9893L50.3282 26.2465L50.334 26.2367L50.3394 26.2267L49.8994 25.9893ZM55.6123 15.9062L56.0419 16.1621L56.0426 16.1608L55.6123 15.9062ZM56.6377 14.1729L57.068 14.4274L57.5348 13.6384L56.6187 13.6732L56.6377 14.1729ZM50.876 14.832L50.7815 14.341L50.7762 14.3421L50.876 14.832ZM46.9209 15.9307V16.4307H47.018L47.1081 16.3943L46.9209 15.9307ZM46.9209 14.71L47.0422 15.195L47.0727 15.1874L47.1021 15.176L46.9209 14.71ZM48.2393 14.2705L48.3731 14.7524L48.3834 14.7493L48.2393 14.2705ZM56.0029 12.9766L55.9767 12.4773L55.9749 12.4773L56.0029 12.9766ZM57.3945 12.9277V13.4277H57.6731L57.8197 13.1909L57.3945 12.9277ZM61.3252 6.89746L60.9189 6.60596L60.9139 6.61312L61.3252 6.89746ZM63.8643 3.62598L64.2433 3.95214L64.2484 3.94607L63.8643 3.62598ZM65.9639 1.59961L65.6865 1.1835L65.678 1.18941L65.9639 1.59961ZM67.4531 1.08691L67.1758 1.50294L67.1882 1.51125L67.2012 1.5188L67.4531 1.08691ZM67.5264 3.28418L67.0581 3.10858L67.0546 3.11844L67.5264 3.28418ZM66.1836 5.87207L65.7582 5.6093L65.7548 5.61482L66.1836 5.87207ZM63.8398 9.43652L64.2495 9.72326L64.2519 9.71979L63.8398 9.43652ZM61.2275 13.0498L60.8315 12.7446L60.2742 13.4676L61.1836 13.5479L61.2275 13.0498ZM68.5518 14.4414L68.7375 13.9772L68.7159 13.9685L68.6936 13.962L68.5518 14.4414ZM68.5518 15.6865L68.4081 16.1654L68.4784 16.1865H68.5518V15.6865ZM61.0566 14.2705L61.095 13.772L61.0923 13.7718L61.0566 14.2705ZM60.373 14.2217L60.4087 13.723L60.1367 13.7035L59.973 13.9217L60.373 14.2217ZM57.4922 18.0303L57.8877 18.3362L57.8885 18.3351L57.4922 18.0303ZM51.4619 25.6963L51.8499 26.0117L51.8527 26.0082L51.4619 25.6963ZM49.3379 28.3086L48.9499 27.9932L48.9199 28.0301L48.8974 28.072L49.3379 28.3086ZM48.6299 29.627L48.1894 29.3904L48.1887 29.3917L48.6299 29.627ZM44.5771 37.3174L45.0201 37.5494L45.0227 37.5443L44.5771 37.3174ZM42.9902 40.4424L43.4375 40.666L43.4395 40.6618L42.9902 40.4424ZM38.1562 30.0664L37.9854 30.5363L38.7194 30.8032L38.6545 30.0249L38.1562 30.0664ZM38.1318 29.7734H37.6318V29.7942L37.6336 29.815L38.1318 29.7734ZM38.2783 29.2852V28.7852H38.2168L38.1571 28.8001L38.2783 29.2852ZM38.4004 29.2363L38.1768 28.7891L38.1042 28.8254L38.0468 28.8828L38.4004 29.2363ZM40.2314 28.1865L39.9804 27.7541L39.9733 27.7582L39.9664 27.7625L40.2314 28.1865ZM42.502 26.7949L42.2315 26.3743L42.2246 26.3789L42.502 26.7949ZM43.3809 26.0625L43.765 26.3826L44.1212 25.9551L43.6582 25.6465L43.3809 26.0625ZM43.1367 25.9648L43.2948 25.4905L43.2845 25.4871L43.2741 25.4841L43.1367 25.9648ZM41.6475 26.0137L41.7552 26.502L41.7599 26.5009L41.6475 26.0137ZM37.2773 28.5527L36.9274 28.1955L36.9238 28.1992L37.2773 28.5527ZM36.7158 29.2119L36.2871 28.9547L36.1044 29.2592L36.3317 29.532L36.7158 29.2119ZM36.8379 29.3584L36.4538 29.6785L36.4806 29.7107L36.5125 29.738L36.8379 29.3584ZM37.375 29.7246L37.1269 30.1587L37.147 30.1702L37.1681 30.1798L37.375 29.7246ZM51.5352 24.3291L51.0981 24.0863L51.9256 24.6414L51.5352 24.3291ZM58.8105 15.0029L58.4134 14.6992L58.4105 14.7029L58.8105 15.0029ZM59.4453 14.1729L59.8425 14.4766L60.4295 13.709L59.4638 13.6732L59.4453 14.1729ZM57.4434 14.1484V13.6484H57.1642L57.0178 13.886L57.4434 14.1484ZM60.3486 13.001L60.3142 13.4998L60.5855 13.5185L60.7486 13.301L60.3486 13.001ZM64.8164 6.75098L65.2303 7.03166L65.2354 7.02381L64.8164 6.75098ZM66.7695 3.57715L67.2067 3.82001L67.2107 3.81244L66.7695 3.57715ZM67.3066 2.42969L66.8594 2.20608L66.8455 2.23392L66.8351 2.26328L67.3066 2.42969ZM67.3555 2.2832H67.8555V1.85964L67.4377 1.79001L67.3555 2.2832ZM67.209 2.25879L67.2912 1.76559L67.2504 1.75879H67.209V2.25879ZM66.6719 2.40527L66.8631 2.86732L66.8688 2.86485L66.6719 2.40527ZM64.8164 3.8457L65.17 4.19934L65.1777 4.19131L64.8164 3.8457ZM59.8359 10.3887L59.4199 10.1113L59.4162 10.117L59.8359 10.3887ZM58.2246 12.9277L57.7959 12.6705L57.3415 13.4277H58.2246V12.9277ZM42.917 40.5156V40.0156C43.0397 40.0156 43.1325 40.0631 43.1874 40.1036C43.239 40.1416 43.2678 40.1805 43.2797 40.1978C43.3025 40.2311 43.307 40.251 43.3028 40.2385C43.3006 40.2317 43.2975 40.2201 43.2953 40.2083C43.2922 40.1916 43.2949 40.1977 43.2949 40.2227H42.7949H42.2949C42.2949 40.327 42.3209 40.4549 42.3541 40.5547C42.3713 40.6063 42.4018 40.6857 42.4544 40.7625C42.4899 40.8144 42.6371 41.0156 42.917 41.0156V40.5156ZM42.7949 40.2227L43.2941 40.1933L43.2696 39.7783L42.7705 39.8076L42.2714 39.837L42.2958 40.252L42.7949 40.2227ZM42.7705 39.8076H43.2705C43.2705 39.7449 43.2751 39.6948 43.2814 39.6583C43.2882 39.6196 43.2947 39.6087 43.291 39.6162L42.8438 39.3926L42.3965 39.169C42.297 39.368 42.2705 39.6051 42.2705 39.8076H42.7705ZM42.8438 39.3926L43.3007 39.5956L43.3983 39.3759L42.9414 39.1729L42.4845 38.9698L42.3868 39.1895L42.8438 39.3926ZM42.9414 39.1729L43.3862 39.4012L45.73 34.8358L45.2852 34.6074L44.8403 34.3791L42.4966 38.9445L42.9414 39.1729ZM45.2852 34.6074L45.7271 34.8413L48.1685 30.227L47.7266 29.9932L47.2846 29.7593L44.8432 34.3736L45.2852 34.6074ZM47.7266 29.9932L47.373 29.6396L47.2265 29.7861L47.5801 30.1396L47.9336 30.4932L48.0801 30.3467L47.7266 29.9932ZM47.5801 30.1396L47.2563 29.7587C45.3357 31.3911 43.1917 32.7657 41.0031 34.0545L41.2568 34.4854L41.5106 34.9162C43.7165 33.6171 45.9182 32.2085 47.9039 30.5206L47.5801 30.1396ZM41.2568 34.4854L41.0088 34.0512C38.967 35.2179 36.906 36.3088 34.7755 37.2772L34.9824 37.7324L35.1893 38.1876C37.3557 37.2029 39.4451 36.0965 41.5049 34.9195L41.2568 34.4854ZM34.9824 37.7324L34.7655 37.2819C34.1194 37.593 33.4541 37.8778 32.7686 38.1142L32.9316 38.5869L33.0946 39.0596C33.8251 38.8077 34.527 38.5066 35.1993 38.1829L34.9824 37.7324ZM32.9316 38.5869L32.7459 38.1227C32.7014 38.1405 32.6423 38.1679 32.6011 38.1867C32.5523 38.2089 32.5029 38.2309 32.453 38.2508C32.4026 38.271 32.3583 38.2864 32.3214 38.2963C32.2819 38.3069 32.2674 38.3066 32.2725 38.3066V38.8066V39.3066C32.4856 39.3066 32.6969 39.2303 32.8244 39.1793C32.8965 39.1505 32.9631 39.1206 33.0149 39.097C33.0745 39.07 33.1009 39.0577 33.1173 39.0512L32.9316 38.5869ZM32.2725 38.8066V38.3066C32.2603 38.3066 32.312 38.304 32.3801 38.3381C32.454 38.375 32.489 38.4254 32.4932 38.4316L32.0771 38.709L31.6611 38.9863C31.7141 39.0658 31.798 39.165 31.9329 39.2325C32.062 39.297 32.187 39.3066 32.2725 39.3066V38.8066ZM32.0771 38.709L32.5059 38.4517C32.5135 38.4644 32.5034 38.4522 32.4936 38.3951C32.4846 38.3429 32.4795 38.2752 32.4795 38.1963H31.9795H31.4795C31.4795 38.4012 31.4995 38.7181 31.6484 38.9662L32.0771 38.709ZM31.9795 38.1963H32.4795C32.4795 38.1218 32.4879 38.0431 32.5014 37.9711C32.5153 37.897 32.5319 37.8443 32.5414 37.8205L32.0771 37.6348L31.6129 37.4491C31.5392 37.6333 31.4795 37.9163 31.4795 38.1963H31.9795ZM32.0771 37.6348L32.5515 37.7929C32.5524 37.7902 32.5507 37.7958 32.5456 37.8063C32.54 37.8178 32.5326 37.8305 32.5237 37.843C32.5154 37.8546 32.5091 37.8614 32.5093 37.8612C32.5095 37.8609 32.5108 37.8595 32.5142 37.856C32.5178 37.8524 32.5219 37.8483 32.5284 37.8418L32.1748 37.4883L31.8213 37.1347C31.8038 37.1522 31.7538 37.2004 31.71 37.2617C31.6588 37.3334 31.6265 37.4056 31.6028 37.4767L32.0771 37.6348ZM32.1748 37.4883L32.5589 37.8084C32.6073 37.7503 32.692 37.7058 32.9112 37.5806L32.6631 37.1465L32.415 36.7124C32.2924 36.7825 31.9864 36.9333 31.7907 37.1682L32.1748 37.4883ZM32.6631 37.1465L32.9281 37.5705C33.6901 37.0942 34.524 36.6653 35.3629 36.2212L35.1289 35.7793L34.895 35.3374C34.0736 35.7722 33.1986 36.2222 32.3981 36.7225L32.6631 37.1465ZM35.1289 35.7793L35.3591 36.2232C36.6554 35.551 38.0374 34.897 39.3125 34.0469L39.0352 33.6309L38.7578 33.2148C37.5427 34.0249 36.2392 34.6404 34.8987 35.3354L35.1289 35.7793ZM39.0352 33.6309L39.3308 34.0341C39.6916 33.7695 40.0895 33.4789 40.4385 33.1299L40.085 32.7764L39.7314 32.4228C39.4457 32.7086 39.1112 32.9551 38.7395 33.2277L39.0352 33.6309ZM40.085 32.7764L40.3973 33.1668C40.5737 33.0257 40.7288 32.8341 40.8428 32.6631L40.4268 32.3857L40.0107 32.1084C39.9294 32.2303 39.8404 32.3317 39.7726 32.3859L40.085 32.7764ZM40.4268 32.3857L40.7391 31.9953L40.495 31.8L40.1826 32.1904L39.8703 32.5809L40.1144 32.7762L40.4268 32.3857ZM40.1826 32.1904L40.46 31.7744C39.9687 31.4469 39.4108 31.2497 38.985 31.0704L38.791 31.5312L38.597 31.9921C39.099 32.2034 39.5176 32.348 39.9053 32.6065L40.1826 32.1904ZM38.791 31.5312L38.9696 31.0642C38.5018 30.8854 38.0372 30.7532 37.6079 30.5273C37.1916 30.3082 36.9557 30.0701 36.8842 29.777L36.3984 29.8955L35.9127 30.014C36.0853 30.7219 36.6307 31.143 37.1421 31.4122C37.6405 31.6745 38.2502 31.8598 38.6124 31.9983L38.791 31.5312ZM36.3984 29.8955L36.8865 29.787C36.8454 29.6021 36.8252 29.4187 36.8252 29.2363H36.3252H35.8252C35.8252 29.4934 35.8538 29.7495 35.9103 30.004L36.3984 29.8955ZM36.3252 29.2363H36.8252C36.8252 28.8013 36.9642 28.3803 37.2239 28.0649L36.8379 27.7471L36.4519 27.4292C36.028 27.9439 35.8252 28.5971 35.8252 29.2363H36.3252ZM36.8379 27.7471L37.2234 28.0655C37.6426 27.558 38.1795 27.1521 38.7464 26.7331L38.4492 26.3311L38.152 25.929C37.5958 26.3401 36.9609 26.8131 36.4524 27.4286L36.8379 27.7471ZM38.4492 26.3311L38.7425 26.736C39.4235 26.2429 40.142 25.827 40.9227 25.5285L40.7441 25.0615L40.5656 24.5945C39.6861 24.9308 38.891 25.3938 38.156 25.9261L38.4492 26.3311ZM40.7441 25.0615L40.9197 25.5297C41.4795 25.3198 42.0502 25.1709 42.5996 25.1709V24.6709V24.1709C41.8795 24.1709 41.1806 24.3638 40.5686 24.5934L40.7441 25.0615ZM42.5996 24.6709L42.564 25.1696C42.7327 25.1817 42.8912 25.1977 43.0289 25.2355C43.168 25.2736 43.2348 25.3205 43.2653 25.3572L43.6494 25.0371L44.0335 24.717C43.8199 24.4607 43.5327 24.3367 43.2933 24.2711C43.0527 24.2051 42.8083 24.1845 42.6352 24.1722L42.5996 24.6709ZM43.6494 25.0371L43.2757 25.3693C43.3539 25.4573 43.418 25.6293 43.418 25.916H43.918H44.418C44.418 25.5191 44.3355 25.0564 44.0231 24.7049L43.6494 25.0371ZM43.918 25.916H43.418C43.418 26.1329 43.3771 26.3724 43.3216 26.5392L43.7959 26.6973L44.2702 26.8554C44.3611 26.5827 44.418 26.2362 44.418 25.916H43.918ZM43.7959 26.6973L43.324 26.5321C43.2102 26.8571 42.9195 27.1204 42.5066 27.4118L42.7949 27.8203L43.0833 28.2288C43.5004 27.9343 44.0398 27.514 44.2678 26.8624L43.7959 26.6973ZM42.7949 27.8203L42.4927 27.422C41.8144 27.9366 41.0483 28.3537 40.2447 28.8308L40.5 29.2607L40.7553 29.6907C41.5142 29.2401 42.3594 28.7783 43.0971 28.2187L42.7949 27.8203ZM40.5 29.2607L40.233 28.838C39.7713 29.1296 39.3165 29.378 38.8023 29.6865L39.0596 30.1152L39.3168 30.544C39.7792 30.2665 40.3009 29.9778 40.767 29.6835L40.5 29.2607ZM39.0596 30.1152L38.836 29.668C38.7669 29.7026 38.6919 29.7489 38.6565 29.7697C38.6105 29.7968 38.5816 29.8118 38.5565 29.8219L38.7422 30.2861L38.9279 30.7504C39.0248 30.7116 39.1058 30.6656 39.1635 30.6317C39.232 30.5914 39.2546 30.5767 39.2832 30.5624L39.0596 30.1152ZM38.7422 30.2861L38.5642 30.7534C39.0874 30.9527 39.5453 31.1295 39.9297 31.3858L40.207 30.9697L40.4844 30.5537C39.9899 30.224 39.4223 30.0102 38.9202 29.8189L38.7422 30.2861ZM40.207 30.9697L39.9297 31.3858C40.0905 31.493 40.1819 31.5987 40.2415 31.7109C40.3039 31.8282 40.3475 31.9831 40.3683 32.2113L40.8662 32.166L41.3642 32.1207C41.3361 31.8118 41.2698 31.515 41.1247 31.2417C40.9767 30.9633 40.763 30.7394 40.4844 30.5537L40.207 30.9697ZM40.8662 32.166H40.3662V32.2881H40.8662H41.3662V32.166H40.8662ZM40.8662 32.2881H40.3662C40.3662 32.7761 40.2497 33.1149 39.9786 33.4221L40.3535 33.7529L40.7284 34.0837C41.1898 33.5609 41.3662 32.972 41.3662 32.2881H40.8662ZM40.3535 33.7529L40.5954 34.1906C41.5285 33.6749 42.4661 33.1322 43.3571 32.5629L43.0879 32.1416L42.8187 31.7203C41.9518 32.2741 41.034 32.8056 40.1117 33.3153L40.3535 33.7529ZM43.0879 32.1416L43.3557 32.5639C45.3673 31.2882 47.3587 29.8968 49.0592 28.1713L48.7031 27.8203L48.347 27.4693C46.7273 29.1129 44.8124 30.4559 42.8201 31.7193L43.0879 32.1416ZM48.7031 27.8203L49.0883 28.1391L49.6743 27.4311L49.2891 27.1123L48.9039 26.7935L48.3179 27.5015L48.7031 27.8203ZM49.2891 27.1123L49.7363 27.3359C49.9278 26.9528 50.117 26.5985 50.3282 26.2465L49.8994 25.9893L49.4707 25.732C49.2424 26.1124 49.0409 26.4906 48.8418 26.8887L49.2891 27.1123ZM49.8994 25.9893L50.3394 26.2267C52.1674 22.8389 54.0682 19.4759 56.0419 16.1621L55.6123 15.9062L55.1827 15.6504C53.2013 18.9772 51.2935 22.3525 49.4594 25.7518L49.8994 25.9893ZM55.6123 15.9062L56.0426 16.1608L57.068 14.4274L56.6377 14.1729L56.2074 13.9183L55.182 15.6517L55.6123 15.9062ZM56.6377 14.1729L56.6187 13.6732C54.6648 13.7474 52.7109 13.97 50.7816 14.341L50.876 14.832L50.9704 15.323C52.8497 14.9616 54.7532 14.7448 56.6567 14.6725L56.6377 14.1729ZM50.876 14.832L50.7762 14.3421C49.4529 14.6116 48.048 14.9362 46.7337 15.467L46.9209 15.9307L47.1081 16.3943C48.3328 15.8997 49.6623 15.5895 50.9758 15.322L50.876 14.832ZM46.9209 15.9307V15.4307C47.1073 15.4307 47.2245 15.531 47.26 15.5643C47.3043 15.6057 47.3301 15.6455 47.3401 15.6617C47.3619 15.6966 47.3726 15.7245 47.374 15.7281C47.3791 15.7411 47.3789 15.7434 47.3744 15.7267C47.3667 15.6979 47.3551 15.6465 47.3431 15.5783C47.3188 15.4404 47.2988 15.2697 47.2988 15.125H46.7988H46.2988C46.2988 15.3465 46.3277 15.5786 46.3583 15.7521C46.3737 15.8394 46.3912 15.9208 46.4086 15.9858C46.4167 16.0161 46.4282 16.0556 46.4433 16.0941C46.4497 16.1103 46.465 16.1481 46.4909 16.1896C46.503 16.2091 46.5307 16.2514 46.5768 16.2945C46.6141 16.3294 46.733 16.4307 46.9209 16.4307V15.9307ZM46.7988 15.125H47.2988C47.2988 15.0394 47.305 14.9885 47.3094 14.9701C47.3118 14.9603 47.3072 14.9879 47.2806 15.029C47.2513 15.0743 47.1773 15.1612 47.0422 15.195L46.9209 14.71L46.7996 14.2249C46.6156 14.2709 46.502 14.3914 46.4407 14.4863C46.382 14.577 46.353 14.6701 46.337 14.7367C46.3049 14.8708 46.2988 15.0153 46.2988 15.125H46.7988ZM46.9209 14.71L47.1021 15.176C47.5266 15.0109 47.9502 14.8697 48.3731 14.7523L48.2393 14.2705L48.1054 13.7887C47.6494 13.9154 47.1941 14.0672 46.7397 14.244L46.9209 14.71ZM48.2393 14.2705L48.3834 14.7493C50.852 14.0063 53.4483 13.6206 56.0309 13.4758L56.0029 12.9766L55.9749 12.4773C53.3329 12.6255 50.6558 13.021 48.0952 13.7917L48.2393 14.2705ZM56.0029 12.9766L56.0292 13.4759C56.4953 13.4513 56.946 13.4277 57.3945 13.4277V12.9277V12.4277C56.9153 12.4277 56.4383 12.453 55.9767 12.4773L56.0029 12.9766ZM57.3945 12.9277L57.8197 13.1909C59.0858 11.1456 60.3751 9.1509 61.7365 7.1818L61.3252 6.89746L60.9139 6.61312C59.5409 8.5991 58.2423 10.6084 56.9694 12.6646L57.3945 12.9277ZM61.3252 6.89746L61.7315 7.18891C62.5327 6.07202 63.3533 4.98641 64.2433 3.9521L63.8643 3.62598L63.4853 3.29986C62.5686 4.36516 61.729 5.47681 60.9189 6.60601L61.3252 6.89746ZM63.8643 3.62598L64.2484 3.94607C64.8492 3.22511 65.499 2.5331 66.2498 2.00981L65.9639 1.59961L65.678 1.18941C64.8174 1.78917 64.1001 2.562 63.4801 3.30588L63.8643 3.62598ZM65.9639 1.59961L66.2412 2.01563C66.3993 1.91025 66.5748 1.78792 66.7644 1.68644C66.9639 1.57963 67.1051 1.53809 67.1846 1.53809V1.03809V0.538086C66.849 0.538086 66.5263 0.679647 66.2925 0.804773C66.0488 0.935224 65.8214 1.09366 65.6865 1.18358L65.9639 1.59961ZM67.1846 1.03809V1.53809C67.1971 1.53809 67.2074 1.53809 67.2172 1.53817C67.2269 1.53824 67.2348 1.53838 67.2416 1.5386C67.2483 1.53881 67.2532 1.53908 67.2568 1.53934C67.2604 1.5396 67.2619 1.5398 67.2619 1.5398C67.2619 1.5398 67.2598 1.53952 67.2559 1.53869C67.2521 1.53786 67.2461 1.53638 67.2385 1.53388C67.223 1.52881 67.2006 1.51948 67.1758 1.50294L67.4531 1.08691L67.7305 0.670889C67.5068 0.52179 67.2391 0.538086 67.1846 0.538086V1.03809ZM67.4531 1.08691L67.2012 1.5188C67.1564 1.49268 67.1903 1.47983 67.2192 1.62443C67.2446 1.7517 67.2461 1.89875 67.2461 2.03906H67.7461H68.2461C68.2461 1.91082 68.2476 1.66725 68.1998 1.42831C68.1554 1.20669 68.0428 0.852051 67.7051 0.655025L67.4531 1.08691ZM67.7461 2.03906H67.2461C67.2461 2.42179 67.1825 2.77708 67.0582 3.10862L67.5264 3.28418L67.9945 3.45974C68.1632 3.01003 68.2461 2.53524 68.2461 2.03906H67.7461ZM67.5264 3.28418L67.0546 3.11844C66.7576 3.96396 66.2731 4.77573 65.7582 5.60932L66.1836 5.87207L66.609 6.13482C67.1195 5.30826 67.6604 4.41104 67.9981 3.44992L67.5264 3.28418ZM66.1836 5.87207L65.7548 5.61482C65.0317 6.82005 64.2349 7.97926 63.4278 9.15326L63.8398 9.43652L64.2519 9.71979C65.0561 8.55003 65.8706 7.3655 66.6123 6.12932L66.1836 5.87207ZM63.8398 9.43652L63.4302 9.14979C62.5746 10.3721 61.7267 11.5833 60.8315 12.7446L61.2275 13.0498L61.6235 13.3551C62.5351 12.1725 63.3961 10.9423 64.2495 9.72325L63.8398 9.43652ZM61.2275 13.0498L61.1836 13.5479C63.6407 13.7647 66.0493 14.2223 68.4099 14.9209L68.5518 14.4414L68.6936 13.962C66.2691 13.2445 63.7948 12.7744 61.2715 12.5517L61.2275 13.0498ZM68.5518 14.4414L68.3661 14.9056C68.2882 14.8745 68.2379 14.8227 68.211 14.7826C68.1876 14.7478 68.1836 14.725 68.1857 14.7336C68.1874 14.7404 68.1912 14.7597 68.1941 14.7964C68.1969 14.8322 68.1982 14.876 68.1982 14.9297H68.6982H69.1982C69.1982 14.8016 69.193 14.6397 69.1558 14.491C69.1213 14.3529 69.0245 14.092 68.7375 13.9772L68.5518 14.4414ZM68.6982 14.9297H68.1982C68.1982 15.0702 68.1827 15.2286 68.161 15.3441C68.1558 15.3719 68.1508 15.3944 68.1463 15.4116C68.1416 15.4297 68.1389 15.4368 68.1394 15.4355C68.1398 15.4346 68.1422 15.4284 68.1471 15.4187C68.1517 15.4098 68.1618 15.3911 68.1791 15.368C68.1951 15.3467 68.2282 15.3067 68.2829 15.2693C68.3405 15.2298 68.4327 15.1865 68.5518 15.1865V15.6865V16.1865C68.8061 16.1865 68.9451 16.0134 68.9791 15.968C69.0278 15.9031 69.0562 15.8372 69.0717 15.7972C69.105 15.7112 69.1278 15.6142 69.1439 15.5284C69.1772 15.351 69.1982 15.1309 69.1982 14.9297H68.6982ZM68.5518 15.6865L68.6954 15.2076C66.2223 14.4657 63.6723 13.9702 61.095 13.772L61.0566 14.2705L61.0183 14.769C63.5191 14.9614 65.9984 15.4425 68.4081 16.1654L68.5518 15.6865ZM61.0566 14.2705L61.0923 13.7718L60.4087 13.723L60.373 14.2217L60.3374 14.7204L61.021 14.7692L61.0566 14.2705ZM60.373 14.2217L59.973 13.9217C59.0206 15.1916 58.0703 16.4587 57.0959 17.7254L57.4922 18.0303L57.8885 18.3351C58.8672 17.0628 59.8212 15.7908 60.773 14.5217L60.373 14.2217ZM57.4922 18.0303L57.0967 17.7243C55.0966 20.3098 53.0963 22.8469 51.0711 25.3844L51.4619 25.6963L51.8527 26.0082C53.8803 23.4676 55.8839 20.9265 57.8877 18.3362L57.4922 18.0303ZM51.4619 25.6963L51.074 25.3809L48.9499 27.9932L49.3379 28.3086L49.7258 28.624L51.8499 26.0117L51.4619 25.6963ZM49.3379 28.3086L48.8974 28.072L48.1894 29.3904L48.6299 29.627L49.0704 29.8635L49.7784 28.5452L49.3379 28.3086ZM48.6299 29.627L48.1887 29.3917C46.8229 31.9526 45.4527 34.4972 44.1316 37.0904L44.5771 37.3174L45.0227 37.5443C46.3383 34.9618 47.7025 32.4283 49.0711 29.8622L48.6299 29.627ZM44.5771 37.3174L44.1342 37.0854C43.5957 38.1135 43.0563 39.1677 42.541 40.223L42.9902 40.4424L43.4395 40.6618C43.9495 39.6175 44.4844 38.572 45.0201 37.5494L44.5771 37.3174ZM42.9902 40.4424L42.543 40.2188C42.5441 40.2166 42.5482 40.2087 42.5559 40.1971C42.5633 40.1859 42.5776 40.1663 42.6001 40.1438C42.6424 40.1015 42.7498 40.0156 42.917 40.0156V40.5156V41.0156C43.1086 41.0156 43.2405 40.9176 43.3072 40.8509C43.3728 40.7852 43.4135 40.7139 43.4374 40.666L42.9902 40.4424ZM38.1562 30.0664L38.6545 30.0249L38.6301 29.7319L38.1318 29.7734L37.6336 29.815L37.658 30.1079L38.1562 30.0664ZM38.1318 29.7734H38.6318C38.6318 29.6782 38.642 29.6105 38.6505 29.5799C38.655 29.5633 38.6529 29.5804 38.632 29.6121C38.6129 29.6412 38.543 29.7344 38.3996 29.7702L38.2783 29.2852L38.1571 28.8001C37.9649 28.8481 37.8522 28.9779 37.7965 29.0627C37.739 29.1502 37.7063 29.2419 37.6865 29.3139C37.6461 29.4603 37.6318 29.6246 37.6318 29.7734H38.1318ZM38.2783 29.2852V29.7852C38.4684 29.7852 38.6421 29.7018 38.7539 29.5899L38.4004 29.2363L38.0468 28.8828C38.0875 28.8421 38.1257 28.8214 38.1516 28.8103C38.1796 28.7983 38.2223 28.7852 38.2783 28.7852V29.2852ZM38.4004 29.2363L38.624 29.6835C39.2802 29.3554 39.9065 28.9792 40.4964 28.6105L40.2314 28.1865L39.9664 27.7625C39.3845 28.1262 38.7901 28.4825 38.1768 28.7891L38.4004 29.2363ZM40.2314 28.1865L40.4825 28.6189C41.241 28.1785 42.0334 27.7082 42.7793 27.2109L42.502 26.7949L42.2246 26.3789C41.5057 26.8582 40.7356 27.3156 39.9804 27.7541L40.2314 28.1865ZM42.502 26.7949L42.7723 27.2155C43.1303 26.9854 43.4728 26.7332 43.765 26.3826L43.3809 26.0625L42.9967 25.7424C42.8006 25.9777 42.5572 26.165 42.2316 26.3743L42.502 26.7949ZM43.3809 26.0625L43.6582 25.6465C43.5116 25.5488 43.3092 25.4953 43.2948 25.4905L43.1367 25.9648L42.9786 26.4392C43.0022 26.4471 43.0292 26.4554 43.0453 26.4605C43.0646 26.4665 43.0785 26.4711 43.0906 26.4754C43.1177 26.485 43.1164 26.4871 43.1035 26.4785L43.3809 26.0625ZM43.1367 25.9648L43.2741 25.4841C43.0518 25.4206 42.8094 25.3916 42.5752 25.3916V25.8916V26.3916C42.7316 26.3916 42.8799 26.4115 42.9994 26.4456L43.1367 25.9648ZM42.5752 25.8916V25.3916C42.2305 25.3916 41.8727 25.4485 41.535 25.5265L41.6475 26.0137L41.7599 26.5009C42.057 26.4323 42.3339 26.3916 42.5752 26.3916V25.8916ZM41.6475 26.0137L41.5398 25.5254C39.7598 25.918 38.1663 26.982 36.9275 28.1956L37.2773 28.5527L37.6272 28.9099C38.781 27.7797 40.2148 26.8417 41.7552 26.5019L41.6475 26.0137ZM37.2773 28.5527L36.9238 28.1992C36.7377 28.3853 36.4709 28.6483 36.2871 28.9547L36.7158 29.2119L37.1446 29.4692C37.2537 29.2873 37.4264 29.1108 37.6309 28.9063L37.2773 28.5527ZM36.7158 29.2119L36.3317 29.532L36.4538 29.6785L36.8379 29.3584L37.222 29.0383L37.0999 28.8918L36.7158 29.2119ZM36.8379 29.3584L36.5125 29.738C36.7188 29.9148 36.9457 30.0552 37.1269 30.1587L37.375 29.7246L37.6231 29.2905C37.4625 29.1987 37.2988 29.0949 37.1633 28.9788L36.8379 29.3584ZM37.375 29.7246L37.1681 30.1798C37.4152 30.2921 37.6924 30.4298 37.9854 30.5363L38.1562 30.0664L38.3271 29.5965C38.0829 29.5077 37.8719 29.4013 37.5819 29.2694L37.375 29.7246ZM51.5352 24.3291L51.9256 24.6414C54.3677 21.5888 56.7887 18.5321 59.2105 15.3029L58.8105 15.0029L58.4105 14.7029C55.9984 17.9191 53.5854 20.9659 51.1447 24.0168L51.5352 24.3291ZM58.8105 15.0029L59.2077 15.3067L59.8425 14.4766L59.4453 14.1729L59.0481 13.8691L58.4134 14.6992L58.8105 15.0029ZM59.4453 14.1729L59.4638 13.6732C58.7938 13.6484 58.1253 13.6484 57.4434 13.6484V14.1484V14.6484C58.1286 14.6484 58.7784 14.6485 59.4268 14.6725L59.4453 14.1729ZM57.4434 14.1484L57.0178 13.886C55.0101 17.1423 53.0528 20.5677 51.0981 24.0863L51.5352 24.3291L51.9722 24.5719C53.9237 21.0592 55.8727 17.6487 57.869 14.4108L57.4434 14.1484ZM60.3486 13.001L60.7486 13.301C62.2909 11.2446 63.7848 9.16293 65.2302 7.03161L64.8164 6.75098L64.4026 6.47034C62.9671 8.58707 61.4825 10.6558 59.9486 12.701L60.3486 13.001ZM64.8164 6.75098L65.2354 7.02381C65.9191 5.97389 66.5869 4.93547 67.2066 3.81997L66.7695 3.57715L66.3325 3.33433C65.7315 4.41609 65.0809 5.42845 64.3974 6.47814L64.8164 6.75098ZM66.7695 3.57715L67.2107 3.81244C67.4038 3.45039 67.6172 3.05212 67.7781 2.5961L67.3066 2.42969L66.8351 2.26328C66.7031 2.63734 66.5259 2.97148 66.3284 3.34185L66.7695 3.57715ZM67.3066 2.42969L67.7539 2.65329C67.7638 2.63349 67.8555 2.47303 67.8555 2.2832H67.3555H66.8555C66.8555 2.22571 66.8696 2.18753 66.872 2.18088C66.8737 2.17654 66.8742 2.17585 66.8718 2.18085C66.8693 2.18635 66.866 2.19288 66.8594 2.20608L67.3066 2.42969ZM67.3555 2.2832L67.4377 1.79001L67.2912 1.76559L67.209 2.25879L67.1268 2.75199L67.2733 2.7764L67.3555 2.2832ZM67.209 2.25879V1.75879C66.923 1.75879 66.6404 1.87479 66.4749 1.9457L66.6719 2.40527L66.8688 2.86485C67.0452 2.78928 67.1532 2.75879 67.209 2.75879V2.25879ZM66.6719 2.40527L66.4807 1.94327C65.6648 2.28089 64.9902 2.94062 64.4551 3.50009L64.8164 3.8457L65.1777 4.19131C65.7168 3.62774 66.263 3.1156 66.8631 2.86728L66.6719 2.40527ZM64.8164 3.8457L64.4629 3.49215C62.4923 5.4627 60.9264 7.85157 59.4199 10.1113L59.8359 10.3887L60.252 10.666C61.7728 8.38476 63.2831 6.08613 65.17 4.19926L64.8164 3.8457ZM59.8359 10.3887L59.4162 10.117C58.882 10.9426 58.3141 11.8067 57.7959 12.6705L58.2246 12.9277L58.6534 13.185C59.1605 12.3398 59.7157 11.4949 60.2557 10.6603L59.8359 10.3887ZM58.2246 12.9277V13.4277C58.9211 13.4277 59.6176 13.4518 60.3142 13.4998L60.3486 13.001L60.383 12.5022C59.6636 12.4525 58.9441 12.4277 58.2246 12.4277V12.9277Z" fill="white"/>
    </g>
</svg>
