<svg width="162" height="134" viewBox="0 0 162 134" fill="none" xmlns="http://www.w3.org/2000/svg">
  <path d="M0.651611 126C0.651611 130.418 4.23333 134 8.65161 134C13.0699 134 16.6516 130.418 16.6516 126C16.6516 121.582 13.0699 118 8.65161 118C4.23333 118 0.651611 121.582 0.651611 126ZM100.209 2L100.209 0.5L100.209 2ZM8.65161 126V127.5H13.2691V126V124.5H8.65161V126ZM17.8866 126V127.5H27.1216V126V124.5H17.8866V126ZM31.7391 126V127.5H40.9741V126V124.5H31.7391V126ZM45.5916 126V127.5H50.2091V126V124.5H45.5916V126ZM50.2091 126V127.5C51.7777 127.5 53.3156 127.364 54.8114 127.102L54.5525 125.624L54.2937 124.147C52.9681 124.379 51.6034 124.5 50.2091 124.5V126ZM58.7619 124.499L59.2751 125.908C62.209 124.84 64.8999 123.269 67.2437 121.3L66.279 120.152L65.3142 119.003C63.2341 120.75 60.848 122.143 58.2488 123.089L58.7619 124.499ZM69.3608 117.07L70.5093 118.035C72.4781 115.691 74.0491 113 75.1173 110.066L73.7078 109.553L72.2983 109.04C71.352 111.639 69.9594 114.025 68.2122 116.105L69.3608 117.07ZM74.8331 105.343L76.3106 105.602C76.5726 104.107 76.7091 102.569 76.7091 101H75.2091H73.7091C73.7091 102.394 73.5878 103.759 73.3556 105.085L74.8331 105.343ZM75.2091 101H76.7091V96.0667H75.2091H73.7091V101H75.2091ZM75.2091 91.1333H76.7091V81.2667H75.2091H73.7091V91.1333H75.2091ZM75.2091 76.3333H76.7091V66.4667H75.2091H73.7091V76.3333H75.2091ZM75.2091 61.5333H76.7091V51.6667H75.2091H73.7091V61.5333H75.2091ZM75.2091 46.7333H76.7091V36.8667H75.2091H73.7091V46.7333H75.2091ZM75.2091 31.9333H76.7091V27H75.2091H73.7091V31.9333H75.2091ZM75.2091 27H76.7091C76.7091 25.6057 76.8303 24.2409 77.0625 22.9154L75.585 22.6565L74.1075 22.3977C73.8455 23.8935 73.7091 25.4314 73.7091 27H75.2091ZM76.7104 18.4471L78.1199 18.9603C79.0661 16.3611 80.4588 13.9749 82.2059 11.8949L81.0574 10.9301L79.9088 9.96534C77.94 12.3092 76.369 15.0001 75.3009 17.934L76.7104 18.4471ZM84.1392 7.84831L85.1039 8.99688C87.184 7.24969 89.5701 5.85706 92.1693 4.9108L91.6562 3.5013L91.1431 2.09181C88.2091 3.15992 85.5183 4.73096 83.1744 6.69973L84.1392 7.84831ZM95.8656 2.37598L96.1244 3.85348C97.45 3.62126 98.8147 3.5 100.209 3.5L100.209 2L100.209 0.5C98.6405 0.5 97.1025 0.636451 95.6068 0.898476L95.8656 2.37598ZM100.209 2L100.209 3.5L105.358 3.5L105.358 2L105.358 0.5L100.209 0.5L100.209 2ZM110.508 2L110.508 3.5L120.806 3.5L120.806 2L120.806 0.5L110.508 0.5L110.508 2ZM125.955 2L125.955 3.5L136.254 3.5L136.254 2L136.254 0.5L125.955 0.5L125.955 2ZM141.403 2L141.403 3.5L151.702 3.5L151.702 2L151.702 0.5L141.403 0.5L141.403 2ZM156.851 2L156.851 3.5L162 3.5L162 2L162 0.5L156.851 0.5L156.851 2Z" fill="#FF3355" fill-opacity="0.17"/>
</svg>
