<svg width="16" height="68" viewBox="0 0 16 68" fill="none" xmlns="http://www.w3.org/2000/svg">
    <path d="M8 0C3.58172 -1.93129e-07 1.93129e-07 3.58172 0 8C-1.93129e-07 12.4183 3.58172 16 8 16C12.4183 16 16 12.4183 16 8C16 3.58172 12.4183 1.93129e-07 8 0ZM8 8L6.5 8L6.5 13L8 13L9.5 13L9.5 8L8 8ZM8 18L6.5 18L6.5 28L8 28L9.5 28L9.5 18L8 18ZM8 33L6.5 33L6.5 43L8 43L9.5 43L9.5 33L8 33ZM8 48L6.5 48L6.5 58L8 58L9.5 58L9.5 48L8 48ZM8 63L6.5 63L6.5 68L8 68L9.5 68L9.5 63L8 63Z" fill="#FF4D4D" fill-opacity="0.17"/>
</svg>
